<svg width="218" height="54" viewBox="0 0 218 54" fill="none" xmlns="http://www.w3.org/2000/svg">
<g clip-path="url(#clip0_2535_151929)">
<path d="M185.414 21.4512C185.414 21.5418 185.414 21.6224 185.414 21.7029C185.414 21.6425 185.435 21.5922 185.435 21.5317C185.435 21.5015 185.435 21.4814 185.435 21.4512H185.414Z" fill="#000003"/>
<path d="M175.384 8.15628C172.487 5.40693 168.212 3.9668 162.899 3.9668H147.443V39.1947H162.981C168.119 39.1947 172.23 37.7546 175.128 34.9649C178.416 31.7423 180.142 27.0895 180.142 21.2887C180.142 15.4879 178.539 11.2078 175.384 8.15628V8.15628ZM168.561 29.5468C167.009 31.0675 165.016 31.7926 162.21 31.7926H156.425V11.3689H162.087C165.201 11.3689 167.276 12.0436 168.787 13.5241C170.472 15.1757 171.294 17.8042 171.294 21.3995C171.294 24.9948 170.349 27.7542 168.571 29.5267L168.561 29.5468Z" fill="url(#paint0_linear_2535_151929)"/>
<path d="M147.495 3.95734V31.7831H156.723V11.3695H162.961C162.961 11.3695 171.562 10.6545 171.325 21.5713C171.325 21.5713 171.51 26.0528 175.744 26.0528C179.978 26.0528 180.163 21.7425 180.163 21.7425C180.163 21.7425 181.941 3.94727 162.94 3.94727H147.484L147.495 3.95734Z" fill="url(#paint1_linear_2535_151929)"/>
<path opacity="0.4" d="M175.713 17.2305C172.918 17.2305 170.729 19.7683 171.408 22.6184C171.778 24.1693 173.062 25.4382 174.645 25.8008C177.501 26.4554 180.019 24.411 180.122 21.7523C180.122 21.6617 180.122 21.5811 180.122 21.5005C180.081 19.1439 178.118 17.2405 175.703 17.2405L175.713 17.2305Z" fill="#000003"/>
<path d="M78.6029 48.1094V53.8196H77.9247L74.4308 49.5596V53.8196H73.5984V48.1094H74.2766L77.7705 52.3694V48.1094H78.6029V48.1094Z" fill="#898989"/>
<path d="M84.6762 51.2113V53.8197H83.9158V53.2456C83.6486 53.6384 83.1553 53.87 82.4668 53.87C81.47 53.87 80.8329 53.3463 80.8329 52.6011C80.8329 51.9062 81.2953 51.3322 82.6107 51.3322H83.8746V51.1811C83.8746 50.5164 83.4842 50.1337 82.6929 50.1337C82.1688 50.1337 81.6344 50.315 81.2953 50.597L80.9665 50.0129C81.4289 49.6503 82.0866 49.459 82.7854 49.459C83.9877 49.459 84.6762 50.033 84.6762 51.2113V51.2113ZM83.8746 52.5004V51.8961H82.6415C81.8502 51.8961 81.6242 52.1983 81.6242 52.5608C81.6242 52.9939 81.9941 53.2658 82.6004 53.2658C83.2067 53.2658 83.6691 52.9939 83.8746 52.5004Z" fill="#898989"/>
<path d="M89.5779 53.5683C89.3416 53.7697 88.9716 53.8705 88.612 53.8705C87.7179 53.8705 87.2144 53.3871 87.2144 52.5109V50.1342H86.4642V49.4896H87.2144V48.543H88.0159V49.4896H89.2799V50.1342H88.0159V52.4807C88.0159 52.9439 88.2626 53.2058 88.7045 53.2058C88.9408 53.2058 89.1669 53.1353 89.3313 53.0044L89.5779 53.5683V53.5683Z" fill="#898989"/>
<path d="M91.3557 48.1601C91.3557 47.8781 91.5921 47.6465 91.9003 47.6465C92.2086 47.6465 92.445 47.868 92.445 48.14C92.445 48.432 92.2189 48.6636 91.9003 48.6636C91.5818 48.6636 91.3557 48.4421 91.3557 48.1601V48.1601ZM91.4996 49.4995H92.3011V53.8199H91.4996V49.4995Z" fill="#898989"/>
<path d="M94.3461 51.6547C94.3461 50.3657 95.3223 49.4492 96.648 49.4492C97.9736 49.4492 98.9395 50.3657 98.9395 51.6547C98.9395 52.9438 97.9736 53.8703 96.648 53.8703C95.3223 53.8703 94.3461 52.9438 94.3461 51.6547ZM98.1277 51.6547C98.1277 50.7282 97.4906 50.134 96.648 50.134C95.8053 50.134 95.1579 50.7282 95.1579 51.6547C95.1579 52.5813 95.795 53.1855 96.648 53.1855C97.5009 53.1855 98.1277 52.5813 98.1277 51.6547Z" fill="#898989"/>
<path d="M105.177 51.3322V53.8197H104.376V51.4228C104.376 50.5769 103.944 50.1539 103.184 50.1539C102.331 50.1539 101.786 50.6473 101.786 51.594V53.8197H100.984V49.4993H101.755V50.1539C102.084 49.7108 102.649 49.459 103.348 49.459C104.417 49.459 105.177 50.0632 105.177 51.3322Z" fill="#898989"/>
<path d="M111.107 51.2113V53.8197H110.346V53.2456C110.079 53.6384 109.586 53.87 108.897 53.87C107.9 53.87 107.263 53.3463 107.263 52.6011C107.263 51.9062 107.726 51.3322 109.041 51.3322H110.305V51.1811C110.305 50.5164 109.915 50.1337 109.123 50.1337C108.599 50.1337 108.065 50.315 107.726 50.597L107.397 50.0129C107.859 49.6503 108.517 49.459 109.216 49.459C110.418 49.459 111.107 50.033 111.107 51.2113V51.2113ZM110.305 52.5004V51.8961H109.072C108.281 51.8961 108.055 52.1983 108.055 52.5608C108.055 52.9939 108.425 53.2658 109.031 53.2658C109.637 53.2658 110.1 52.9939 110.305 52.5004Z" fill="#898989"/>
<path d="M113.532 47.7676H114.333V53.8202H113.532V47.7676Z" fill="#898989"/>
<path d="M119.615 50.9596C119.615 49.2677 120.931 48.0391 122.709 48.0391C123.603 48.0391 124.394 48.3412 124.928 48.9253L124.384 49.4389C123.931 48.9757 123.387 48.7642 122.739 48.7642C121.424 48.7642 120.448 49.6907 120.448 50.9596C120.448 52.2285 121.424 53.1551 122.739 53.1551C123.376 53.1551 123.931 52.9335 124.384 52.4702L124.928 52.9839C124.394 53.568 123.613 53.8802 122.709 53.8802C120.941 53.8802 119.626 52.6515 119.626 50.9596H119.615Z" fill="#898989"/>
<path d="M130.385 51.2113V53.8197H129.624V53.2456C129.357 53.6384 128.864 53.87 128.175 53.87C127.179 53.87 126.542 53.3463 126.542 52.6011C126.542 51.9062 127.004 51.3322 128.319 51.3322H129.583V51.1811C129.583 50.5164 129.193 50.1337 128.402 50.1337C127.877 50.1337 127.343 50.315 127.004 50.597L126.675 50.0129C127.138 49.6503 127.795 49.459 128.494 49.459C129.696 49.459 130.385 50.033 130.385 51.2113V51.2113ZM129.583 52.5004V51.8961H128.35C127.559 51.8961 127.333 52.1983 127.333 52.5608C127.333 52.9939 127.703 53.2658 128.309 53.2658C128.915 53.2658 129.378 52.9939 129.583 52.5004Z" fill="#898989"/>
<path d="M136.993 51.3322V53.8197H136.191V51.4228C136.191 50.5769 135.759 50.1539 134.999 50.1539C134.146 50.1539 133.601 50.6473 133.601 51.594V53.8197H132.8V49.4993H133.571V50.1539C133.899 49.7108 134.465 49.459 135.163 49.459C136.232 49.459 136.993 50.0632 136.993 51.3322Z" fill="#898989"/>
<path d="M139.037 51.6547C139.037 50.3657 140.014 49.4492 141.37 49.4492C142.161 49.4492 142.819 49.7715 143.169 50.3757L142.562 50.7584C142.274 50.3355 141.843 50.134 141.36 50.134C140.497 50.134 139.849 50.7282 139.849 51.6547C139.849 52.5813 140.497 53.1855 141.36 53.1855C141.843 53.1855 142.274 52.9942 142.562 52.5611L143.169 52.9337C142.819 53.538 142.161 53.8603 141.37 53.8603C140.014 53.8603 139.037 52.9337 139.037 51.6447V51.6547Z" fill="#898989"/>
<path d="M149.057 51.9166H145.481C145.583 52.6719 146.21 53.1855 147.084 53.1855C147.598 53.1855 148.029 53.0143 148.358 52.6618L148.8 53.1654C148.399 53.6186 147.793 53.8703 147.063 53.8703C145.635 53.8703 144.689 52.9438 144.689 51.6547C144.689 50.3657 145.635 49.4492 146.909 49.4492C148.183 49.4492 149.088 50.3455 149.088 51.6749C149.088 51.7454 149.088 51.836 149.067 51.9166H149.057ZM145.481 51.3526H148.307C148.224 50.6275 147.669 50.1139 146.888 50.1139C146.107 50.1139 145.553 50.6174 145.47 51.3526H145.481Z" fill="#898989"/>
<path d="M153.496 49.4492V50.2045C153.424 50.2045 153.373 50.2045 153.311 50.2045C152.458 50.2045 151.924 50.7181 151.924 51.6648V53.82H151.122V49.4996H151.893V50.2247C152.181 49.7211 152.725 49.4593 153.496 49.4593V49.4492Z" fill="#898989"/>
<path d="M158.778 48.1094H161.234C163.104 48.1094 164.379 49.2675 164.379 50.9695C164.379 52.6715 163.104 53.8296 161.234 53.8296H158.778V48.1194V48.1094ZM161.183 53.1146C162.621 53.1146 163.546 52.2485 163.546 50.9695C163.546 49.6905 162.621 48.8244 161.183 48.8244H159.61V53.1146H161.183V53.1146Z" fill="#898989"/>
<path d="M169.979 51.2113V53.8197H169.219V53.2456C168.952 53.6384 168.458 53.87 167.77 53.87C166.773 53.87 166.136 53.3463 166.136 52.6011C166.136 51.9062 166.598 51.3322 167.914 51.3322H169.178V51.1811C169.178 50.5164 168.787 50.1337 167.996 50.1337C167.472 50.1337 166.937 50.315 166.598 50.597L166.269 50.0129C166.732 49.6503 167.39 49.459 168.088 49.459C169.291 49.459 169.979 50.033 169.979 51.2113V51.2113ZM169.178 52.5004V51.8961H167.944C167.153 51.8961 166.927 52.1983 166.927 52.5608C166.927 52.9939 167.297 53.2658 167.903 53.2658C168.51 53.2658 168.972 52.9939 169.178 52.5004Z" fill="#898989"/>
<path d="M174.891 53.5683C174.655 53.7697 174.285 53.8705 173.925 53.8705C173.031 53.8705 172.528 53.3871 172.528 52.5109V50.1342H171.777V49.4896H172.528V48.543H173.329V49.4896H174.593V50.1342H173.329V52.4807C173.329 52.9439 173.576 53.2058 174.018 53.2058C174.254 53.2058 174.48 53.1353 174.645 53.0044L174.891 53.5683V53.5683Z" fill="#898989"/>
<path d="M180.297 51.2113V53.8197H179.536V53.2456C179.269 53.6384 178.776 53.87 178.087 53.87C177.09 53.87 176.453 53.3463 176.453 52.6011C176.453 51.9062 176.916 51.3322 178.231 51.3322H179.495V51.1811C179.495 50.5164 179.105 50.1337 178.313 50.1337C177.789 50.1337 177.255 50.315 176.916 50.597L176.587 50.0129C177.049 49.6503 177.707 49.459 178.406 49.459C179.608 49.459 180.297 50.033 180.297 51.2113V51.2113ZM179.495 52.5004V51.8961H178.262C177.471 51.8961 177.245 52.1983 177.245 52.5608C177.245 52.9939 177.614 53.2658 178.221 53.2658C178.827 53.2658 179.289 52.9939 179.495 52.5004Z" fill="#898989"/>
<path d="M185.548 50.9596C185.548 49.2677 186.863 48.0391 188.641 48.0391C189.535 48.0391 190.326 48.3412 190.861 48.9253L190.316 49.4389C189.864 48.9757 189.319 48.7642 188.672 48.7642C187.356 48.7642 186.38 49.6907 186.38 50.9596C186.38 52.2285 187.356 53.1551 188.672 53.1551C189.309 53.1551 189.864 52.9335 190.316 52.4702L190.861 52.9839C190.326 53.568 189.545 53.8802 188.641 53.8802C186.873 53.8802 185.558 52.6515 185.558 50.9596H185.548Z" fill="#898989"/>
<path d="M196.656 51.9166H193.08C193.183 52.6719 193.81 53.1855 194.683 53.1855C195.197 53.1855 195.629 53.0143 195.957 52.6618L196.399 53.1654C195.999 53.6186 195.392 53.8703 194.663 53.8703C193.234 53.8703 192.289 52.9438 192.289 51.6547C192.289 50.3657 193.234 49.4492 194.508 49.4492C195.783 49.4492 196.687 50.3455 196.687 51.6749C196.687 51.7454 196.687 51.836 196.667 51.9166H196.656ZM193.08 51.3526H195.906C195.824 50.6275 195.269 50.1139 194.488 50.1139C193.707 50.1139 193.152 50.6174 193.07 51.3526H193.08Z" fill="#898989"/>
<path d="M202.915 51.3322V53.8197H202.113V51.4228C202.113 50.5769 201.681 50.1539 200.921 50.1539C200.068 50.1539 199.523 50.6473 199.523 51.594V53.8197H198.722V49.4993H199.493V50.1539C199.821 49.7108 200.387 49.459 201.085 49.459C202.154 49.459 202.915 50.0632 202.915 51.3322Z" fill="#898989"/>
<path d="M207.827 53.5683C207.59 53.7697 207.22 53.8705 206.861 53.8705C205.967 53.8705 205.463 53.3871 205.463 52.5109V50.1342H204.713V49.4896H205.463V48.543H206.265V49.4896H207.529V50.1342H206.265V52.4807C206.265 52.9439 206.511 53.2058 206.953 53.2058C207.189 53.2058 207.416 53.1353 207.58 53.0044L207.827 53.5683V53.5683Z" fill="#898989"/>
<path d="M213.561 51.9166H209.985C210.087 52.6719 210.704 53.1855 211.588 53.1855C212.102 53.1855 212.533 53.0143 212.862 52.6618L213.304 53.1654C212.903 53.6186 212.297 53.8703 211.567 53.8703C210.139 53.8703 209.193 52.9438 209.193 51.6547C209.193 50.3657 210.139 49.4492 211.413 49.4492C212.687 49.4492 213.592 50.3455 213.592 51.6749C213.592 51.7454 213.592 51.836 213.571 51.9166H213.561ZM209.985 51.3526H212.811C212.728 50.6275 212.173 50.1139 211.392 50.1139C210.611 50.1139 210.057 50.6174 209.974 51.3526H209.985Z" fill="#898989"/>
<path d="M218 49.4492V50.2045C217.928 50.2045 217.877 50.2045 217.815 50.2045C216.962 50.2045 216.428 50.7181 216.428 51.6648V53.82H215.626V49.4996H216.397V50.2247C216.685 49.7211 217.229 49.4593 218 49.4593V49.4492Z" fill="#898989"/>
<path d="M96.1033 39.1869H105.578V3.95898H96.3499V25.2186L87.6048 11.7136C84.4808 6.87954 79.0447 3.95898 73.2078 3.95898H73.1256V39.1869H82.4153C82.3948 39.0258 82.3742 38.8747 82.3537 38.7136V17.8669L96.1135 39.1869H96.1033Z" fill="#2F2725"/>
<path d="M143.292 26.4168V24.7249H134.393V26.3161C134.136 28.0986 133.827 28.9446 133.098 29.9617C131.844 31.6536 129.809 32.6305 127.436 32.6305C122.082 32.6305 118.875 28.441 118.875 21.5324C118.875 14.6238 121.948 10.4847 127.22 10.4847C130.94 10.4847 133.221 12.3881 134.043 16.2452H142.942C142.942 14.7849 142.706 13.3247 142.172 11.955C141.709 10.7868 141.103 9.79985 140.271 8.74241C137.465 5.05647 133.098 3.19336 127.528 3.19336C122.472 3.19336 118.105 4.76442 115.125 7.59433C111.713 10.8976 109.894 15.7719 109.894 21.5223C109.894 27.2728 111.713 32.1471 114.909 35.3295C117.981 38.381 122.431 39.9923 127.703 39.9923C132.974 39.9923 137.126 38.381 139.798 35.3799C141.206 33.7786 142.151 32.4996 142.799 29.851C142.809 29.8107 142.829 29.7603 142.84 29.72C143.066 28.8741 143.179 28.1691 143.24 27.6152C143.323 26.87 143.302 26.4269 143.302 26.4269L143.292 26.4168Z" fill="#2F2725"/>
<path d="M216.828 26.4168V24.7249H207.929V26.3161C207.672 28.0986 207.364 28.9446 206.634 29.9617C205.381 31.6536 203.346 32.6305 200.972 32.6305C195.618 32.6305 192.412 28.441 192.412 21.5324C192.412 14.6238 195.485 10.4847 200.756 10.4847C204.476 10.4847 206.758 12.3881 207.58 16.2452H216.479C216.479 14.7849 216.243 13.3247 215.708 11.955C215.246 10.7868 214.64 9.79985 213.807 8.74241C211.002 5.05647 206.634 3.19336 201.065 3.19336C196.009 3.19336 191.641 4.76442 188.661 7.59433C185.25 10.8976 183.431 15.7719 183.431 21.5223C183.431 27.2728 185.25 32.1471 188.445 35.3295C191.518 38.381 195.968 39.9923 201.239 39.9923C206.511 39.9923 210.663 38.381 213.335 35.3799C214.742 33.7786 215.688 32.4996 216.335 29.851C216.345 29.8107 216.366 29.7603 216.376 29.72C216.602 28.8741 216.715 28.1691 216.777 27.6152C216.859 26.87 216.839 26.4269 216.839 26.4269L216.828 26.4168Z" fill="#2F2725"/>
<path d="M0.359568 23.4658C0.359568 23.4658 -0.113138 24.3319 0.143768 27.7057L-0.010376 29.9615C-0.010376 29.9615 0.0821101 32.3685 0.215701 32.8418L0.965866 33.8791C0.965866 33.8791 33.3565 52.6512 33.449 52.7116C33.5415 52.7721 39.399 53.3562 39.399 53.3562L42.4202 52.3491L47.5789 48.6531L57.0535 41.3416C57.0535 41.3416 58.5333 40.7978 58.5333 39.3577C58.5333 37.9175 58.523 29.599 58.523 29.599L55.0086 15.5703L31.065 2.94141L10.4714 9.53783L1.6852 17.8161L0.359568 23.4658Z" fill="white"/>
<path d="M33.9321 45.4585C33.6958 45.388 33.48 45.2873 33.2642 45.1665C31.1986 44.0083 9.24861 32.2959 3.82276 29.1538C-1.82917 25.8606 0.739889 23.363 0.904308 23.2422C0.852927 23.2724 0 23.8364 0 24.5615V29.7782C0.0924861 30.4227 0.349392 30.5234 0.349392 30.5234L4.11049 32.9807C9.9885 36.3847 31.1986 48.3086 33.2333 49.4567C33.4491 49.5775 33.6649 49.6782 33.9013 49.7487C35.1653 50.1415 38.8339 51.642 43.0574 48.1475C43.4993 47.7849 43.8384 47.3216 43.8384 46.7577V45.1765C43.859 44.6025 43.1602 44.2702 42.6669 44.6126C38.0221 47.8554 35.155 45.8412 33.9321 45.4686V45.4585Z" fill="#005BAC"/>
<path d="M33.9321 51.15C33.6957 51.0795 33.4799 50.9788 33.2641 50.858C31.1986 49.6998 9.24858 37.9874 3.82273 34.8453C1.70583 33.6167 0.739864 32.4988 0.369919 31.5723C-0.0719586 32.5693 -0.0822349 34.4626 3.82273 36.7386C9.23831 39.8908 31.1883 51.5932 33.2641 52.7513C33.4799 52.8722 33.6957 52.9729 33.9321 53.0434C35.1961 53.4361 38.1967 55.5409 43.0677 51.8953C43.5609 51.5227 43.8487 50.9587 43.8487 50.3645C43.8487 49.9818 43.3862 49.7703 43.0677 50.012C38.1865 53.6577 35.1858 51.5428 33.9321 51.1601V51.15Z" fill="#7ECEF4"/>
<path d="M58.482 21.0778L51.6174 26.1938C53.6316 23.7767 50.2096 19.97 50.2096 19.97C49.2745 18.8219 47.0548 17.2005 45.7497 16.4351L38.6283 12.4168C35.0933 10.3321 30.9314 9.35526 26.7901 9.74803H26.7181C23.625 10.0502 20.6346 10.9867 17.9525 12.4974L0.822032 22.1553L0.0307617 22.6589V12.6082C0.0307617 12.6082 0.22601 11.6212 1.46943 10.9162L14.1503 3.776C17.6853 1.78197 21.6211 0.492897 25.7111 0.0598496C25.7111 0.0598496 32.8325 -0.655182 39.214 2.77898L52.717 10.3523C54.392 11.3694 56.5706 12.729 57.516 14.582C58.3073 16.1229 58.3278 18.2076 57.516 20.1512C55.6149 24.7033 58.482 21.0677 58.482 21.0677V21.0778Z" fill="url(#paint2_linear_2535_151929)"/>
<path d="M55.6458 22.4574C55.317 22.7595 54.9471 23.0314 54.6182 23.3235L47.7229 28.6208C47.0241 29.1646 46.613 30.0206 46.613 30.9371V38.4499C46.613 39.1448 47.3838 39.5577 47.9284 39.1448L57.5367 32.0247C58.7801 30.8565 58.5437 29.2452 58.5437 29.2452V19.4865C58.5437 15.2164 56.7146 13.4238 56.7146 13.4238C56.7146 13.4238 60.0749 18.4391 55.6561 22.4574H55.6458Z" fill="url(#paint3_linear_2535_151929)"/>
<path d="M0.020874 13.0518V22.6493C0.020874 25.2677 3.80253 27.3625 3.80253 27.3625L32.5349 43.1536C32.7404 43.2644 32.9768 43.3248 33.1926 43.4154C38.6081 45.9231 42.3076 43.0831 43.3763 42.0458C43.6846 41.7437 43.8593 41.3308 43.8593 40.8977V33.687C43.8593 32.4885 42.9344 31.9548 41.876 32.6195C37.7038 35.2278 35.1039 33.8481 33.953 33.4956C33.7166 33.4251 33.5008 33.3244 33.285 33.2036C31.2195 32.0454 9.26948 19.6985 3.85391 16.5564C-1.98299 13.1726 0.935459 11.2793 0.935459 11.2793C0.935459 11.2793 0.020874 11.8634 0.020874 12.6087V13.0518V13.0518Z" fill="url(#paint4_linear_2535_151929)"/>
<path d="M40.7966 20.2811C40.7041 20.1401 40.5294 20.0394 40.5294 20.0394L40.3239 19.9085L33.1408 15.8399C31.7741 15.0342 30.171 14.6817 28.5679 14.8428C27.5505 14.9435 26.564 15.2557 25.6905 15.7492L22.4741 17.562L22.3302 17.6627C22.3302 17.6627 22.1041 17.8137 22.1041 17.995V20.5127C22.1041 21.1673 23.0495 21.691 23.0495 21.691L32.6475 26.938C32.6989 26.9682 32.7606 26.9782 32.812 27.0084C33.6957 27.4919 34.302 27.3811 34.7131 27.1595L36.8094 25.8604C39.1318 24.4706 40.1492 23.7354 40.4472 23.5239C40.5808 23.4333 40.6733 23.3326 40.7452 23.2319C40.9507 22.9499 40.9507 22.7082 40.9507 22.7082V21.0868C40.9507 20.3415 40.8069 20.2811 40.8069 20.2811H40.7966Z" fill="#005BAC"/>
<path d="M40.807 20.293L35.7819 23.415C34.6618 24.1098 33.2334 24.1501 32.0722 23.5157L22.0631 18.0371V20.5548C22.0631 21.2094 23.0085 21.7331 23.0085 21.7331L32.6065 26.98C32.6579 27.0103 32.7196 27.0203 32.7709 27.0505C33.2437 27.3023 33.6342 27.3929 33.9527 27.3829V27.3527C34.2507 27.3527 34.4974 27.2721 34.7029 27.1714L36.7992 25.8722C39.1217 24.4825 40.139 23.7473 40.437 23.5358C40.5706 23.4452 40.6631 23.3445 40.735 23.2437C40.9406 22.9618 40.9406 22.7201 40.9406 22.7201V21.0987C40.9406 20.4642 40.8275 20.3232 40.7967 20.3031L40.807 20.293Z" fill="url(#paint5_linear_2535_151929)"/>
<path d="M57.8552 33.4857L55.6149 35.2179L47.692 40.9784L47.2604 41.3209C46.8493 41.6532 46.6027 42.1366 46.5924 42.6502V44.5234C46.5821 45.0471 47.209 45.3492 47.6509 45.037L55.5738 39.2765L57.8141 37.5443C57.8141 37.5443 58.5539 37.0307 58.5437 35.8826V33.6368C58.5437 33.4454 58.4717 33.1836 58.2662 33.1836L57.8552 33.4857Z" fill="#005BAC"/>
<path d="M58.554 39.3564C58.554 39.165 58.3896 39.0039 58.1841 39.0039H58.1121L57.8655 39.1852L55.6253 40.9174L47.7023 46.6779L47.1885 47.0304C46.8288 47.2721 46.6233 47.6749 46.6233 48.0878C46.6233 48.6216 47.281 48.9036 47.7023 48.5612L55.6253 42.8006L57.8655 41.0684C57.8655 41.0684 58.5746 40.5548 58.554 39.5981V39.3564V39.3564Z" fill="#7ECEF4"/>
</g>
<defs>
<linearGradient id="paint0_linear_2535_151929" x1="146.93" y1="21.5807" x2="196.255" y2="21.5807" gradientUnits="userSpaceOnUse">
<stop stop-color="#005BAC"/>
<stop offset="0.5" stop-color="#00A0E9"/>
<stop offset="1" stop-color="#7ECEF4"/>
</linearGradient>
<linearGradient id="paint1_linear_2535_151929" x1="163.855" y1="4.4206" x2="163.855" y2="28.5" gradientUnits="userSpaceOnUse">
<stop stop-color="#005BAC"/>
<stop offset="0.51" stop-color="#00A0E9"/>
<stop offset="1" stop-color="#7ECEF4"/>
</linearGradient>
<linearGradient id="paint2_linear_2535_151929" x1="4.40844" y1="13.1016" x2="34.4561" y2="13.1016" gradientUnits="userSpaceOnUse">
<stop stop-color="#002F7B"/>
<stop offset="0.53" stop-color="#005BAC"/>
<stop offset="1" stop-color="#00A0E9"/>
</linearGradient>
<linearGradient id="paint3_linear_2535_151929" x1="42.7081" y1="33.3037" x2="59.8333" y2="20.2831" gradientUnits="userSpaceOnUse">
<stop stop-color="#14126F"/>
<stop offset="0.48" stop-color="#0253A5"/>
<stop offset="0.53" stop-color="#005BAC"/>
<stop offset="1" stop-color="#008CD6"/>
</linearGradient>
<linearGradient id="paint4_linear_2535_151929" x1="48.2164" y1="41.9149" x2="6.01488" y2="21.4037" gradientUnits="userSpaceOnUse">
<stop stop-color="#005BAC"/>
<stop offset="0.52" stop-color="#008CD6"/>
<stop offset="1" stop-color="#7ECEF4"/>
</linearGradient>
<linearGradient id="paint5_linear_2535_151929" x1="19.6482" y1="13.8678" x2="38.2435" y2="25.1446" gradientUnits="userSpaceOnUse">
<stop stop-color="#14126F"/>
<stop offset="1" stop-color="#005BAC"/>
</linearGradient>
<clipPath id="clip0_2535_151929">
<rect width="218" height="54" fill="white"/>
</clipPath>
</defs>
</svg>