<svg width="140" height="140" viewBox="0 0 140 140" fill="none" xmlns="http://www.w3.org/2000/svg">
<path d="M44.5 70.5L57.5 48.5H81L94 70.5L82.5 91.5H57.5L44.5 70.5Z" fill="url(#paint0_linear_2021_9740)"/>
<path fill-rule="evenodd" clip-rule="evenodd" d="M34.852 30.5613C35.8193 26.5014 37.7922 23.1503 41.0526 21.2679C44.3129 19.3856 48.2015 19.3525 52.2011 20.5447C56.1951 21.7353 60.4859 24.1936 64.8161 27.601C73.4859 34.4231 82.6486 45.3144 90.3372 58.6314C98.0257 71.9484 102.877 85.3292 104.45 96.2485C105.236 101.702 105.219 106.647 104.253 110.702C103.286 114.761 101.313 118.112 98.0526 119.995C94.7922 121.877 90.9036 121.91 86.904 120.718C82.91 119.527 78.6192 117.069 74.289 113.662C65.6192 106.84 56.4565 95.9484 48.7679 82.6314C41.0794 69.3144 36.2286 55.9336 34.6554 45.0143C33.8696 39.5605 33.886 34.6155 34.852 30.5613ZM38.6145 44.4439C40.0986 54.7449 44.7328 67.6423 52.232 80.6314C59.7313 93.6205 68.5837 104.082 76.7626 110.518C80.8567 113.74 84.6987 115.887 88.0467 116.885C91.3891 117.881 94.0517 117.686 96.0526 116.531C98.0534 115.376 99.5537 113.167 100.362 109.774C101.172 106.376 101.234 101.975 100.491 96.8189C99.0065 86.5179 94.3723 73.6205 86.8731 60.6314C79.3738 47.6423 70.5214 37.1803 62.3425 30.7445C58.2484 27.5229 54.4064 25.376 51.0584 24.3781C47.7161 23.3818 45.0534 23.5768 43.0526 24.732C41.0517 25.8873 39.5514 28.0956 38.7431 31.4884C37.9334 34.8867 37.8716 39.2874 38.6145 44.4439Z" fill="#009FE2"/>
<path fill-rule="evenodd" clip-rule="evenodd" d="M86.904 20.5447C90.9036 19.3525 94.7922 19.3856 98.0526 21.2679C101.313 23.1503 103.286 26.5014 104.253 30.5613C105.219 34.6155 105.236 39.5605 104.45 45.0143C102.877 55.9336 98.0257 69.3144 90.3372 82.6314C82.6486 95.9484 73.4859 106.84 64.8161 113.662C60.4859 117.069 56.1951 119.527 52.2011 120.718C48.2015 121.91 44.3129 121.877 41.0526 119.995C37.7922 118.112 35.8193 114.761 34.852 110.702C33.886 106.647 33.8696 101.702 34.6554 96.2485C36.2286 85.3292 41.0794 71.9484 48.7679 58.6314C56.4565 45.3144 65.6192 34.4231 74.289 27.601C78.6192 24.1936 82.91 21.7353 86.904 20.5447ZM76.7626 30.7445C68.5837 37.1803 59.7313 47.6423 52.232 60.6314C44.7328 73.6205 40.0986 86.5179 38.6145 96.8189C37.8716 101.975 37.9334 106.376 38.7431 109.774C39.5514 113.167 41.0517 115.376 43.0526 116.531C45.0534 117.686 47.7161 117.881 51.0584 116.885C54.4064 115.887 58.2484 113.74 62.3425 110.518C70.5214 104.082 79.3738 93.6205 86.8731 80.6314C94.3723 67.6423 99.0065 54.7449 100.491 44.4439C101.234 39.2874 101.172 34.8867 100.362 31.4884C99.5537 28.0956 98.0534 25.8873 96.0526 24.732C94.0517 23.5768 91.3891 23.3818 88.0467 24.3781C84.6987 25.376 80.8567 27.5229 76.7626 30.7445Z" fill="#009FE2"/>
<path fill-rule="evenodd" clip-rule="evenodd" d="M121.708 60.3468C124.678 63.1555 126.5 66.4171 126.5 70C126.5 72.6961 125.465 75.2217 123.681 77.5013L121.319 75.653C122.784 73.7789 123.5 71.886 123.5 70C123.5 67.5078 122.243 64.9818 119.647 62.5264C117.048 60.0681 113.206 57.7851 108.334 55.8364C98.5982 51.9421 85.0459 49.5 70 49.5C51.5471 49.5 35.3885 53.1719 25.7409 58.652L24.2591 56.0434C34.5188 50.2157 51.2498 46.5 70 46.5C85.3298 46.5 99.2774 48.9827 109.448 53.0509C114.529 55.0834 118.742 57.541 121.708 60.3468ZM115.741 83.9566C105.481 89.7843 88.7502 93.5 70 93.5C54.6702 93.5 40.7226 91.0173 30.552 86.9491C25.4709 84.9166 21.2583 82.459 18.2915 79.6532C15.3215 76.8445 13.5 73.5829 13.5 70C13.5 67.204 14.6131 64.5932 16.5177 62.2489L18.8461 64.1405C17.2688 66.0821 16.5 68.0457 16.5 70C16.5 72.4922 17.7565 75.0182 20.3528 77.4736C22.9523 79.9319 26.7943 82.2149 31.6662 84.1636C41.4018 88.0578 54.9541 90.5 70 90.5C88.4529 90.5 104.611 86.8281 114.259 81.348L115.741 83.9566Z" fill="black" fill-opacity="0.2"/>
<path fill-rule="evenodd" clip-rule="evenodd" d="M104.45 45.0143C102.877 55.9336 98.0258 69.3144 90.3372 82.6314L86.8731 80.6314C94.3724 67.6423 99.0065 54.7449 100.491 44.4439C101.234 39.2874 101.172 34.8867 100.362 31.4884C99.5537 28.0956 98.0535 25.8873 96.0526 24.732L98.0526 21.2679C101.313 23.1503 103.286 26.5014 104.253 30.5613C105.219 34.6155 105.236 39.5605 104.45 45.0143Z" fill="#009FE2"/>
<path fill-rule="evenodd" clip-rule="evenodd" d="M34.6554 96.2484C36.2286 85.3291 41.0794 71.9483 48.7679 58.6313L52.232 60.6313C44.7328 73.6205 40.0986 86.5178 38.6145 96.8189C37.8716 101.975 37.9334 106.376 38.7431 109.774C39.5514 113.167 41.0517 115.375 43.0526 116.531L41.0526 119.995C37.7922 118.112 35.8193 114.761 34.852 110.701C33.886 106.647 33.8696 101.702 34.6554 96.2484Z" fill="#009FE2"/>
<path fill-rule="evenodd" clip-rule="evenodd" d="M112.5 80C112.5 76.4101 115.41 73.5 119 73.5C122.59 73.5 125.5 76.4101 125.5 80C125.5 83.5899 122.59 86.5 119 86.5C115.41 86.5 112.5 83.5899 112.5 80ZM119 76.5C117.067 76.5 115.5 78.067 115.5 80C115.5 81.933 117.067 83.5 119 83.5C120.933 83.5 122.5 81.933 122.5 80C122.5 78.067 120.933 76.5 119 76.5Z" fill="black" fill-opacity="0.2"/>
<path fill-rule="evenodd" clip-rule="evenodd" d="M14.5 60C14.5 56.4101 17.4101 53.5 21 53.5C24.5899 53.5 27.5 56.4101 27.5 60C27.5 63.5899 24.5899 66.5 21 66.5C17.4101 66.5 14.5 63.5899 14.5 60ZM21 56.5C19.067 56.5 17.5 58.067 17.5 60C17.5 61.933 19.067 63.5 21 63.5C22.933 63.5 24.5 61.933 24.5 60C24.5 58.067 22.933 56.5 21 56.5Z" fill="black" fill-opacity="0.2"/>
<path fill-rule="evenodd" clip-rule="evenodd" d="M70 54.2634L83.5 62.1399V77.863L70 85.7365L56.5 77.863V62.1399L70 54.2634ZM59.5 63.8628V76.1397L70 82.2635L80.5 76.1397V63.8628L70 57.7366L59.5 63.8628Z" fill="#003177"/>
<path fill-rule="evenodd" clip-rule="evenodd" d="M57.7598 62.7825C58.156 62.055 59.067 61.7865 59.7945 62.1828L69.9136 67.6947C70.6411 68.091 70.9096 69.002 70.5133 69.7295C70.117 70.457 69.206 70.7255 68.4785 70.3293L58.3595 64.8173C57.632 64.421 57.3635 63.51 57.7598 62.7825Z" fill="#003177"/>
<path fill-rule="evenodd" clip-rule="evenodd" d="M82.7058 62.7965C83.0943 63.5282 82.8161 64.4363 82.0844 64.8248L71.7034 70.3368C70.9718 70.7253 70.0637 70.4471 69.6752 69.7154C69.2867 68.9837 69.5649 68.0757 70.2965 67.6872L80.6775 62.1752C81.4092 61.7867 82.3173 62.0649 82.7058 62.7965Z" fill="#003177"/>
<path fill-rule="evenodd" clip-rule="evenodd" d="M70 68.5121C70.8284 68.5121 71.5 69.1837 71.5 70.0121V82.0121C71.5 82.8405 70.8284 83.5121 70 83.5121C69.1716 83.5121 68.5 82.8405 68.5 82.0121V70.0121C68.5 69.1837 69.1716 68.5121 70 68.5121Z" fill="#003177"/>
<path opacity="0.1" d="M66.0001 39.3809V29H76.381V39.3809H66.0001Z" fill="#003177"/>
<path opacity="0.4" d="M79.381 39.3809V29H89.762V39.3809H79.381Z" fill="#003177"/>
<path opacity="0.7" d="M92.762 39.3809V29H103.143V39.3809H92.762Z" fill="#003177"/>
<path d="M106.143 39.3809V29H116.524V39.3809H106.143Z" fill="#003177"/>
<path opacity="0.1" d="M23 101V111.381H33.381V101H23Z" fill="#003177"/>
<path opacity="0.4" d="M36.381 101V111.381H46.7619V101H36.381Z" fill="#003177"/>
<path opacity="0.7" d="M49.762 101V111.381H60.1429V101H49.762Z" fill="#003177"/>
<path d="M63.1429 101V111.381H73.5239V101H63.1429Z" fill="#003177"/>
<defs>
<linearGradient id="paint0_linear_2021_9740" x1="69.25" y1="48.5" x2="69.25" y2="91.5" gradientUnits="userSpaceOnUse">
<stop stop-color="#009FE2"/>
<stop offset="1" stop-color="#009FE2" stop-opacity="0"/>
</linearGradient>
</defs>
</svg>