<svg width="141" height="140" viewBox="0 0 141 140" fill="none" xmlns="http://www.w3.org/2000/svg">
<path fill-rule="evenodd" clip-rule="evenodd" d="M114.667 18.5C111.077 18.5 108.167 21.4101 108.167 25C108.167 28.0736 110.3 30.6489 113.167 31.3261V122.5H28.1667V88.3261C31.0334 87.6489 33.1667 85.0736 33.1667 82C33.1667 78.4101 30.2565 75.5 26.6667 75.5C23.0768 75.5 20.1667 78.4101 20.1667 82C20.1667 85.0736 22.3 87.6489 25.1667 88.3261V124C25.1667 124.828 25.8382 125.5 26.6667 125.5H114.667C115.495 125.5 116.167 124.828 116.167 124V31.3261C119.033 30.6489 121.167 28.0736 121.167 25C121.167 21.4101 118.257 18.5 114.667 18.5ZM114.667 28.5C116.6 28.5 118.167 26.933 118.167 25C118.167 23.067 116.6 21.5 114.667 21.5C112.734 21.5 111.167 23.067 111.167 25C111.167 26.933 112.734 28.5 114.667 28.5ZM26.6667 78.5C24.7337 78.5 23.1667 80.067 23.1667 82C23.1667 83.933 24.7337 85.5 26.6667 85.5C28.5997 85.5 30.1667 83.933 30.1667 82C30.1667 80.067 28.5997 78.5 26.6667 78.5Z" fill="white" fill-opacity="0.4"/>
<path d="M47.7664 59.7002H93.5664V101.5H47.7664V59.7002Z" fill="url(#paint0_linear_905_5479)"/>
<path fill-rule="evenodd" clip-rule="evenodd" d="M76.1664 39.9H78.3667H80.5664H101.267V110.3H40.0667V39.9H60.7664H62.9667H65.1664C65.1664 36.8624 67.6288 34.4 70.6664 34.4C73.704 34.4 76.1664 36.8624 76.1664 39.9ZM61.7955 35.5C63.4154 32.2402 66.7793 30 70.6664 30C74.5535 30 77.9173 32.2402 79.5373 35.5H105.667V114.7H35.6667V35.5H61.7955ZM52.1667 39.9003H56.5667V47.6003H84.7667V39.9003H89.1667V52.0003H52.1667V39.9003Z" fill="white"/>
<path fill-rule="evenodd" clip-rule="evenodd" d="M78.9744 68.6001L82.6667 72.2924L67.8976 87.0614L67.8974 87.0612L67.8973 87.0613L58.6667 77.8306L62.3589 74.1383L67.8975 79.6769L78.9744 68.6001Z" fill="white"/>
<path opacity="0.1" d="M17.6667 56H27.6667V66H17.6667V56Z" fill="white"/>
<path opacity="0.1" d="M59.6667 14H69.6667V24H59.6667V14Z" fill="white"/>
<path opacity="0.4" d="M17.6667 42H27.6667V52H17.6667V42Z" fill="white"/>
<path opacity="0.4" d="M45.6667 14H55.6667V24H45.6667V14Z" fill="white"/>
<path opacity="0.7" d="M17.6667 28H27.6667V38H17.6667V28Z" fill="white"/>
<path opacity="0.7" d="M31.6667 14H41.6667V24H31.6667V14Z" fill="white"/>
<path d="M17.6667 14H27.6667V24H17.6667V14Z" fill="white"/>
<defs>
<linearGradient id="paint0_linear_905_5479" x1="70.6664" y1="59.7002" x2="70.6664" y2="101.5" gradientUnits="userSpaceOnUse">
<stop stop-color="white" stop-opacity="0.7"/>
<stop offset="1" stop-color="white" stop-opacity="0"/>
</linearGradient>
</defs>
</svg>