<svg width="140" height="140" viewBox="0 0 140 140" fill="none" xmlns="http://www.w3.org/2000/svg">
<path d="M44.5 70.5L57.5 48.5H81L94 70.5L82.5 91.5H57.5L44.5 70.5Z" fill="url(#paint0_linear_905_5539)"/>
<path fill-rule="evenodd" clip-rule="evenodd" d="M34.852 30.5614C35.8193 26.5015 37.7922 23.1504 41.0526 21.2681C44.3129 19.3857 48.2015 19.3527 52.2011 20.5449C56.1951 21.7354 60.4859 24.1937 64.8161 27.6011C73.4859 34.4232 82.6486 45.3145 90.3372 58.6315C98.0257 71.9485 102.877 85.3293 104.45 96.2486C105.236 101.702 105.219 106.647 104.253 110.702C103.286 114.762 101.313 118.113 98.0526 119.995C94.7922 121.877 90.9036 121.91 86.904 120.718C82.91 119.528 78.6192 117.069 74.289 113.662C65.6192 106.84 56.4565 95.9485 48.7679 82.6315C41.0794 69.3145 36.2286 55.9338 34.6554 45.0144C33.8696 39.5607 33.886 34.6156 34.852 30.5614ZM38.6145 44.444C40.0986 54.745 44.7328 67.6424 52.232 80.6315C59.7313 93.6206 68.5837 104.083 76.7626 110.518C80.8567 113.74 84.6987 115.887 88.0467 116.885C91.3891 117.881 94.0517 117.686 96.0526 116.531C98.0534 115.376 99.5537 113.167 100.362 109.775C101.172 106.376 101.234 101.975 100.491 96.819C99.0065 86.518 94.3723 73.6206 86.8731 60.6315C79.3738 47.6424 70.5214 37.1804 62.3425 30.7446C58.2484 27.523 54.4064 25.3762 51.0584 24.3782C47.7161 23.3819 45.0534 23.577 43.0526 24.7322C41.0517 25.8874 39.5514 28.0957 38.7431 31.4885C37.9334 34.8869 37.8716 39.2876 38.6145 44.444Z" fill="white"/>
<path fill-rule="evenodd" clip-rule="evenodd" d="M86.904 20.5449C90.9036 19.3527 94.7922 19.3857 98.0526 21.2681C101.313 23.1504 103.286 26.5015 104.253 30.5614C105.219 34.6156 105.236 39.5607 104.45 45.0144C102.877 55.9338 98.0257 69.3145 90.3372 82.6315C82.6486 95.9485 73.4859 106.84 64.8161 113.662C60.4859 117.069 56.1951 119.528 52.2011 120.718C48.2015 121.91 44.3129 121.877 41.0526 119.995C37.7922 118.113 35.8193 114.762 34.852 110.702C33.886 106.647 33.8696 101.702 34.6554 96.2486C36.2286 85.3293 41.0794 71.9485 48.7679 58.6315C56.4565 45.3145 65.6192 34.4232 74.289 27.6011C78.6192 24.1937 82.91 21.7354 86.904 20.5449ZM76.7626 30.7446C68.5837 37.1804 59.7313 47.6424 52.232 60.6315C44.7328 73.6206 40.0986 86.518 38.6145 96.819C37.8716 101.975 37.9334 106.376 38.7431 109.775C39.5514 113.167 41.0517 115.376 43.0526 116.531C45.0534 117.686 47.7161 117.881 51.0584 116.885C54.4064 115.887 58.2484 113.74 62.3425 110.518C70.5214 104.083 79.3738 93.6206 86.8731 80.6315C94.3723 67.6424 99.0065 54.745 100.491 44.444C101.234 39.2876 101.172 34.8869 100.362 31.4885C99.5537 28.0957 98.0534 25.8874 96.0526 24.7322C94.0517 23.577 91.3891 23.3819 88.0467 24.3782C84.6987 25.3762 80.8567 27.523 76.7626 30.7446Z" fill="white"/>
<path fill-rule="evenodd" clip-rule="evenodd" d="M104.45 45.0144C102.877 55.9338 98.0258 69.3145 90.3372 82.6315L86.8731 80.6315C94.3724 67.6424 99.0065 54.745 100.491 44.444C101.234 39.2876 101.172 34.8869 100.362 31.4885C99.5537 28.0957 98.0535 25.8874 96.0526 24.7322L98.0526 21.2681C101.313 23.1504 103.286 26.5015 104.253 30.5614C105.219 34.6156 105.236 39.5607 104.45 45.0144Z" fill="white"/>
<path fill-rule="evenodd" clip-rule="evenodd" d="M34.6554 96.2484C36.2286 85.3291 41.0794 71.9483 48.7679 58.6313L52.232 60.6313C44.7328 73.6205 40.0986 86.5178 38.6145 96.8189C37.8716 101.975 37.9334 106.376 38.7431 109.774C39.5514 113.167 41.0517 115.375 43.0526 116.531L41.0526 119.995C37.7922 118.112 35.8193 114.761 34.852 110.701C33.886 106.647 33.8696 101.702 34.6554 96.2484Z" fill="white"/>
<path fill-rule="evenodd" clip-rule="evenodd" d="M121.708 60.3468C124.678 63.1555 126.5 66.4171 126.5 70C126.5 72.286 125.756 74.4495 124.442 76.4444C125.111 77.4661 125.5 78.6876 125.5 80C125.5 83.5899 122.59 86.5 119 86.5C117.235 86.5 115.634 85.7964 114.463 84.6542C104.123 90.0792 87.9908 93.5 70 93.5C54.6702 93.5 40.7226 91.0173 30.552 86.9491C25.4709 84.9166 21.2583 82.459 18.2915 79.6532C15.3215 76.8445 13.5 73.5829 13.5 70C13.5 67.7132 14.2446 65.5502 15.5579 63.5557C14.8889 62.5339 14.5 61.3124 14.5 60C14.5 56.4101 17.4101 53.5 21 53.5C22.7652 53.5 24.3661 54.2036 25.5374 55.3458C35.8775 49.9208 52.0092 46.5 70 46.5C85.3298 46.5 99.2774 48.9827 109.448 53.0509C114.529 55.0834 118.742 57.541 121.708 60.3468ZM27.1494 57.8886C36.9183 52.8336 52.4177 49.5 70 49.5C85.0459 49.5 98.5982 51.9421 108.334 55.8364C113.206 57.7851 117.048 60.0681 119.647 62.5264C122.243 64.9818 123.5 67.5078 123.5 70C123.5 71.4498 123.077 72.9036 122.216 74.3499C121.267 73.809 120.17 73.5 119 73.5C115.41 73.5 112.5 76.4101 112.5 80C112.5 80.7391 112.623 81.4494 112.851 82.1114C103.082 87.1664 87.5823 90.5 70 90.5C54.9541 90.5 41.4018 88.0578 31.6662 84.1636C26.7943 82.2149 22.9523 79.9319 20.3528 77.4736C17.7565 75.0182 16.5 72.4922 16.5 70C16.5 68.5509 16.9227 67.0967 17.7843 65.6501C18.7326 66.191 19.8302 66.5 21 66.5C24.5899 66.5 27.5 63.5899 27.5 60C27.5 59.2609 27.3766 58.5506 27.1494 57.8886ZM119 76.5C117.067 76.5 115.5 78.067 115.5 80C115.5 81.933 117.067 83.5 119 83.5C120.933 83.5 122.5 81.933 122.5 80C122.5 78.067 120.933 76.5 119 76.5ZM17.5 60C17.5 58.067 19.067 56.5 21 56.5C22.933 56.5 24.5 58.067 24.5 60C24.5 61.933 22.933 63.5 21 63.5C19.067 63.5 17.5 61.933 17.5 60Z" fill="white" fill-opacity="0.4"/>
<path fill-rule="evenodd" clip-rule="evenodd" d="M70 54.2634L83.5 62.1399V77.863L70 85.7365L56.5 77.863V62.1399L70 54.2634ZM59.5 63.8629V76.1398L70 82.2636L80.5 76.1398V63.8629L70 57.7367L59.5 63.8629Z" fill="white"/>
<path fill-rule="evenodd" clip-rule="evenodd" d="M57.7598 62.7825C58.156 62.055 59.067 61.7865 59.7945 62.1828L69.9136 67.6948C70.6411 68.0911 70.9096 69.0021 70.5133 69.7296C70.117 70.4571 69.206 70.7256 68.4785 70.3293L58.3595 64.8173C57.632 64.421 57.3635 63.51 57.7598 62.7825Z" fill="white"/>
<path fill-rule="evenodd" clip-rule="evenodd" d="M82.7058 62.7966C83.0943 63.5283 82.8161 64.4364 82.0844 64.8249L71.7034 70.3369C70.9718 70.7254 70.0637 70.4472 69.6752 69.7155C69.2867 68.9838 69.5649 68.0757 70.2965 67.6872L80.6775 62.1752C81.4092 61.7867 82.3173 62.0649 82.7058 62.7966Z" fill="white"/>
<path fill-rule="evenodd" clip-rule="evenodd" d="M70 68.5122C70.8284 68.5122 71.5 69.1838 71.5 70.0122V82.0122C71.5 82.8406 70.8284 83.5122 70 83.5122C69.1716 83.5122 68.5 82.8406 68.5 82.0122V70.0122C68.5 69.1838 69.1716 68.5122 70 68.5122Z" fill="white"/>
<path opacity="0.1" d="M66.0001 39.3809V28.9999H76.381V39.3809H66.0001Z" fill="white"/>
<path opacity="0.4" d="M79.381 39.3809V28.9999H89.762V39.3809H79.381Z" fill="white"/>
<path opacity="0.7" d="M92.762 39.3809V28.9999H103.143V39.3809H92.762Z" fill="white"/>
<path d="M106.143 39.3809V28.9999H116.524V39.3809H106.143Z" fill="white"/>
<path opacity="0.1" d="M23 101V111.381H33.381V101H23Z" fill="white"/>
<path opacity="0.4" d="M36.381 101V111.381H46.7619V101H36.381Z" fill="white"/>
<path opacity="0.7" d="M49.762 101V111.381H60.1429V101H49.762Z" fill="white"/>
<path d="M63.1429 101V111.381H73.5239V101H63.1429Z" fill="white"/>
<defs>
<linearGradient id="paint0_linear_905_5539" x1="69.25" y1="48.5" x2="69.25" y2="91.5" gradientUnits="userSpaceOnUse">
<stop stop-color="white" stop-opacity="0.7"/>
<stop offset="1" stop-color="white" stop-opacity="0"/>
</linearGradient>
</defs>
</svg>