<svg width="141" height="140" viewBox="0 0 141 140" fill="none" xmlns="http://www.w3.org/2000/svg">
<path fill-rule="evenodd" clip-rule="evenodd" d="M99.3333 51H41.3333V89H56.3333V83.6986C56.3333 78.3424 60.7531 74 66.2085 74H74.4559C79.9097 74 84.3316 78.3424 84.3316 83.6986L84.333 89H99.3333V51ZM70.3333 71C74.1993 71 77.3333 67.8655 77.3333 63.9992C77.3333 60.1328 74.1993 57 70.3333 57C66.4672 57 63.3333 60.1327 63.3333 63.9992C63.3333 67.8657 66.4672 71 70.3333 71Z" fill="url(#paint0_linear_905_5866)"/>
<path fill-rule="evenodd" clip-rule="evenodd" d="M81.3333 25.5C84.9231 25.5 87.8333 28.4101 87.8333 32C87.8333 35.0736 85.7 37.6489 82.8333 38.3261V43C82.8333 43.8284 82.1617 44.5 81.3333 44.5H34.8333V72C34.8333 72.8284 34.1617 73.5 33.3333 73.5C32.5048 73.5 31.8333 72.8284 31.8333 72V43C31.8333 42.1716 32.5048 41.5 33.3333 41.5H79.8333V38.3261C76.9666 37.6489 74.8333 35.0736 74.8333 32C74.8333 28.4101 77.7434 25.5 81.3333 25.5ZM84.8333 32C84.8333 30.067 83.2663 28.5 81.3333 28.5C79.4003 28.5 77.8333 30.067 77.8333 32C77.8333 33.933 79.4003 35.5 81.3333 35.5C83.2663 35.5 84.8333 33.933 84.8333 32Z" fill="white" fill-opacity="0.4"/>
<path fill-rule="evenodd" clip-rule="evenodd" d="M57.8332 101.674V97C57.8332 96.1716 58.5048 95.5 59.3332 95.5H105.833V68C105.833 67.1716 106.505 66.5 107.333 66.5C108.162 66.5 108.833 67.1716 108.833 68V97C108.833 97.8284 108.162 98.5 107.333 98.5H60.8332V101.674C63.7 102.351 65.8333 104.926 65.8333 108C65.8333 111.59 62.9231 114.5 59.3333 114.5C55.7434 114.5 52.8333 111.59 52.8333 108C52.8333 104.926 54.9665 102.351 57.8332 101.674ZM62.8333 108C62.8333 106.067 61.2662 104.5 59.3333 104.5C57.4003 104.5 55.8333 106.067 55.8333 108C55.8333 109.933 57.4003 111.5 59.3333 111.5C61.2662 111.5 62.8333 109.933 62.8333 108Z" fill="white" fill-opacity="0.4"/>
<path fill-rule="evenodd" clip-rule="evenodd" d="M21.3333 101H25.3333V115H39.3333V119H21.3333V101Z" fill="white"/>
<path fill-rule="evenodd" clip-rule="evenodd" d="M119.333 101H115.333V115H101.333V119H119.333V101Z" fill="white"/>
<path fill-rule="evenodd" clip-rule="evenodd" d="M21.3333 39H25.3333V25H39.3333V21H21.3333V39Z" fill="white"/>
<path fill-rule="evenodd" clip-rule="evenodd" d="M119.333 39H115.333V25H101.333V21H119.333V39Z" fill="white"/>
<path opacity="0.1" d="M74.3333 57.3809V46.9999H84.7142V57.3809H74.3333Z" fill="white"/>
<path opacity="0.4" d="M87.7142 57.3809V46.9999H98.0952V57.3809H87.7142Z" fill="white"/>
<path opacity="0.7" d="M101.095 57.3809V46.9999H111.476V57.3809H101.095Z" fill="white"/>
<path d="M114.476 57.3809V46.9999H124.857V57.3809H114.476Z" fill="white"/>
<path opacity="0.1" d="M65.8572 83V93.381H55.4762V83H65.8572Z" fill="white"/>
<path opacity="0.4" d="M52.4762 83V93.381H42.0952V83H52.4762Z" fill="white"/>
<path opacity="0.7" d="M39.0952 83V93.381H28.7143V83H39.0952Z" fill="white"/>
<path d="M25.7142 83V93.381H15.3333V83H25.7142Z" fill="white"/>
<defs>
<linearGradient id="paint0_linear_905_5866" x1="70.3333" y1="51" x2="70.3333" y2="89" gradientUnits="userSpaceOnUse">
<stop stop-color="white" stop-opacity="0.7"/>
<stop offset="1" stop-color="white" stop-opacity="0"/>
</linearGradient>
</defs>
</svg>