<svg width="48" height="48" viewBox="0 0 48 48" fill="none" xmlns="http://www.w3.org/2000/svg">
<path d="M4.5 34.5001V30.2064C4.5 19.4251 13.1625 10.5376 23.925 10.5001C26.4921 10.4903 29.0358 10.9874 31.4104 11.9629C33.7849 12.9385 35.9434 14.3733 37.7621 16.185C39.5808 17.9967 41.0239 20.1497 42.0085 22.5205C42.9932 24.8912 43.5 27.433 43.5 30.0001V34.5001C43.5 34.898 43.342 35.2795 43.0607 35.5608C42.7794 35.8421 42.3978 36.0001 42 36.0001H6C5.60218 36.0001 5.22064 35.8421 4.93934 35.5608C4.65804 35.2795 4.5 34.898 4.5 34.5001Z" stroke="white" stroke-width="2" stroke-linecap="round" stroke-linejoin="round"/>
<path d="M24 10.5V16.5" stroke="white" stroke-width="2" stroke-linecap="round" stroke-linejoin="round"/>
<path d="M5.15625 24.9561L10.9688 26.5123" stroke="white" stroke-width="2" stroke-linecap="round" stroke-linejoin="round"/>
<path d="M42.8438 24.9561L37.0312 26.5123" stroke="white" stroke-width="2" stroke-linecap="round" stroke-linejoin="round"/>
<path d="M19.3875 36.0002L32.2125 19.2939" stroke="white" stroke-width="2" stroke-linecap="round" stroke-linejoin="round"/>
</svg>