<svg width="48" height="48" viewBox="0 0 48 48" fill="none" xmlns="http://www.w3.org/2000/svg">
<path d="M15 33L4.5 43.5" stroke="white" stroke-width="2" stroke-linecap="round" stroke-linejoin="round"/>
<path d="M43.5 4.5L33 15" stroke="white" stroke-width="2" stroke-linecap="round" stroke-linejoin="round"/>
<path d="M24.5737 12.9292L12.933 24.57C11.1756 26.3273 11.1756 29.1766 12.933 30.9339L17.0695 35.0705C18.8269 36.8279 21.6761 36.8279 23.4335 35.0705L35.0742 23.4298C36.8316 21.6724 36.8316 18.8232 35.0742 17.0658L30.9377 12.9292C29.1803 11.1719 26.3311 11.1719 24.5737 12.9292Z" stroke="white" stroke-width="2" stroke-linecap="round" stroke-linejoin="round"/>
<path d="M17.25 17.25L30.75 30.75" stroke="white" stroke-width="2" stroke-linecap="round" stroke-linejoin="round"/>
<path d="M42 30L37.5 28.5" stroke="white" stroke-width="2" stroke-linecap="round" stroke-linejoin="round"/>
<path d="M10.5 19.5L6 18" stroke="white" stroke-width="2" stroke-linecap="round" stroke-linejoin="round"/>
<path d="M18 6L19.5 10.5" stroke="white" stroke-width="2" stroke-linecap="round" stroke-linejoin="round"/>
<path d="M28.5 37.5L30 42" stroke="white" stroke-width="2" stroke-linecap="round" stroke-linejoin="round"/>
</svg>