<svg width="291" height="36" viewBox="0 0 291 36" fill="none" xmlns="http://www.w3.org/2000/svg">
<g clip-path="url(#clip0_580_23580)">
<path d="M0.235809 15.6439C0.235809 15.6439 -0.0742372 16.2213 0.094266 18.4704L-0.00683594 19.9744C-0.00683594 19.9744 0.0538252 21.579 0.141447 21.8945L0.633476 22.5861C0.633476 22.5861 21.8784 35.1008 21.939 35.1411C21.9997 35.1814 25.8416 35.5708 25.8416 35.5708L27.8232 34.8994L31.2067 32.4354L37.4211 27.5611C37.4211 27.5611 38.3917 27.1985 38.3917 26.2384C38.3917 25.2784 38.3849 19.7327 38.3849 19.7327L36.0798 10.3802L20.3753 1.96094L6.8681 6.35855L1.10529 11.8774L0.235809 15.6439Z" fill="white"/>
<path d="M22.2559 30.306C22.1009 30.259 21.9593 30.1919 21.8178 30.1113C20.463 29.3392 6.06612 21.5309 2.50733 19.4362C-1.19974 17.2407 0.485289 15.5757 0.593131 15.4951C0.559431 15.5153 0 15.8912 0 16.3746V19.8524C0.0606612 20.2821 0.229164 20.3493 0.229164 20.3493L2.69605 21.9875C6.55141 24.2568 20.463 32.206 21.7976 32.9714C21.9391 33.052 22.0807 33.1191 22.2357 33.1661C23.0647 33.428 25.471 34.4284 28.2411 32.0986C28.531 31.8569 28.7534 31.5481 28.7534 31.1721V30.118C28.7669 29.7353 28.3085 29.5138 27.985 29.742C24.9385 31.9039 23.058 30.5611 22.2559 30.3127V30.306Z" fill="#005BAC"/>
<path d="M22.2559 34.0997C22.1009 34.0527 21.9593 33.9856 21.8178 33.905C20.463 33.1329 6.0661 25.3246 2.50731 23.2299C1.11885 22.4108 0.485274 21.6655 0.242629 21.0479C-0.0471966 21.7125 -0.0539368 22.9747 2.50731 24.4921C6.05936 26.5935 20.4563 34.3951 21.8178 35.1672C21.9593 35.2478 22.1009 35.3149 22.2559 35.3619C23.0849 35.6238 25.053 37.027 28.2479 34.5965C28.5714 34.3481 28.7601 33.9721 28.7601 33.576C28.7601 33.3209 28.4568 33.1799 28.2479 33.341C25.0463 35.7715 23.0782 34.3615 22.2559 34.1064V34.0997Z" fill="#7ECEF4"/>
<path d="M38.3583 14.0522L33.8559 17.4628C35.177 15.8515 32.9325 13.3136 32.9325 13.3136C32.3192 12.5482 30.8633 11.4673 30.0073 10.957L25.3364 8.2782C23.0178 6.88842 20.288 6.23717 17.5717 6.49901H17.5246C15.4958 6.70043 13.5344 7.32482 11.7752 8.33191L0.539437 14.7706L0.0204468 15.1062V8.40576C0.0204468 8.40576 0.148509 7.7478 0.964065 7.27782L9.28139 2.51766C11.6 1.1883 14.1815 0.328924 16.864 0.0402253C16.864 0.0402253 21.5349 -0.436463 25.7206 1.85298L34.5771 6.90184C35.6757 7.57995 37.1046 8.48633 37.7247 9.72169C38.2437 10.7489 38.2572 12.1387 37.7247 13.4345C36.4778 16.4692 38.3583 14.0454 38.3583 14.0454V14.0522Z" fill="url(#paint0_linear_580_23580)"/>
<path d="M36.4978 14.9716C36.2821 15.173 36.0395 15.3543 35.8238 15.549L31.3012 19.0805C30.8428 19.4431 30.5732 20.0137 30.5732 20.6247V25.6333C30.5732 26.0966 31.0788 26.3718 31.436 26.0966L37.738 21.3498C38.5536 20.571 38.3985 19.4968 38.3985 19.4968V12.991C38.3985 10.1443 37.1988 8.94922 37.1988 8.94922C37.1988 8.94922 39.4028 12.2927 36.5046 14.9716H36.4978Z" fill="url(#paint1_linear_580_23580)"/>
<path d="M0.0136108 8.70118V15.0995C0.0136108 16.8452 2.49398 18.2417 2.49398 18.2417L21.3394 28.7691C21.4742 28.8429 21.6292 28.8832 21.7708 28.9436C25.3228 30.6154 27.7492 28.7288 28.4502 28.0305C28.6524 27.8291 28.767 27.5538 28.767 27.2652V22.458C28.767 21.659 28.1604 21.3032 27.4662 21.7463C24.7297 23.4852 23.0244 22.5654 22.2695 22.3304C22.1145 22.2834 21.973 22.2163 21.8314 22.1357C20.4766 21.3636 6.07973 13.1324 2.52768 11.0376C-1.30071 8.78175 0.613482 7.51953 0.613482 7.51953C0.613482 7.51953 0.0136108 7.90894 0.0136108 8.40577V8.70118Z" fill="url(#paint2_linear_580_23580)"/>
<path d="M26.7583 13.522C26.6977 13.428 26.5831 13.3609 26.5831 13.3609L26.4483 13.2736L21.7369 10.5612C20.8405 10.0241 19.789 9.7891 18.7376 9.89653C18.0703 9.96367 17.4233 10.1718 16.8504 10.5008L14.7407 11.7093L14.6463 11.7764C14.6463 11.7764 14.498 11.8771 14.498 11.998V13.6765C14.498 14.1129 15.1181 14.462 15.1181 14.462L21.4134 17.9599C21.4471 17.9801 21.4876 17.9868 21.5213 18.0069C22.1009 18.3292 22.4986 18.2553 22.7682 18.1076L24.1432 17.2415C25.6664 16.315 26.3337 15.8249 26.5292 15.6839C26.6168 15.6235 26.6775 15.5564 26.7246 15.4892C26.8594 15.3012 26.8594 15.1401 26.8594 15.1401V14.0592C26.8594 13.5623 26.7651 13.522 26.7651 13.522H26.7583Z" fill="#005BAC"/>
<path d="M26.7651 13.5283L23.4691 15.6096C22.7345 16.0729 21.7976 16.0998 21.036 15.6768L14.4711 12.0244V13.7029C14.4711 14.1393 15.0912 14.4884 15.0912 14.4884L21.3864 17.9864C21.4201 18.0065 21.4606 18.0132 21.4943 18.0334C21.8043 18.2012 22.0605 18.2616 22.2694 18.2549V18.2348C22.4649 18.2348 22.6266 18.1811 22.7614 18.1139L24.1364 17.2478C25.6597 16.3213 26.327 15.8312 26.5224 15.6902C26.61 15.6298 26.6707 15.5626 26.7179 15.4955C26.8527 15.3075 26.8527 15.1464 26.8527 15.1464V14.0654C26.8527 13.6425 26.7785 13.5485 26.7583 13.535L26.7651 13.5283Z" fill="url(#paint3_linear_580_23580)"/>
<path d="M37.947 22.3235L36.4776 23.4783L31.281 27.3186L30.9979 27.5469C30.7283 27.7685 30.5665 28.0907 30.5598 28.4331V29.6819C30.553 30.0311 30.9642 30.2325 31.254 30.0243L36.4506 26.184L37.92 25.0292C37.92 25.0292 38.4053 24.6868 38.3985 23.9214V22.4242C38.3985 22.2966 38.3514 22.1221 38.2166 22.1221L37.947 22.3235Z" fill="#005BAC"/>
<path d="M38.4052 26.2379C38.4052 26.1104 38.2974 26.0029 38.1626 26.0029H38.1154L37.9537 26.1238L36.4843 27.2786L31.2877 31.1189L30.9507 31.3539C30.7148 31.5151 30.58 31.7836 30.58 32.0589C30.58 32.4147 31.0113 32.6027 31.2877 32.3744L36.4843 28.5341L37.9537 27.3793C37.9537 27.3793 38.4187 27.0369 38.4052 26.3991V26.2379Z" fill="#7ECEF4"/>
<path d="M50.8677 2.80652H63.1887C63.1617 4.08216 63.1011 5.27724 63 6.37832C62.9056 7.48612 62.7978 8.46635 62.6899 9.33244H66.1678V10.8565H58.1269V14.6633H63.2359V21.1288H61.4565V16.1672H50.7666V14.6633H56.307V10.8565H48.1582V9.33244H60.9375C61.0453 8.47978 61.1464 7.65396 61.2273 6.84829C61.3082 6.04262 61.3554 5.2101 61.3756 4.344H50.8745V2.7998L50.8677 2.80652Z" fill="#000003" stroke="#000003" stroke-width="0.5" stroke-miterlimit="10"/>
<path d="M66.2487 15.7376C67.4619 15.1334 68.5336 14.4486 69.4503 13.6765C70.3737 12.9111 71.1555 12.0786 71.7958 11.1856C72.4362 10.2927 72.9484 9.35942 73.3393 8.37248C73.7235 7.39225 73.9864 6.38516 74.1279 5.35793C73.2854 5.38479 72.4496 5.40493 71.6273 5.41164C70.7983 5.41836 69.976 5.42507 69.147 5.42507H67.0171V3.90101H73.1574C74.1212 3.90101 75.0918 3.88758 76.0758 3.86073C75.8804 6.68729 75.0985 9.21843 73.7168 11.4474C72.3418 13.6765 70.2524 15.5429 67.4552 17.0401L66.2555 15.7444L66.2487 15.7376ZM84.1572 11.105H80.9085V21.0752H79.1291V2.26953H80.9085V9.52056H84.1572V11.105Z" fill="#000003" stroke="#000003" stroke-width="0.5" stroke-miterlimit="10"/>
<path d="M84.3594 7.37845C84.3594 6.72049 84.4808 6.10281 84.7234 5.53213C84.966 4.96144 85.2963 4.47133 85.7277 4.04835C86.1523 3.63209 86.6646 3.29639 87.2442 3.06141C87.8306 2.81971 88.4574 2.69886 89.1382 2.69886C89.8189 2.69886 90.4458 2.81971 91.0322 3.06141C91.6186 3.30311 92.1308 3.63209 92.5622 4.04835C92.9935 4.46461 93.3305 4.96144 93.5732 5.53213C93.8158 6.10281 93.9372 6.71378 93.9372 7.37845C93.9372 8.04313 93.8158 8.67424 93.5732 9.24492C93.3305 9.8156 92.9935 10.3124 92.5622 10.7287C92.1308 11.145 91.6186 11.4739 91.0322 11.7089C90.4458 11.9439 89.8189 12.058 89.1382 12.058C88.4574 12.058 87.8306 11.9439 87.2442 11.7089C86.6578 11.4739 86.1523 11.1517 85.7277 10.7287C85.3031 10.3124 84.966 9.8156 84.7234 9.24492C84.4808 8.67424 84.3594 8.05656 84.3594 7.37845ZM86.0984 7.37845C86.0984 7.835 86.1725 8.24455 86.3276 8.62724C86.4758 9.00322 86.6915 9.3322 86.9611 9.61419C87.2307 9.89617 87.5475 10.1177 87.925 10.2722C88.2957 10.4333 88.7068 10.5071 89.1449 10.5071C89.583 10.5071 89.9942 10.4266 90.3784 10.2722C90.7558 10.1177 91.0793 9.89617 91.3489 9.61419C91.6186 9.3322 91.8275 9.00322 91.9825 8.62724C92.1308 8.25126 92.2117 7.835 92.2117 7.37845C92.2117 6.92191 92.1375 6.52579 91.9825 6.14309C91.8342 5.7604 91.6186 5.4247 91.3489 5.14272C91.0793 4.86074 90.7558 4.63918 90.3784 4.48476C90.0009 4.33034 89.5898 4.24977 89.1449 4.24977C88.7001 4.24977 88.2957 4.33034 87.925 4.48476C87.5543 4.64589 87.2307 4.86074 86.9611 5.14272C86.6915 5.4247 86.4826 5.7604 86.3276 6.14309C86.1793 6.52579 86.0984 6.94205 86.0984 7.37845ZM98.8372 20.7861H87.1768V13.9312H98.8372V20.7861ZM97.0578 15.4284H88.9562V19.2822H97.0578V15.4284ZM101.816 8.01627H98.8372V12.857H97.0578V2.24902H98.8372V6.43179H101.816V8.01627Z" fill="#000003" stroke="#000003" stroke-width="0.5" stroke-miterlimit="10"/>
<path d="M102.699 16.1338V3.90101H109.541V5.42507H104.519V14.6097H105.281C106.454 14.6097 107.519 14.5291 108.476 14.3747C109.433 14.2203 110.221 14.0726 110.841 13.9316V15.3952C110.511 15.4892 110.12 15.5832 109.662 15.6705C109.204 15.7578 108.725 15.8384 108.213 15.9055C107.701 15.9726 107.175 16.0263 106.629 16.0733C106.083 16.1136 105.557 16.1338 105.045 16.1338H102.686H102.699ZM112.088 2.47766H113.848V20.5985H112.088V10.5478H108.159V9.00359H112.088V2.47766ZM117.858 21.0752H116.078V2.26953H117.858V21.0752Z" fill="#000003" stroke="#000003" stroke-width="0.5" stroke-miterlimit="10"/>
<path d="M130.031 10.0644C130.031 11.1655 129.909 12.139 129.66 12.9849C129.41 13.8309 129.067 14.5359 128.635 15.0998C128.204 15.6638 127.685 16.0868 127.092 16.3755C126.499 16.6642 125.865 16.8052 125.184 16.8052C124.504 16.8052 123.877 16.6642 123.29 16.3755C122.704 16.0868 122.192 15.6571 121.747 15.0998C121.309 14.5359 120.958 13.8309 120.702 12.9849C120.446 12.139 120.318 11.1655 120.318 10.0644C120.318 8.9633 120.446 7.9965 120.702 7.15726C120.958 6.31802 121.309 5.61977 121.747 5.05581C122.192 4.49184 122.704 4.06886 123.29 3.78016C123.877 3.49146 124.51 3.34376 125.184 3.34376C125.858 3.34376 126.499 3.49146 127.092 3.78016C127.685 4.06886 128.197 4.49184 128.635 5.05581C129.073 5.61977 129.41 6.31802 129.66 7.15726C129.909 7.9965 130.031 8.9633 130.031 10.0644ZM128.211 10.0644C128.211 9.299 128.143 8.60075 128.002 7.96964C127.86 7.33854 127.665 6.80142 127.415 6.34488C127.159 5.89504 126.843 5.54592 126.465 5.29751C126.088 5.04909 125.656 4.92824 125.171 4.92824C124.686 4.92824 124.261 5.04909 123.877 5.29751C123.499 5.54592 123.183 5.89504 122.926 6.34488C122.67 6.79471 122.475 7.33854 122.34 7.96964C122.205 8.60075 122.131 9.299 122.131 10.0644C122.131 10.8298 122.199 11.528 122.34 12.1591C122.475 12.7902 122.677 13.3341 122.926 13.7839C123.183 14.2337 123.499 14.5896 123.877 14.8447C124.254 15.0998 124.686 15.2274 125.171 15.2274C125.656 15.2274 126.081 15.0998 126.465 14.8447C126.843 14.5896 127.159 14.2404 127.415 13.7839C127.672 13.3341 127.867 12.7902 128.002 12.1591C128.137 11.528 128.211 10.8298 128.211 10.0644ZM133.589 2.26953H135.369V21.0752H133.589V2.26953Z" fill="#000003" stroke="#000003" stroke-width="0.5" stroke-miterlimit="10"/>
<path d="M142.702 16.3553H138.523V3.79359H146.733V5.29751H140.303V9.27214H146.281V10.7761H140.303V14.8514H142.972C144.144 14.8514 145.277 14.7843 146.375 14.6567C147.467 14.5291 148.525 14.3479 149.55 14.1129V15.5765C148.532 15.8383 147.434 16.0331 146.261 16.1606C145.088 16.2882 143.902 16.3553 142.702 16.3553ZM148.081 10.3799V8.83574H151.41V2.26953H153.19V21.0752H151.41V10.3867H148.081V10.3799Z" fill="#000003" stroke="#000003" stroke-width="0.5" stroke-miterlimit="10"/>
<path d="M156.452 13.3743L155.131 12.2397C156.081 11.6623 156.856 11.0446 157.456 10.3732C158.056 9.70855 158.521 8.99687 158.851 8.24491C159.182 7.49295 159.391 6.67386 159.478 5.80105C159.566 4.92824 159.573 4.00172 159.492 3.00806H161.251C161.278 4.33742 161.19 5.53249 160.981 6.59329C161.392 7.64738 161.938 8.60075 162.612 9.4467C163.286 10.2927 164.122 11.0648 165.113 11.763L163.812 12.9178C163.111 12.421 162.464 11.8167 161.878 11.105C161.291 10.3934 160.786 9.59441 160.361 8.71489C159.99 9.62126 159.485 10.4538 158.851 11.2192C158.218 11.9846 157.416 12.6962 156.452 13.3743ZM171.792 20.7059H159.593V14.979H161.413V19.1617H171.792V20.7059ZM163.071 6.57986H166.05V2.47766H167.748V15.8451H166.05V8.03678H163.071V6.57315V6.57986ZM171.489 16.2613H169.77V2.26953H171.489V16.2546V16.2613Z" fill="#000003" stroke="#000003" stroke-width="0.5" stroke-miterlimit="10"/>
<path d="M178.351 16.3553H174.172V3.79359H182.381V5.29751H175.951V9.27214H181.923V10.7761H175.951V14.8514H178.62C179.793 14.8514 180.925 14.7843 182.024 14.6567C183.123 14.5291 184.181 14.3479 185.199 14.1129V15.5765C184.181 15.8383 183.082 16.0331 181.909 16.1606C180.737 16.2882 179.55 16.3553 178.357 16.3553H178.351ZM183.722 10.3799V8.83574H187.052V2.26953H188.831V21.0752H187.052V10.3867H183.722V10.3799Z" fill="#000003" stroke="#000003" stroke-width="0.5" stroke-miterlimit="10"/>
<path d="M53.2402 25.8828V31.5091H52.5797L49.1894 27.3129V31.5091H48.3806V25.8828H49.0412L52.4314 30.079V25.8828H53.2402Z" fill="#898989"/>
<path d="M59.1244 28.9373V31.5087H58.3897V30.9447C58.1336 31.3274 57.655 31.5557 56.9877 31.5557C56.0172 31.5557 55.4038 31.0387 55.4038 30.3002C55.4038 29.6154 55.8487 29.0514 57.1225 29.0514H58.3492V28.897C58.3492 28.2457 57.9718 27.8698 57.2034 27.8698C56.6979 27.8698 56.1789 28.0443 55.8487 28.3263L55.5251 27.7489C55.97 27.3931 56.6036 27.2051 57.291 27.2051C58.4638 27.2051 59.1244 27.769 59.1244 28.9306V28.9373ZM58.3492 30.2062V29.6087H57.1562C56.3879 29.6087 56.1722 29.9041 56.1722 30.2666C56.1722 30.6896 56.5294 30.9582 57.1158 30.9582C57.7022 30.9582 58.1538 30.6896 58.3492 30.1995V30.2062Z" fill="#898989"/>
<path d="M63.8761 31.2605C63.6402 31.4619 63.2898 31.5559 62.9393 31.5559C62.0765 31.5559 61.5845 31.0793 61.5845 30.2199V27.8767H60.8566V27.2389H61.5845V26.3057H62.3596V27.2389H63.5863V27.8767H62.3596V30.1863C62.3596 30.6429 62.6023 30.9047 63.0269 30.9047C63.2561 30.9047 63.4717 30.8308 63.6335 30.7033L63.8761 31.2605Z" fill="#898989"/>
<path d="M65.5882 25.9293C65.5882 25.6473 65.8174 25.4258 66.1139 25.4258C66.4105 25.4258 66.6397 25.6406 66.6397 25.9159C66.6397 26.2046 66.424 26.4329 66.1139 26.4329C65.8039 26.4329 65.5882 26.218 65.5882 25.936V25.9293ZM65.723 27.2453H66.4981V31.5086H65.723V27.2453Z" fill="#898989"/>
<path d="M68.4932 29.3805C68.4932 28.1116 69.4368 27.2119 70.7174 27.2119C71.998 27.2119 72.9349 28.1116 72.9349 29.3805C72.9349 30.6494 71.998 31.5558 70.7174 31.5558C69.4368 31.5558 68.4932 30.6494 68.4932 29.3805ZM72.1598 29.3805C72.1598 28.4741 71.5464 27.8833 70.7241 27.8833C69.9018 27.8833 69.2818 28.4674 69.2818 29.3805C69.2818 30.2936 69.9018 30.8844 70.7241 30.8844C71.5464 30.8844 72.1598 30.2869 72.1598 29.3805Z" fill="#898989"/>
<path d="M78.9876 29.0581V31.5087H78.2124V29.1454C78.2124 28.3062 77.7946 27.8966 77.0599 27.8966C76.2376 27.8966 75.7051 28.3867 75.7051 29.3132V31.5087H74.93V27.2454H75.6714V27.8899C75.9882 27.4535 76.5341 27.2051 77.2149 27.2051C78.2596 27.2051 78.9876 27.8026 78.9876 29.0514V29.0581Z" fill="#898989"/>
<path d="M84.7234 28.9373V31.5087H83.9887V30.9447C83.7326 31.3274 83.2541 31.5557 82.5868 31.5557C81.6162 31.5557 81.0029 31.0387 81.0029 30.3002C81.0029 29.6154 81.4477 29.0514 82.7216 29.0514H83.9483V28.897C83.9483 28.2457 83.5709 27.8698 82.8025 27.8698C82.297 27.8698 81.778 28.0443 81.4477 28.3263L81.1242 27.7489C81.569 27.3931 82.2026 27.2051 82.8901 27.2051C84.0629 27.2051 84.7234 27.769 84.7234 28.9306V28.9373ZM83.9483 30.2062V29.6087H82.7553C81.9869 29.6087 81.7712 29.9041 81.7712 30.2666C81.7712 30.6896 82.1285 30.9582 82.7149 30.9582C83.3013 30.9582 83.7528 30.6896 83.9483 30.1995V30.2062Z" fill="#898989"/>
<path d="M87.069 25.5469H87.8441V31.5155H87.069V25.5469Z" fill="#898989"/>
<path d="M92.9733 28.6957C92.9733 27.0306 94.2472 25.8154 95.9659 25.8154C96.8354 25.8154 97.5971 26.1108 98.1161 26.695L97.5903 27.1985C97.1522 26.7419 96.6197 26.5338 95.9996 26.5338C94.7258 26.5338 93.7821 27.4536 93.7821 28.6957C93.7821 29.9378 94.7258 30.8576 95.9996 30.8576C96.6197 30.8576 97.1522 30.6427 97.5903 30.1795L98.1161 30.683C97.5971 31.2604 96.8422 31.5693 95.9592 31.5693C94.2472 31.5693 92.9733 30.354 92.9733 28.689V28.6957Z" fill="#898989"/>
<path d="M103.4 28.9373V31.5087H102.666V30.9447C102.41 31.3274 101.931 31.5557 101.264 31.5557C100.293 31.5557 99.6797 31.0387 99.6797 30.3002C99.6797 29.6154 100.125 29.0514 101.398 29.0514H102.625V28.897C102.625 28.2457 102.248 27.8698 101.479 27.8698C100.974 27.8698 100.455 28.0443 100.125 28.3263L99.8011 27.7489C100.246 27.3931 100.879 27.2051 101.567 27.2051C102.74 27.2051 103.4 27.769 103.4 28.9306V28.9373ZM102.625 30.2062V29.6087H101.432C100.664 29.6087 100.448 29.9041 100.448 30.2666C100.448 30.6896 100.805 30.9582 101.392 30.9582C101.978 30.9582 102.43 30.6896 102.625 30.1995V30.2062Z" fill="#898989"/>
<path d="M109.81 29.0581V31.5087H109.035V29.1454C109.035 28.3062 108.617 27.8966 107.883 27.8966C107.06 27.8966 106.528 28.3867 106.528 29.3132V31.5087H105.753V27.2454H106.494V27.8899C106.811 27.4535 107.357 27.2051 108.038 27.2051C109.082 27.2051 109.81 27.8026 109.81 29.0514V29.0581Z" fill="#898989"/>
<path d="M111.785 29.3805C111.785 28.1116 112.729 27.2119 114.043 27.2119C114.811 27.2119 115.445 27.5275 115.789 28.1183L115.202 28.4943C114.926 28.078 114.508 27.8833 114.043 27.8833C113.2 27.8833 112.574 28.4674 112.574 29.3805C112.574 30.2936 113.2 30.8844 114.043 30.8844C114.508 30.8844 114.933 30.6897 115.202 30.2735L115.789 30.6427C115.452 31.2403 114.811 31.5558 114.043 31.5558C112.729 31.5558 111.785 30.6494 111.785 29.3805Z" fill="#898989"/>
<path d="M121.484 29.6356H118.013C118.107 30.3809 118.714 30.8844 119.563 30.8844C120.062 30.8844 120.48 30.7166 120.797 30.3675L121.221 30.8643C120.837 31.3141 120.244 31.5558 119.536 31.5558C118.154 31.5558 117.238 30.6494 117.238 29.3805C117.238 28.1116 118.148 27.2119 119.388 27.2119C120.628 27.2119 121.504 28.0982 121.504 29.4074C121.504 29.4745 121.498 29.5685 121.491 29.6424L121.484 29.6356ZM118.013 29.0784H120.756C120.675 28.36 120.136 27.8565 119.381 27.8565C118.626 27.8565 118.087 28.3533 118.006 29.0784H118.013Z" fill="#898989"/>
<path d="M125.784 27.205V27.9502C125.717 27.9435 125.663 27.9435 125.609 27.9435C124.78 27.9435 124.261 28.447 124.261 29.3803V31.5019H123.486V27.2385H124.227V27.9569C124.504 27.4601 125.036 27.1982 125.784 27.1982V27.205Z" fill="#898989"/>
<path d="M130.907 25.8828H133.286C135.099 25.8828 136.339 27.0242 136.339 28.6959C136.339 30.3677 135.106 31.5091 133.286 31.5091H130.907V25.8828ZM133.239 30.8108C134.634 30.8108 135.531 29.9582 135.531 28.6959C135.531 27.4337 134.634 26.5811 133.239 26.5811H131.716V30.8108H133.239Z" fill="#898989"/>
<path d="M141.758 28.9373V31.5087H141.024V30.9447C140.768 31.3274 140.289 31.5557 139.622 31.5557C138.651 31.5557 138.038 31.0387 138.038 30.3002C138.038 29.6154 138.483 29.0514 139.757 29.0514H140.983V28.897C140.983 28.2457 140.606 27.8698 139.837 27.8698C139.332 27.8698 138.813 28.0443 138.483 28.3263L138.159 27.7489C138.604 27.3931 139.238 27.2051 139.925 27.2051C141.098 27.2051 141.758 27.769 141.758 28.9306V28.9373ZM140.983 30.2062V29.6087H139.79C139.022 29.6087 138.806 29.9041 138.806 30.2666C138.806 30.6896 139.163 30.9582 139.75 30.9582C140.336 30.9582 140.788 30.6896 140.983 30.1995V30.2062Z" fill="#898989"/>
<path d="M146.51 31.2605C146.274 31.4619 145.924 31.5559 145.573 31.5559C144.711 31.5559 144.219 31.0793 144.219 30.2199V27.8767H143.491V27.2389H144.219V26.3057H144.994V27.2389H146.22V27.8767H144.994V30.1863C144.994 30.6429 145.236 30.9047 145.661 30.9047C145.89 30.9047 146.106 30.8308 146.268 30.7033L146.51 31.2605Z" fill="#898989"/>
<path d="M151.754 28.9373V31.5087H151.019V30.9447C150.763 31.3274 150.285 31.5557 149.617 31.5557C148.647 31.5557 148.033 31.0387 148.033 30.3002C148.033 29.6154 148.478 29.0514 149.752 29.0514H150.979V28.897C150.979 28.2457 150.601 27.8698 149.833 27.8698C149.328 27.8698 148.809 28.0443 148.478 28.3263L148.155 27.7489C148.6 27.3931 149.233 27.2051 149.921 27.2051C151.093 27.2051 151.754 27.769 151.754 28.9306V28.9373ZM150.979 30.2062V29.6087H149.786C149.018 29.6087 148.802 29.9041 148.802 30.2666C148.802 30.6896 149.159 30.9582 149.745 30.9582C150.332 30.9582 150.783 30.6896 150.979 30.1995V30.2062Z" fill="#898989"/>
<path d="M156.836 28.6957C156.836 27.0306 158.11 25.8154 159.829 25.8154C160.698 25.8154 161.46 26.1108 161.979 26.695L161.453 27.1985C161.015 26.7419 160.482 26.5338 159.862 26.5338C158.588 26.5338 157.645 27.4536 157.645 28.6957C157.645 29.9378 158.588 30.8576 159.862 30.8576C160.482 30.8576 161.015 30.6427 161.453 30.1795L161.979 30.683C161.46 31.2604 160.705 31.5693 159.822 31.5693C158.11 31.5693 156.836 30.354 156.836 28.689V28.6957Z" fill="#898989"/>
<path d="M167.6 29.6356H164.129C164.223 30.3809 164.83 30.8844 165.679 30.8844C166.178 30.8844 166.596 30.7166 166.913 30.3675L167.337 30.8643C166.953 31.3141 166.36 31.5558 165.652 31.5558C164.27 31.5558 163.354 30.6494 163.354 29.3805C163.354 28.1116 164.264 27.2119 165.497 27.2119C166.731 27.2119 167.614 28.0982 167.614 29.4074C167.614 29.4745 167.607 29.5685 167.6 29.6424V29.6356ZM164.129 29.0784H166.872C166.791 28.36 166.252 27.8565 165.497 27.8565C164.742 27.8565 164.203 28.3533 164.122 29.0784H164.129Z" fill="#898989"/>
<path d="M173.666 29.0581V31.5087H172.891V29.1454C172.891 28.3062 172.473 27.8966 171.738 27.8966C170.916 27.8966 170.384 28.3867 170.384 29.3132V31.5087H169.609V27.2454H170.35V27.8899C170.667 27.4535 171.213 27.2051 171.893 27.2051C172.938 27.2051 173.666 27.8026 173.666 29.0514V29.0581Z" fill="#898989"/>
<path d="M178.418 31.2605C178.182 31.4619 177.832 31.5559 177.481 31.5559C176.618 31.5559 176.126 31.0793 176.126 30.2199V27.8767H175.398V27.2389H176.126V26.3057H176.901V27.2389H178.128V27.8767H176.901V30.1863C176.901 30.6429 177.144 30.9047 177.569 30.9047C177.798 30.9047 178.014 30.8308 178.175 30.7033L178.418 31.2605Z" fill="#898989"/>
<path d="M183.972 29.6356H180.501C180.595 30.3809 181.202 30.8844 182.051 30.8844C182.55 30.8844 182.968 30.7166 183.284 30.3675L183.709 30.8643C183.325 31.3141 182.732 31.5558 182.024 31.5558C180.642 31.5558 179.726 30.6494 179.726 29.3805C179.726 28.1116 180.635 27.2119 181.876 27.2119C183.116 27.2119 183.992 28.0982 183.992 29.4074C183.992 29.4745 183.985 29.5685 183.979 29.6424L183.972 29.6356ZM180.501 29.0784H183.244C183.163 28.36 182.624 27.8565 181.869 27.8565C181.114 27.8565 180.575 28.3533 180.494 29.0784H180.501Z" fill="#898989"/>
<path d="M188.272 27.205V27.9502C188.205 27.9435 188.151 27.9435 188.097 27.9435C187.268 27.9435 186.749 28.447 186.749 29.3803V31.5019H185.974V27.2385H186.715V27.9569C186.991 27.4601 187.524 27.1982 188.272 27.1982V27.205Z" fill="#898989"/>
</g>
<rect x="197" width="94" height="24" rx="12" fill="#009FE2"/>
<path d="M211.841 8.32H214.571V9.426H211.715V10.812H214.571V11.778H216.419V5.31H214.571V6.934H212.205C212.261 6.57 212.289 6.192 212.289 5.8H206.535V7.27H210.259C210.035 8.768 208.719 10.028 205.793 10.588L206.409 12.072C209.335 11.456 211.057 10.238 211.841 8.32ZM216.685 18.078V16.622H209.783V15.81H216.419V12.254H207.921V13.71H214.571V14.438H207.935V18.078H216.685ZM218.084 7.886H225.686L225.7 6.444H222.816V5.212H220.954V6.444H218.084V7.886ZM228.248 9.916H229.956V8.404H228.248V5.31H226.4V12.856H228.248V9.916ZM225.056 10.518C225.056 9.132 223.754 8.236 221.892 8.236C220.03 8.236 218.728 9.132 218.728 10.518C218.728 11.862 220.03 12.8 221.892 12.8C223.754 12.8 225.056 11.862 225.056 10.518ZM220.492 10.518C220.492 9.902 221.052 9.58 221.892 9.58C222.732 9.58 223.292 9.902 223.292 10.518C223.292 11.134 222.732 11.456 221.892 11.456C221.052 11.456 220.492 11.134 220.492 10.518ZM228.248 13.346H226.414V14.326H221.696V13.346H219.862V18.064H228.248V13.346ZM221.696 15.726H226.414V16.622H221.696V15.726ZM239.489 5.31V8.642H237.473V10.14H239.489V14.718H241.337V5.31H239.489ZM237.431 13.052L238.327 11.61C236.297 10.938 235.415 9.342 235.415 7.816V7.648H237.921V6.178H230.991V7.648H233.525V7.83C233.525 9.44 232.615 11.162 230.487 11.834L231.411 13.304C232.923 12.8 233.931 11.792 234.505 10.504C235.051 11.68 236.017 12.59 237.431 13.052ZM241.631 17.98V16.51H234.687V13.934H232.839V17.98H241.631ZM244.444 10.658H253.194V5.856H244.444V10.658ZM246.264 7.298H251.374V9.202H246.264V7.298ZM254.678 13.136V11.68H243.002V13.136H248.084V15.334H249.932V13.136H254.678ZM253.39 16.51H246.208V14.242H244.36V17.98H253.39V16.51ZM268.965 18.19V5.296H267.103V18.19H268.965ZM265.129 6.64H258.941V8.11H263.239C262.973 10.966 261.545 12.996 258.255 14.564L259.221 16.02C263.799 13.822 265.129 10.574 265.129 6.64ZM282.516 10.756V9.23H280.976V5.296H279.128V14.956H280.976V10.756H282.516ZM275.768 10.63L277.574 10.84C277.868 9.202 277.868 7.942 277.868 7.046V6.248H271.246V7.718H276.048C276.034 8.502 275.978 9.398 275.768 10.63ZM278.54 12.674L278.428 11.358C277.196 11.526 275.95 11.624 274.662 11.68V9.244H272.856V11.75C272.016 11.764 271.218 11.764 270.504 11.764L270.672 13.234C272.87 13.234 275.894 13.164 278.54 12.674ZM281.382 16.51H274.228V14.102H272.38V17.98H281.382V16.51Z" fill="white"/>
<defs>
<linearGradient id="paint0_linear_580_23580" x1="2.89174" y1="8.73474" x2="22.5999" y2="8.73474" gradientUnits="userSpaceOnUse">
<stop stop-color="#002F7B"/>
<stop offset="0.53" stop-color="#005BAC"/>
<stop offset="1" stop-color="#00A0E9"/>
</linearGradient>
<linearGradient id="paint1_linear_580_23580" x1="28.012" y1="22.2025" x2="39.3778" y2="13.7005" gradientUnits="userSpaceOnUse">
<stop stop-color="#14126F"/>
<stop offset="0.48" stop-color="#0253A5"/>
<stop offset="0.53" stop-color="#005BAC"/>
<stop offset="1" stop-color="#008CD6"/>
</linearGradient>
<linearGradient id="paint2_linear_580_23580" x1="31.6248" y1="27.9433" x2="3.77446" y2="14.6259" gradientUnits="userSpaceOnUse">
<stop stop-color="#005BAC"/>
<stop offset="0.52" stop-color="#008CD6"/>
<stop offset="1" stop-color="#7ECEF4"/>
</linearGradient>
<linearGradient id="paint3_linear_580_23580" x1="12.8871" y1="9.24485" x2="25.1897" y2="16.585" gradientUnits="userSpaceOnUse">
<stop stop-color="#14126F"/>
<stop offset="1" stop-color="#005BAC"/>
</linearGradient>
<clipPath id="clip0_580_23580">
<rect width="189" height="36" fill="white"/>
</clipPath>
</defs>
</svg>