<svg width="48" height="48" viewBox="0 0 48 48" fill="none" xmlns="http://www.w3.org/2000/svg">
<path d="M39 27H9C8.17157 27 7.5 27.6716 7.5 28.5V37.5C7.5 38.3284 8.17157 39 9 39H39C39.8284 39 40.5 38.3284 40.5 37.5V28.5C40.5 27.6716 39.8284 27 39 27Z" stroke="white" stroke-width="2" stroke-linecap="round" stroke-linejoin="round"/>
<path d="M39 9H9C8.17157 9 7.5 9.67157 7.5 10.5V19.5C7.5 20.3284 8.17157 21 9 21H39C39.8284 21 40.5 20.3284 40.5 19.5V10.5C40.5 9.67157 39.8284 9 39 9Z" stroke="white" stroke-width="2" stroke-linecap="round" stroke-linejoin="round"/>
<path d="M33.75 17.25C34.9926 17.25 36 16.2426 36 15C36 13.7574 34.9926 12.75 33.75 12.75C32.5074 12.75 31.5 13.7574 31.5 15C31.5 16.2426 32.5074 17.25 33.75 17.25Z" fill="white"/>
<path d="M33.75 35.25C34.9926 35.25 36 34.2426 36 33C36 31.7574 34.9926 30.75 33.75 30.75C32.5074 30.75 31.5 31.7574 31.5 33C31.5 34.2426 32.5074 35.25 33.75 35.25Z" fill="white"/>
</svg>