<svg width="140" height="140" viewBox="0 0 140 140" fill="none" xmlns="http://www.w3.org/2000/svg">
<path fill-rule="evenodd" clip-rule="evenodd" d="M70.5 107C90.1061 107 106 91.1061 106 71.5C106 51.8939 90.1061 36 70.5 36C50.8939 36 35 51.8939 35 71.5C35 91.1061 50.8939 107 70.5 107ZM70 95C83.2548 95 94 84.2548 94 71C94 57.7452 83.2548 47 70 47C56.7452 47 46 57.7452 46 71C46 84.2548 56.7452 95 70 95Z" fill="url(#paint0_linear_583_24561)"/>
<path fill-rule="evenodd" clip-rule="evenodd" d="M70.5 26C45.371 26 25 46.371 25 71.5C25 96.629 45.371 117 70.5 117C95.629 117 116 96.629 116 71.5C116 46.371 95.629 26 70.5 26ZM21 71.5C21 44.1619 43.1619 22 70.5 22C97.8381 22 120 44.1619 120 71.5C120 98.8381 97.8381 121 70.5 121C43.1619 121 21 98.8381 21 71.5Z" fill="#009FE2"/>
<path d="M86 71C86 79.8366 78.8366 87 70 87C61.1634 87 54 79.8366 54 71C54 62.1634 61.1634 55 70 55C78.8366 55 86 62.1634 86 71Z" fill="url(#paint1_linear_583_24561)"/>
<path fill-rule="evenodd" clip-rule="evenodd" d="M110.23 31.2892C110.816 31.875 110.816 32.8247 110.23 33.4105L75.0607 68.5803C74.4749 69.1661 73.5251 69.1661 72.9393 68.5803C72.3536 67.9945 72.3536 67.0447 72.9393 66.4589L108.109 31.2892C108.695 30.7034 109.645 30.7034 110.23 31.2892Z" fill="#B8B8B8"/>
<path fill-rule="evenodd" clip-rule="evenodd" d="M76.5 70.8499C76.5 67.26 73.5899 64.3499 70 64.3499C66.4101 64.3499 63.5 67.26 63.5 70.8499C63.5 74.4397 66.4101 77.3499 70 77.3499C73.5899 77.3499 76.5 74.4397 76.5 70.8499ZM70 67.3499C71.933 67.3499 73.5 68.9169 73.5 70.8499C73.5 72.7829 71.933 74.3499 70 74.3499C68.067 74.3499 66.5 72.7829 66.5 70.8499C66.5 68.9169 68.067 67.3499 70 67.3499Z" fill="#B8B8B8"/>
<path fill-rule="evenodd" clip-rule="evenodd" d="M117.074 13.6142C117.634 13.8464 118 14.3934 118 15V23.7017H126.706C127.313 23.7017 127.86 24.0672 128.092 24.6278C128.324 25.1884 128.195 25.8337 127.766 26.2626L120.112 33.9127C119.831 34.1938 119.449 34.3518 119.051 34.3518H108.85C108.021 34.3518 107.35 33.6802 107.35 32.8518V22.6501C107.35 22.2523 107.508 21.8708 107.789 21.5895L115.439 13.9394C115.868 13.5104 116.513 13.3821 117.074 13.6142ZM110.35 23.2715V31.3518H118.43L123.083 26.7017H116.5C115.672 26.7017 115 26.0301 115 25.2017V18.6214L110.35 23.2715Z" fill="#B8B8B8"/>
<path opacity="0.1" d="M15 110.876V100.495H25.381V110.876H15Z" fill="#003177"/>
<path opacity="0.1" d="M9 95.3809V84.9999H19.381V95.3809H9Z" fill="#003177"/>
<path opacity="0.4" d="M28.4952 110.876V100.495H38.8762V110.876H28.4952Z" fill="#003177"/>
<path opacity="0.4" d="M22.4952 95.3809V84.9999H32.8762V95.3809H22.4952Z" fill="#003177"/>
<path opacity="0.7" d="M41.9905 110.876V100.495H52.3714V110.876H41.9905Z" fill="#003177"/>
<path opacity="0.7" d="M35.9905 95.3809V84.9999H46.3714V95.3809H35.9905Z" fill="#003177"/>
<path d="M55.4857 110.876V100.495H65.8667V110.876H55.4857Z" fill="#003177"/>
<path d="M49.4857 95.3809V84.9999H59.8667V95.3809H49.4857Z" fill="#003177"/>
<defs>
<linearGradient id="paint0_linear_583_24561" x1="70.5" y1="36" x2="70.5" y2="107" gradientUnits="userSpaceOnUse">
<stop stop-color="#009FE2"/>
<stop offset="1" stop-color="#009FE2" stop-opacity="0"/>
</linearGradient>
<linearGradient id="paint1_linear_583_24561" x1="70" y1="55" x2="70" y2="87" gradientUnits="userSpaceOnUse">
<stop stop-color="#009FE2"/>
<stop offset="1" stop-color="#009FE2" stop-opacity="0"/>
</linearGradient>
</defs>
</svg>