<svg width="140" height="140" viewBox="0 0 140 140" fill="none" xmlns="http://www.w3.org/2000/svg">
<path fill-rule="evenodd" clip-rule="evenodd" d="M114 28.5C114.828 28.5 115.5 29.1716 115.5 30V124C115.5 124.828 114.828 125.5 114 125.5H26C25.1716 125.5 24.5 124.828 24.5 124V87.2945C24.5 86.4661 25.1716 85.7945 26 85.7945C26.8284 85.7945 27.5 86.4661 27.5 87.2945V122.5H112.5V30C112.5 29.1716 113.172 28.5 114 28.5Z" fill="#B8B8B8"/>
<path fill-rule="evenodd" clip-rule="evenodd" d="M19.5 82C19.5 78.4101 22.4101 75.5 26 75.5C29.5899 75.5 32.5 78.4101 32.5 82C32.5 85.5899 29.5899 88.5 26 88.5C22.4101 88.5 19.5 85.5899 19.5 82ZM26 78.5C24.067 78.5 22.5 80.067 22.5 82C22.5 83.933 24.067 85.5 26 85.5C27.933 85.5 29.5 83.933 29.5 82C29.5 80.067 27.933 78.5 26 78.5Z" fill="#B8B8B8"/>
<path fill-rule="evenodd" clip-rule="evenodd" d="M107.5 25C107.5 21.4101 110.41 18.5 114 18.5C117.59 18.5 120.5 21.4101 120.5 25C120.5 28.5899 117.59 31.5 114 31.5C110.41 31.5 107.5 28.5899 107.5 25ZM114 21.5C112.067 21.5 110.5 23.067 110.5 25C110.5 26.933 112.067 28.5 114 28.5C115.933 28.5 117.5 26.933 117.5 25C117.5 23.067 115.933 21.5 114 21.5Z" fill="#B8B8B8"/>
<path d="M47.0997 59.7002H92.8997V101.5H47.0997V59.7002Z" fill="url(#paint0_linear_583_24587)"/>
<path fill-rule="evenodd" clip-rule="evenodd" d="M75.4997 39.9H77.7H79.8997H100.6V110.3H39.4V39.9H60.0997H62.3H64.4997C64.4997 36.8624 66.9622 34.4 69.9997 34.4C73.0373 34.4 75.4997 36.8624 75.4997 39.9ZM61.1288 35.5C62.7488 32.2402 66.1126 30 69.9997 30C73.8868 30 77.2507 32.2402 78.8707 35.5H105V114.7H35V35.5H61.1288ZM51.5 39.9003H55.9V47.6003H84.1V39.9003H88.5V52.0003H51.5V39.9003Z" fill="#009FE2"/>
<path fill-rule="evenodd" clip-rule="evenodd" d="M78.3077 68.6001L82 72.2924L67.2309 87.0614L67.2307 87.0612L67.2307 87.0613L58 77.8306L61.6923 74.1383L67.2309 79.6769L78.3077 68.6001Z" fill="#003177"/>
<path opacity="0.1" d="M17 56H27V66H17V56Z" fill="#003177"/>
<path opacity="0.1" d="M59 14H69V24H59V14Z" fill="#003177"/>
<path opacity="0.4" d="M17 42H27V52H17V42Z" fill="#003177"/>
<path opacity="0.4" d="M45 14H55V24H45V14Z" fill="#003177"/>
<path opacity="0.7" d="M17 28H27V38H17V28Z" fill="#003177"/>
<path opacity="0.7" d="M31 14H41V24H31V14Z" fill="#003177"/>
<path d="M17 14H27V24H17V14Z" fill="#003177"/>
<defs>
<linearGradient id="paint0_linear_583_24587" x1="69.9997" y1="59.7002" x2="69.9997" y2="101.5" gradientUnits="userSpaceOnUse">
<stop stop-color="#009FE2"/>
<stop offset="1" stop-color="#009FE2" stop-opacity="0"/>
</linearGradient>
</defs>
</svg>