<svg width="140" height="140" viewBox="0 0 140 140" fill="none" xmlns="http://www.w3.org/2000/svg">
<path fill-rule="evenodd" clip-rule="evenodd" d="M27.5 34.5H99.5V80H94.5V39.5H32.5V80H27.5V34.5Z" fill="url(#paint0_linear_583_24409)"/>
<path fill-rule="evenodd" clip-rule="evenodd" d="M84 80H28V91H84V80ZM67 86C67 87.6569 65.6569 89 64 89C62.3431 89 61 87.6569 61 86C61 84.3431 62.3431 83 64 83C65.6569 83 67 84.3431 67 86Z" fill="#009FE2"/>
<path d="M56 90H72C72 92.9385 73.9999 95.5 76.8507 96.2127L82 97.5V100H46V97.5L51.1493 96.2127C54.0001 95.5 56 92.9385 56 90Z" fill="#009FE2"/>
<path fill-rule="evenodd" clip-rule="evenodd" d="M88 69H112V105H88V69ZM91 72H109V97.5H91V72ZM102.182 101.182C102.182 102.387 101.205 103.364 99.9999 103.364C98.7949 103.364 97.8181 102.387 97.8181 101.182C97.8181 99.9768 98.7949 99 99.9999 99C101.205 99 102.182 99.9768 102.182 101.182Z" fill="#003177"/>
<path fill-rule="evenodd" clip-rule="evenodd" d="M123.5 115C123.5 115.828 122.828 116.5 122 116.5H88C87.1716 116.5 86.5 115.828 86.5 115C86.5 114.172 87.1716 113.5 88 113.5H120.5V56.5C120.5 55.6716 121.172 55 122 55C122.828 55 123.5 55.6716 123.5 56.5V115Z" fill="#B8B8B8"/>
<path fill-rule="evenodd" clip-rule="evenodd" d="M76.5 115C76.5 111.41 79.4101 108.5 83 108.5C86.5899 108.5 89.5 111.41 89.5 115C89.5 118.59 86.5899 121.5 83 121.5C79.4101 121.5 76.5 118.59 76.5 115ZM83 111.5C81.067 111.5 79.5 113.067 79.5 115C79.5 116.933 81.067 118.5 83 118.5C84.933 118.5 86.5 116.933 86.5 115C86.5 113.067 84.933 111.5 83 111.5Z" fill="#B8B8B8"/>
<path fill-rule="evenodd" clip-rule="evenodd" d="M115.5 51C115.5 47.4101 118.41 44.5 122 44.5C125.59 44.5 128.5 47.4101 128.5 51C128.5 54.5899 125.59 57.5 122 57.5C118.41 57.5 115.5 54.5899 115.5 51ZM122 47.5C120.067 47.5 118.5 49.067 118.5 51C118.5 52.933 120.067 54.5 122 54.5C123.933 54.5 125.5 52.933 125.5 51C125.5 49.067 123.933 47.5 122 47.5Z" fill="#B8B8B8"/>
<path fill-rule="evenodd" clip-rule="evenodd" d="M16.5 24C16.5 23.1716 17.1716 22.5 18 22.5H52C52.8284 22.5 53.5 23.1716 53.5 24C53.5 24.8284 52.8284 25.5 52 25.5H19.5V82.5C19.5 83.3284 18.8284 84 18 84C17.1716 84 16.5 83.3284 16.5 82.5V24Z" fill="#B8B8B8"/>
<path fill-rule="evenodd" clip-rule="evenodd" d="M63.5 24C63.5 27.5899 60.5899 30.5 57 30.5C53.4101 30.5 50.5 27.5899 50.5 24C50.5 20.4101 53.4101 17.5 57 17.5C60.5899 17.5 63.5 20.4101 63.5 24ZM57 27.5C58.933 27.5 60.5 25.933 60.5 24C60.5 22.067 58.933 20.5 57 20.5C55.067 20.5 53.5 22.067 53.5 24C53.5 25.933 55.067 27.5 57 27.5Z" fill="#B8B8B8"/>
<path fill-rule="evenodd" clip-rule="evenodd" d="M24.5 88C24.5 91.5899 21.5899 94.5 18 94.5C14.4101 94.5 11.5 91.5899 11.5 88C11.5 84.4101 14.4101 81.5 18 81.5C21.5899 81.5 24.5 84.4101 24.5 88ZM18 91.5C19.933 91.5 21.5 89.933 21.5 88C21.5 86.067 19.933 84.5 18 84.5C16.067 84.5 14.5 86.067 14.5 88C14.5 89.933 16.067 91.5 18 91.5Z" fill="#B8B8B8"/>
<path opacity="0.1" d="M19 71.8762V61.4953H29.381V71.8762H19Z" fill="#003177"/>
<path opacity="0.1" d="M13 56.3809V45.9999H23.381V56.3809H13Z" fill="#003177"/>
<path opacity="0.4" d="M32.4952 71.8762V61.4953H42.8762V71.8762H32.4952Z" fill="#003177"/>
<path opacity="0.4" d="M26.4952 56.3809V45.9999H36.8762V56.3809H26.4952Z" fill="#003177"/>
<path opacity="0.7" d="M45.9905 71.8762V61.4953H56.3714V71.8762H45.9905Z" fill="#003177"/>
<path opacity="0.7" d="M39.9905 56.3809V45.9999H50.3714V56.3809H39.9905Z" fill="#003177"/>
<path d="M59.4857 71.8762V61.4953H69.8667V71.8762H59.4857Z" fill="#003177"/>
<path d="M53.4857 56.3809V45.9999H63.8667V56.3809H53.4857Z" fill="#003177"/>
<defs>
<linearGradient id="paint0_linear_583_24409" x1="63.5" y1="34.5" x2="63.5" y2="80" gradientUnits="userSpaceOnUse">
<stop stop-color="#009FE2"/>
<stop offset="1" stop-color="#009FE2" stop-opacity="0"/>
</linearGradient>
</defs>
</svg>