<svg width="134" height="36" viewBox="0 0 134 36" fill="none" xmlns="http://www.w3.org/2000/svg">
<g clip-path="url(#clip0_484_7265)">
<path d="M7.61069 13.2175H0V11.1986H12.9561C13.2112 10.7644 13.3825 10.2807 13.4548 9.74737C13.531 9.21791 13.5652 8.50941 13.5652 7.6295V6.4601C13.5652 6.2925 13.5386 6.18204 13.4853 6.1249C13.432 6.06776 13.3216 6.03348 13.1579 6.03348H1.90363V4.01465H15.8839C15.941 4.01465 15.9943 4.03369 16.0285 4.07179C16.0666 4.10988 16.0856 4.17082 16.0856 4.26605V7.88091C16.0856 8.8408 16.0285 9.54168 15.9181 9.99116C15.8039 10.4406 15.6288 10.8444 15.3889 11.2063H17.9474V13.2251H10.3557V16.5924H15.7049C15.7811 16.5924 15.8344 16.6114 15.861 16.6495C15.8915 16.6876 15.9067 16.7409 15.9067 16.8133V24.0011H13.3673V18.8359C13.3673 18.7636 13.3482 18.7064 13.3102 18.6683C13.2759 18.6302 13.2264 18.615 13.1655 18.615H2.24247V16.5924H7.61069V13.2251V13.2175Z" fill="white"/>
<path d="M34.3376 21.6775C34.3376 21.8109 34.3109 21.9023 34.2691 21.9556C34.2234 22.0089 34.1396 22.0356 34.0216 22.0356H27.3132C27.1914 22.0356 27.1076 22.0204 27.0505 21.9899C26.9972 21.9594 26.9706 21.8604 26.9706 21.6966V20.1006H34.3338V21.6737L34.3376 21.6775ZM33.3439 11.9414C32.9327 12.0252 32.4302 12.0671 31.8248 12.0671H24.1456V10.2692H30.6255C30.774 10.2692 30.8806 10.2273 30.9415 10.1473C31.0024 10.0635 31.0329 9.96068 31.0329 9.84641V4.58601C31.0329 4.50983 31.0177 4.4527 30.9872 4.40699C30.9567 4.36128 30.9035 4.33842 30.8311 4.33842H20.9285V6.3344H28.562V8.29229H20.6086V9.46169H20.8066C21.0807 9.46169 21.2863 9.5493 21.4234 9.72833C21.5566 9.90736 21.6252 10.1245 21.6252 10.3835V12.2462C21.6252 12.9318 21.7508 13.4194 22.0021 13.6936C22.2496 13.9717 22.6684 14.1088 23.2585 14.1088H31.0101C31.8362 14.1088 32.5139 14.0783 33.0355 14.0212C33.5571 13.9603 34.0064 13.8307 34.3833 13.6365V14.8249H36.8351V3.3252H33.165V4.4527H33.5685C33.8388 4.4527 34.0482 4.55554 34.1853 4.76504C34.3186 4.97454 34.3871 5.19166 34.3871 5.4164V11.6177C34.0977 11.751 33.7513 11.8614 33.3477 11.9414H33.3439ZM26.9744 15.9753H23.5783V17.2094H23.8067C24.0009 17.2094 24.1646 17.2742 24.2903 17.4037C24.4197 17.5294 24.4844 17.7122 24.4844 17.9522V22.1689C24.4844 22.7708 24.6253 23.224 24.9184 23.5288C25.204 23.8373 25.6038 23.9897 26.1177 23.9897H35.2285C35.7272 23.9897 36.1156 23.8373 36.4049 23.5288C36.6905 23.224 36.839 22.7708 36.839 22.1689V15.7467H33.4391V16.9618H33.6637C33.8579 16.9618 34.0216 17.0228 34.151 17.1523C34.2805 17.2818 34.3452 17.4647 34.3452 17.7008V18.1084H26.982V15.9753H26.9744Z" fill="white"/>
<path d="M42.5727 6.69627C43.0714 6.06776 43.673 5.75541 44.3849 5.75541C45.0969 5.75541 45.706 6.06776 46.22 6.69627C46.734 7.32858 46.9929 8.08279 46.9929 8.9665C46.9929 9.85022 46.734 10.6044 46.22 11.2329C45.706 11.8614 45.0969 12.1738 44.3849 12.1738C43.673 12.1738 43.0676 11.8614 42.5727 11.2329C42.0739 10.6044 41.8226 9.84641 41.8226 8.9665C41.8226 8.0866 42.0739 7.32858 42.5727 6.69627ZM40.8175 12.6347C41.8036 13.6479 42.9953 14.1507 44.3849 14.1507C45.7746 14.1507 47.0043 13.6479 47.9866 12.6347C48.9689 11.6215 49.46 10.4025 49.46 8.96269C49.46 7.52285 48.9689 6.30012 47.9866 5.2907C47.0043 4.28128 45.8012 3.77467 44.3849 3.77467C42.9686 3.77467 41.8036 4.28128 40.8175 5.2907C39.8276 6.30393 39.3327 7.52666 39.3327 8.96269C39.3327 10.3987 39.8276 11.6215 40.8175 12.6347ZM52.3725 21.9747C52.3192 22.028 52.2355 22.0546 52.1098 22.0546H45.5652C45.4319 22.0546 45.3405 22.0356 45.2949 22.0089C45.2492 21.9785 45.2263 21.8794 45.2263 21.7156V17.9179H52.4563V21.6928C52.4563 21.8261 52.4297 21.9213 52.3763 21.9708L52.3725 21.9747ZM42.6222 22.0546C42.6222 22.6527 42.7783 23.125 43.0905 23.4678C43.4103 23.8106 43.8253 23.9821 44.3392 23.9821H53.2444C53.7432 23.9821 54.1505 23.8106 54.4665 23.4678C54.7863 23.1212 54.9462 22.6527 54.9462 22.0546V16.4171C54.9462 16.2686 54.9082 16.1581 54.8396 16.0896C54.7749 16.021 54.6759 15.9867 54.5541 15.9867H41.3924V17.1104H41.7998C42.0739 17.1104 42.2757 17.198 42.409 17.3809C42.5498 17.5599 42.6184 17.777 42.6184 18.0322V22.0546H42.6222ZM54.9462 3.3252H51.276V4.4527H51.6834C51.9575 4.4527 52.1593 4.55554 52.2964 4.76504C52.4335 4.97455 52.502 5.19166 52.502 5.4164V15.0725H54.95V9.8426H57.5999V7.59522H54.95V3.3252H54.9462Z" fill="white"/>
<path d="M65.8921 8.20468C65.8921 9.0084 65.9835 9.72833 66.1662 10.3492C66.349 10.9701 66.5812 11.5186 66.8668 11.9986C67.2284 12.5966 67.6625 13.0765 68.1612 13.4346C68.66 13.7927 69.1663 14.0517 69.6803 14.2002C69.7565 14.2155 69.7945 14.2383 69.7945 14.2802C69.7945 14.3221 69.7755 14.3526 69.7488 14.3793L68.5039 15.8191C68.2564 15.7886 67.9252 15.6591 67.495 15.4382C67.0647 15.2135 66.6307 14.9125 66.1929 14.5392C65.9073 14.284 65.637 14.006 65.3895 13.6974C65.1383 13.3889 64.9365 13.0651 64.788 12.7185C64.7575 12.6423 64.708 12.608 64.6395 12.608C64.571 12.608 64.5291 12.6461 64.5177 12.7185C64.3806 13.0804 64.1865 13.4117 63.9352 13.7203C63.6877 14.025 63.4136 14.3069 63.109 14.5621C62.7016 14.9316 62.279 15.2287 61.8526 15.4382C61.4224 15.6477 61.0797 15.7658 60.8208 15.7963L59.5759 14.3564C59.5492 14.3259 59.5378 14.2917 59.5416 14.2574C59.5492 14.2231 59.5835 14.1926 59.6444 14.1774C60.1584 14.0403 60.6571 13.8193 61.1407 13.4917C61.6242 13.1718 62.0468 12.7337 62.4123 12.1776C62.7321 11.7015 62.9796 11.1301 63.1585 10.4711C63.3412 9.81213 63.4326 9.0503 63.4326 8.17802V6.35726C63.4326 6.13252 63.3945 5.92302 63.3184 5.73256C63.2423 5.53449 63.0595 5.43926 62.774 5.43926H62.2067V4.15939H65.9035V8.20468H65.8921ZM76.678 18.1503H74.3899V5.37069C74.3899 5.11548 74.3366 4.90217 74.2224 4.71933C74.1081 4.54031 73.8949 4.4527 73.5713 4.4527H73.3467V3.3252H76.678V18.1503ZM70.9215 8.71891V5.37069C70.9215 5.11548 70.8644 4.90217 70.754 4.71933C70.6397 4.54031 70.4265 4.4527 70.1067 4.4527H69.8821V3.3252H73.2134V18.1503H70.9215V10.7377H67.8871V8.71891H70.9215ZM67.2741 16.8285V21.4071C67.2741 21.5137 67.3008 21.5937 67.3579 21.6547C67.4112 21.7156 67.4911 21.7423 67.5939 21.7423H76.8836V23.7649H66.4175C65.8578 23.7649 65.4428 23.6202 65.1687 23.3269C64.8946 23.0336 64.7614 22.5727 64.7614 21.9442V18.8702C64.7614 18.615 64.6928 18.3979 64.5558 18.2189C64.4187 18.0398 64.2169 17.9522 63.9466 17.9522H63.5354V16.8285H67.2741Z" fill="white"/>
<path d="M93.7307 10.2197V5.4164C93.7307 5.19547 93.666 4.97454 93.5289 4.76504C93.3919 4.55554 93.1863 4.4527 92.9198 4.4527H92.5124V3.3252H96.1597V23.9859H93.7345V12.2423H90.1557V10.2197H93.7345H93.7307ZM83.4473 12.2195V15.3392C83.4473 15.4915 83.4816 15.602 83.5577 15.6782C83.6339 15.7544 83.7253 15.7886 83.8281 15.7886H91.374V17.8113H83.4207C82.6059 17.8113 81.993 17.5865 81.5818 17.1371C81.1782 16.6876 80.9764 15.9867 80.9764 15.0268V6.82959C80.9764 6.57438 80.9079 6.35726 80.7708 6.17823C80.6376 5.9992 80.432 5.90778 80.1617 5.90778H79.7505V4.78409H90.5593V6.80673H83.4473V10.2197H88.926V12.2195H83.4473Z" fill="white"/>
<path d="M0.422614 35.9459V35.805C0.422614 35.7783 0.422614 35.7593 0.460686 35.7517C0.48353 35.7441 0.719579 35.6869 0.879484 35.5117C0.9404 35.4431 1.00893 35.207 1.02035 34.7118C1.02797 34.449 1.05842 32.3387 1.05842 30.8608C0.879484 30.5675 0.506373 30.2323 0.197986 30.1789C0.144685 30.1713 0.129456 30.1637 0.129456 30.1066V29.958H1.45057C2.73362 31.9654 3.81487 33.5576 4.62201 34.6737C4.6144 33.7671 4.5611 31.9349 4.50779 31.2607C4.45069 30.537 4.28697 30.1942 3.65497 30.1294V29.9618H5.5091V30.0609C5.5091 30.0913 5.50149 30.1294 5.47484 30.137C5.36443 30.1713 5.27305 30.2208 5.18929 30.278C5.01416 30.3884 4.84283 30.6284 4.84283 31.2226C4.84283 31.5007 4.85045 33.1462 4.86948 34.6204C4.8771 35.0775 4.88852 35.5308 4.89613 35.9117C4.89613 35.9688 4.8771 35.9955 4.8276 36.0031H4.73623C4.36693 35.4546 3.14099 33.889 1.26402 31.0741C1.28305 31.9997 1.32113 33.87 1.34016 34.449C1.36681 35.3289 1.46199 35.7174 2.15872 35.8012V35.9421H0.422614V35.9459Z" fill="white"/>
<path d="M8.44067 33.459H6.96727C7.27946 32.5029 7.48886 31.6839 7.69064 31.0478C7.93812 31.8439 8.17036 32.6286 8.44067 33.459ZM10.3176 35.954C10.3443 35.954 10.3443 35.9463 10.3443 35.9197V35.794C10.3443 35.7673 10.3367 35.7597 10.3024 35.7483C10.2529 35.7292 10.1349 35.6949 10.0435 35.6264C9.86458 35.4969 9.80748 35.3864 9.51432 34.5408C9.244 33.7637 8.54347 31.6916 8.01045 30.0308C7.98 29.9241 7.95715 29.8975 7.87339 29.8975C7.81248 29.8975 7.79344 29.9241 7.76298 30.0346C7.22235 31.8477 6.52182 33.9618 6.04972 35.2721C5.98119 35.4664 5.83651 35.6302 5.68803 35.6988C5.62331 35.7292 5.56239 35.7407 5.47863 35.7483C5.44437 35.7559 5.44437 35.7673 5.44437 35.794V35.9083C5.44437 35.9387 5.44437 35.9463 5.4596 35.9463H6.92919V35.8054C6.57893 35.7864 6.43806 35.6378 6.43806 35.3712C6.43806 35.3178 6.44948 35.2074 6.48755 35.0664L6.88351 33.7485H8.51301L8.9775 35.1121C9.01557 35.234 9.04222 35.3331 9.04222 35.4169C9.04222 35.6949 8.84805 35.7673 8.58535 35.8016V35.9425L10.3215 35.9502L10.3176 35.954Z" fill="white"/>
<path d="M11.0601 35.9459C11.0601 35.9459 11.0372 35.9383 11.0372 35.9079V35.7936C11.0372 35.7669 11.0372 35.7593 11.0677 35.7479C11.1514 35.7288 11.4903 35.7098 11.6235 35.5079C11.7073 35.3746 11.7149 35.2679 11.7149 34.9213V30.2742H11.22C10.4014 30.2742 10.2263 30.7274 10.1577 31.4321C10.0397 31.4321 9.98642 31.4131 9.98642 31.2379V30.1789C9.98642 30.038 9.99403 29.9961 10.0016 29.958H14.1401C14.1668 30.0037 14.1744 30.0494 14.1744 30.1904V31.2493C14.1744 31.4207 14.1325 31.4436 13.9802 31.4359C13.9117 30.7274 13.7366 30.278 12.9142 30.278H12.4116V34.9251C12.4116 35.2717 12.4116 35.3936 12.5068 35.5117C12.6591 35.706 12.9789 35.7517 13.0627 35.7707C13.0931 35.7783 13.0931 35.7898 13.0931 35.8164V35.9117C13.0931 35.9421 13.0893 35.9498 13.0703 35.9498H11.0525L11.0601 35.9459Z" fill="white"/>
<path d="M16.5958 29.958C16.5958 29.958 16.6225 29.9656 16.6225 29.9961V30.0875C16.6225 30.118 16.6225 30.1256 16.5882 30.1332C16.5044 30.1523 16.1846 30.198 16.0323 30.3922C15.941 30.5141 15.941 30.6436 15.941 30.9903V34.9137C15.941 35.2565 15.941 35.3898 16.0323 35.5079C16.1846 35.7022 16.5044 35.7479 16.5882 35.7669C16.6225 35.7745 16.6225 35.786 16.6225 35.8126V35.9079C16.6225 35.9383 16.6148 35.9459 16.5958 35.9459H14.5818C14.5818 35.9459 14.5551 35.9383 14.5551 35.9079V35.7936C14.5551 35.7669 14.5551 35.7593 14.5894 35.7479C14.6769 35.7288 15.0158 35.7098 15.1452 35.5079C15.229 35.3746 15.2366 35.2565 15.2366 34.9137V30.9903C15.2366 30.6436 15.229 30.5218 15.1452 30.3922C15.012 30.1904 14.6731 30.1713 14.5894 30.1523C14.5551 30.1447 14.5551 30.1332 14.5551 30.1066V29.9961C14.5551 29.9656 14.5665 29.958 14.5818 29.958H16.5958Z" fill="white"/>
<path d="M21.1988 33.0972C21.1988 34.9332 20.563 35.7331 19.5998 35.7331C18.7431 35.7331 17.8789 34.7504 17.8789 32.762C17.8789 30.9336 18.568 30.168 19.535 30.168C20.3764 30.168 21.2026 31.1165 21.2026 33.0972H21.1988ZM21.9869 32.8458C21.9869 31.2498 21.1188 29.9014 19.6873 29.9014C18.2558 29.9014 17.0984 31.0593 17.0984 33.021C17.0984 34.6094 18.0845 36.0036 19.535 36.0036C20.9856 36.0036 21.9907 34.8037 21.9907 32.8496L21.9869 32.8458Z" fill="white"/>
<path d="M22.5542 35.9459V35.805C22.5542 35.7783 22.5542 35.7593 22.5922 35.7517C22.6189 35.7441 22.8549 35.6869 23.011 35.5117C23.072 35.4431 23.1405 35.207 23.1519 34.7118C23.1633 34.449 23.1862 32.3387 23.1862 30.8608C23.011 30.5675 22.6417 30.2323 22.3295 30.1789C22.2762 30.1713 22.261 30.1637 22.261 30.1066V29.958H23.5859C24.8652 31.9654 25.9464 33.5576 26.7498 34.6737C26.746 33.7671 26.6965 31.9349 26.6355 31.2607C26.5784 30.537 26.4185 30.1942 25.7827 30.1294V29.9618H27.6407V30.0609C27.6407 30.0913 27.6292 30.1294 27.6064 30.137C27.496 30.1713 27.4008 30.2208 27.3209 30.278C27.1457 30.3884 26.9706 30.6284 26.9706 31.2226C26.9706 31.5007 26.982 33.1462 26.9972 34.6204C27.0087 35.0775 27.0163 35.5308 27.0239 35.9117C27.0239 35.9688 27.0087 35.9955 26.9554 36.0031H26.864C26.4909 35.4546 25.2687 33.889 23.3918 31.0741C23.407 31.9997 23.4451 33.87 23.4679 34.449C23.4946 35.3289 23.5974 35.7174 24.2827 35.8012V35.9421H22.5542V35.9459Z" fill="white"/>
<path d="M30.5722 33.459H29.095C29.411 32.5029 29.6166 31.6839 29.8184 31.0478C30.0659 31.8439 30.3019 32.6286 30.5684 33.459H30.5722ZM32.4797 35.9349V35.794C32.4797 35.7673 32.4682 35.7597 32.4378 35.7483C32.3883 35.7292 32.2703 35.6949 32.1751 35.6264C31.9999 35.4969 31.939 35.3864 31.6421 34.5408C31.3718 33.7637 30.675 31.6916 30.1382 30.0308C30.1116 29.9241 30.0811 29.8975 30.0011 29.8975C29.944 29.8975 29.925 29.9241 29.8907 30.0346C29.3501 31.8477 28.6458 33.9618 28.1775 35.2721C28.1051 35.4664 27.9643 35.6302 27.8158 35.6988C27.7434 35.7292 27.6901 35.7407 27.6064 35.7483C27.5721 35.7559 27.5721 35.7673 27.5721 35.794V35.9083C27.5721 35.9387 27.5721 35.9463 27.5912 35.9463H29.0569V35.8054C28.7143 35.7864 28.5658 35.6378 28.5658 35.3712C28.5658 35.3178 28.5734 35.2074 28.6153 35.0664L29.0151 33.7485H30.6446L31.109 35.1121C31.1509 35.234 31.1776 35.3331 31.1776 35.4169C31.1776 35.6949 30.9796 35.7673 30.7207 35.8016V35.9349H32.4873H32.4797Z" fill="white"/>
<path d="M32.8604 35.9468C32.8185 35.9392 32.8071 35.9278 32.8071 35.9011V35.7754C32.8071 35.7576 32.8198 35.7462 32.8452 35.7411C32.9251 35.7183 33.1459 35.6916 33.2906 35.4897C33.3401 35.4135 33.3744 35.1926 33.3744 34.8765V30.9873C33.3744 30.6407 33.3668 30.5188 33.2792 30.3893C33.1459 30.1874 32.8071 30.1684 32.7233 30.1493C32.6929 30.1417 32.6929 30.1303 32.6929 30.1036V29.9932C32.6929 29.9627 32.7005 29.9551 32.7157 29.9551H34.7221C34.7221 29.9551 34.7488 29.9627 34.7488 29.9932V30.0846C34.7488 30.1151 34.7488 30.1227 34.7145 30.1303C34.6308 30.1493 34.311 30.1951 34.1587 30.3893C34.0711 30.5112 34.0787 30.6407 34.0787 30.9873V34.8193C34.0787 35.0631 34.0787 35.2307 34.2043 35.4059C34.349 35.6078 34.6917 35.6459 35.179 35.6459C35.9481 35.6459 36.0966 35.1088 36.2945 34.5222C36.4202 34.5222 36.4735 34.5298 36.4735 34.5946C36.4735 34.6213 36.424 34.8955 36.3745 35.2079C36.3288 35.4593 36.2945 35.7411 36.2565 35.943H32.8604V35.9468Z" fill="white"/>
<path d="M42.2415 35.9997C40.6957 35.9997 39.7668 34.6093 39.7668 33.0171C39.7668 31.2078 40.9546 29.8975 42.6412 29.8975C43.2085 29.8975 43.3684 29.947 43.6083 29.9927C43.7453 30.0194 43.8139 30.0651 43.8139 30.1755V31.2345C43.8139 31.2992 43.7453 31.3259 43.6273 31.3259C43.5664 30.6402 43.2542 30.1641 42.5232 30.1641C41.5105 30.1641 40.551 30.9869 40.551 32.7581C40.551 34.7465 41.5485 35.6607 42.4471 35.6607C43.3456 35.6607 43.7225 35.2531 43.7568 35.2531C43.7796 35.2531 43.7961 35.2658 43.8062 35.2912L43.89 35.4283C43.4788 35.7597 43.0143 35.9959 42.2491 35.9959L42.2415 35.9997Z" fill="white"/>
<path d="M46.7035 33.459H45.2301C45.5423 32.5029 45.7517 31.6839 45.9535 31.0478C46.201 31.8439 46.437 32.6286 46.7035 33.459ZM48.5843 35.9502C48.611 35.9502 48.611 35.9502 48.611 35.9197V35.794C48.611 35.7673 48.6034 35.7597 48.5691 35.7483C48.5158 35.7292 48.4016 35.6949 48.3102 35.6264C48.1313 35.4969 48.0742 35.3864 47.7772 34.5408C47.5069 33.7637 46.8102 31.6916 46.2771 30.0308C46.2467 29.9241 46.2162 29.8975 46.1363 29.8975C46.0754 29.8975 46.0563 29.9241 46.0259 30.0346C45.4852 31.8477 44.7809 33.9618 44.3126 35.2721C44.2441 35.4664 44.1032 35.6302 43.9509 35.6988C43.8824 35.7292 43.8253 35.7407 43.7415 35.7483C43.7072 35.7559 43.7072 35.7673 43.7072 35.794V35.9083C43.7072 35.9387 43.7072 35.9463 43.7263 35.9463H45.1921V35.8054C44.8494 35.7864 44.7047 35.6378 44.7047 35.3712C44.7047 35.3178 44.7124 35.2036 44.7542 35.0664L45.1502 33.7485H46.7759L47.2442 35.1121C47.2861 35.234 47.3127 35.3331 47.3127 35.4169C47.3127 35.6949 47.1147 35.7673 46.852 35.8016V35.9463H48.5881L48.5843 35.9502Z" fill="white"/>
<path d="M53.7393 29.9587V30.0577C53.7393 30.0882 53.7279 30.1263 53.7013 30.1339C53.5947 30.1682 53.5033 30.2177 53.4157 30.271C53.2444 30.3815 53.0769 30.6253 53.0769 31.2157C53.0769 31.4938 53.0845 33.1393 53.1035 34.6134C53.1111 35.0705 53.1188 35.5238 53.1264 35.9047C53.1264 35.9619 53.1112 35.9885 53.0579 35.9961H52.9627C52.5934 35.4476 51.3712 33.8821 49.4943 31.0671C49.5095 31.9928 49.5476 33.863 49.5666 34.442C49.5933 35.3219 49.6922 35.7105 50.3852 35.7943V35.9352H48.6567V35.7943C48.6567 35.7676 48.6567 35.7486 48.6871 35.7409C48.7138 35.7333 48.9536 35.6762 49.1097 35.501C49.1668 35.4324 49.2354 35.1924 49.2544 34.701C49.2582 34.4382 49.2849 32.328 49.2849 30.85C49.1097 30.5567 48.7366 30.2215 48.4282 30.1682C48.3711 30.1606 48.3559 30.153 48.3559 30.0958V29.9473H49.6808C50.9601 31.9547 52.0451 33.5469 52.8523 34.663C52.8408 33.7564 52.7913 31.9242 52.7342 31.2462C52.6733 30.5224 52.5134 30.1796 51.8814 30.1149V29.9473H53.7355L53.7393 29.9587Z" fill="white"/>
<path d="M56.4044 35.9997C54.8511 35.9997 53.9221 34.6093 53.9221 33.0171C53.9221 31.2078 55.11 29.8975 56.8004 29.8975C57.3639 29.8975 57.5238 29.947 57.7674 29.9927C57.9007 30.0194 57.9692 30.0651 57.9692 30.1755V31.2345C57.9692 31.2992 57.9007 31.3259 57.7865 31.3259C57.7294 30.6402 57.4134 30.1641 56.6786 30.1641C55.6696 30.1641 54.7064 30.9869 54.7064 32.7581C54.7064 34.7465 55.7039 35.6607 56.6024 35.6607C57.5009 35.6607 57.8779 35.2531 57.9121 35.2531C57.9324 35.2531 57.9489 35.2658 57.9616 35.2912L58.0416 35.4283C57.6342 35.7597 57.1659 35.9959 56.4044 35.9959V35.9997Z" fill="white"/>
<path d="M58.4984 35.9459C58.4413 35.9383 58.4413 35.9269 58.4413 35.9002V35.7745C58.4413 35.7568 58.4489 35.7453 58.4642 35.7403C58.5898 35.7098 58.9553 35.6603 59.0048 35.565C59.0352 35.5003 59.0809 35.4393 59.0809 34.8603V30.9903C59.0809 30.4075 59.0543 30.377 59.0124 30.3275C58.921 30.2323 58.5936 30.217 58.4756 30.1904C58.4451 30.1789 58.4451 30.1675 58.4451 30.1447V30.0037C58.4451 29.9771 58.4451 29.958 58.4908 29.958H61.7689C61.7689 30.0494 61.765 30.377 61.765 30.5446C61.765 30.777 61.7803 31.2569 61.7803 31.3064C61.7803 31.3788 61.7384 31.3864 61.6242 31.3864C61.5556 30.7275 61.3501 30.2627 60.5353 30.2627C60.2307 30.2627 59.9338 30.2932 59.8957 30.3465C59.8081 30.457 59.7853 30.5141 59.7853 30.777V32.7272H60.6724C60.9846 32.7272 61.0874 32.4492 61.1635 31.7902C61.312 31.7902 61.3386 31.7978 61.3386 31.8664C61.3386 31.9121 61.312 32.5254 61.312 32.811C61.312 33.3329 61.3386 33.6071 61.3386 33.87C61.3386 33.9385 61.2853 33.9538 61.1635 33.9538C61.0874 33.2948 60.9846 33.0129 60.6724 33.0129H59.7853V34.7651C59.7853 35.1041 59.7929 35.2755 59.8805 35.3974C60.0213 35.5993 60.3564 35.645 60.8399 35.645C61.6584 35.645 61.727 35.1194 61.9288 34.5328C62.0658 34.5328 62.0887 34.5404 62.0887 34.6051C62.0887 34.6547 62.0239 35.146 61.9935 35.3708C61.9706 35.546 61.9288 35.7517 61.8678 35.9536H58.506L58.4984 35.9459Z" fill="white"/>
<path d="M65.3058 31.478C65.3058 32.556 64.8108 32.9293 64.1864 32.9293C63.9123 32.9293 63.84 32.9103 63.7638 32.876V30.362C63.8819 30.2515 64.1141 30.2096 64.2892 30.2096C64.887 30.2096 65.3058 30.5562 65.3058 31.4819V31.478ZM64.5215 35.9461C64.5215 35.9461 64.5481 35.9385 64.5481 35.9195V35.7785C64.5481 35.7785 64.5405 35.7519 64.5215 35.7519C64.4377 35.7519 64.0189 35.7138 63.8742 35.5043C63.7981 35.3786 63.7714 35.1615 63.76 34.8644C63.7524 34.6891 63.76 33.0779 63.76 33.2036C63.8895 33.2036 64.2588 33.2112 64.4568 33.1731C64.6509 33.5426 64.9022 34.1482 65.1116 34.6015C65.3895 35.2072 65.5685 35.6528 65.8121 35.7823C65.972 35.87 66.1396 35.9614 66.5698 35.9614C66.6878 35.9614 66.8249 35.9614 66.9848 35.9423C67.0152 35.9423 67.0152 35.9119 67.0152 35.8585C67.0152 35.7938 66.9848 35.8014 66.9581 35.7938C66.8744 35.7671 66.7716 35.729 66.6535 35.63C66.0139 35.0586 65.3667 33.5654 65.0507 32.975C65.656 32.7427 66.0596 32.1751 66.0596 31.4971C66.0596 30.6819 65.6637 29.9658 64.4225 29.9658C64.057 29.9658 63.3184 30.0115 63.1509 30.0115H62.4922C62.4351 30.0115 62.4275 30.023 62.4275 30.0496V30.1639C62.4275 30.1906 62.4275 30.202 62.4579 30.2096C62.6026 30.2439 62.9491 30.2363 63.01 30.3391C63.0405 30.3924 63.0671 30.4191 63.0671 31.0019V34.891C63.0671 35.4662 63.0367 35.5119 62.9986 35.5805C62.9415 35.6795 62.675 35.7252 62.5265 35.7633C62.5036 35.7684 62.4922 35.7798 62.4922 35.7976V35.9195C62.4922 35.95 62.5036 35.9576 62.5341 35.9576H64.5253L64.5215 35.9461Z" fill="white"/>
<path d="M72.57 35.9997C71.0243 35.9997 70.0915 34.6093 70.0915 33.0171C70.0915 31.2078 71.2793 29.8975 72.966 29.8975C73.5332 29.8975 73.6893 29.947 73.9406 29.9927C74.0701 30.0194 74.131 30.0651 74.131 30.1755V31.2345C74.131 31.2992 74.0701 31.3259 73.9482 31.3259C73.8911 30.6402 73.5789 30.1641 72.8479 30.1641C71.8352 30.1641 70.8758 30.9869 70.8758 32.7581C70.8758 34.7465 71.8695 35.6607 72.7718 35.6607C73.6741 35.6607 74.0434 35.2531 74.0739 35.2531C74.1043 35.2531 74.1043 35.2531 74.1234 35.2912L74.2071 35.4283C73.7959 35.7597 73.3315 35.9959 72.5624 35.9959L72.57 35.9997Z" fill="white"/>
<path d="M74.664 35.9459C74.6069 35.9383 74.6069 35.9269 74.6069 35.9002V35.7745C74.6069 35.7568 74.6158 35.7453 74.6336 35.7403C74.7592 35.7098 75.1209 35.6603 75.1742 35.565C75.2084 35.5003 75.2503 35.4393 75.2503 34.8603V30.9903C75.2503 30.4075 75.2237 30.377 75.1818 30.3275C75.0904 30.2323 74.7592 30.217 74.645 30.1904C74.6107 30.1789 74.6107 30.1675 74.6107 30.1447V30.0037C74.6107 29.9771 74.6107 29.958 74.664 29.958H77.9382C77.9382 30.0494 77.9344 30.377 77.9344 30.5446C77.9344 30.777 77.9497 31.2569 77.9497 31.3064C77.9497 31.3788 77.9078 31.3864 77.7936 31.3864C77.725 30.7275 77.5233 30.2627 76.7085 30.2627C76.4001 30.2627 76.107 30.2932 76.0651 30.3465C75.9813 30.457 75.9547 30.5141 75.9547 30.777V32.7272H76.8418C77.1501 32.7272 77.2491 32.4492 77.3253 31.7902C77.4814 31.7902 77.5042 31.7978 77.5042 31.8664C77.5042 31.9121 77.4814 32.5254 77.4814 32.811C77.4814 33.3329 77.5042 33.6071 77.5042 33.87C77.5042 33.9385 77.4433 33.9538 77.3253 33.9538C77.2491 33.2948 77.1501 33.0129 76.8418 33.0129H75.9547V34.7651C75.9547 35.1041 75.9661 35.2755 76.046 35.3974C76.1907 35.5993 76.5258 35.645 77.0055 35.645C77.8278 35.645 77.8926 35.1194 78.0943 34.5328C78.2352 34.5328 78.2542 34.5404 78.2542 34.6051C78.2542 34.6547 78.1971 35.146 78.1629 35.3708C78.1362 35.546 78.0943 35.7517 78.0372 35.9536H74.6754L74.664 35.9459Z" fill="white"/>
<path d="M83.8319 29.9587V30.0577C83.8319 30.0882 83.8319 30.1263 83.8052 30.1339C83.6948 30.1682 83.5996 30.2177 83.5197 30.271C83.3369 30.3815 83.1694 30.6253 83.1694 31.2157C83.1694 31.4938 83.177 33.1393 83.1961 34.6134C83.2037 35.0705 83.2151 35.5238 83.2227 35.9047C83.2227 35.9619 83.2037 35.9885 83.1542 35.9961H83.0666C82.6935 35.4476 81.4676 33.8821 79.5944 31.0671C79.6134 31.9928 79.6515 33.863 79.6706 34.442C79.6934 35.3219 79.7962 35.7105 80.4891 35.7943V35.9352H78.7606V35.7943C78.7606 35.7676 78.7606 35.7486 78.7949 35.7409C78.8177 35.7333 79.0538 35.6762 79.2137 35.501C79.2746 35.4324 79.3431 35.1924 79.3584 34.701C79.366 34.4382 79.3888 32.328 79.3888 30.85C79.2099 30.5567 78.8406 30.2215 78.5322 30.1682C78.4789 30.1606 78.4637 30.153 78.4637 30.0958V29.9473H79.7848C81.064 31.9547 82.1453 33.5469 82.9524 34.663C82.9486 33.7564 82.8953 31.9242 82.8344 31.2462C82.7773 30.5224 82.6174 30.1796 81.9892 30.1149V29.9473H83.8357L83.8319 29.9587Z" fill="white"/>
<path d="M88.3587 29.958C88.3853 30.0037 88.393 30.0494 88.393 30.1904V31.2493C88.393 31.4207 88.3511 31.4436 88.1988 31.4359C88.1341 30.7274 87.9513 30.2742 87.1366 30.2742H86.634V34.9251C86.634 35.2717 86.634 35.3936 86.7254 35.5117C86.8777 35.706 87.1975 35.7517 87.2812 35.7707C87.3117 35.7783 87.3117 35.7898 87.3117 35.8164V35.9117C87.3117 35.9421 87.3041 35.9498 87.285 35.9498H85.271C85.271 35.9498 85.2482 35.9421 85.2482 35.9117V35.7974C85.2482 35.7707 85.2482 35.7631 85.2824 35.7517C85.3662 35.7326 85.7012 35.7136 85.8383 35.5117C85.9221 35.3784 85.9259 35.2717 85.9259 34.9251V30.2742H85.4309C84.6085 30.2742 84.4372 30.7274 84.3687 31.4359C84.2507 31.4359 84.2012 31.4169 84.2012 31.2417V30.1827C84.2012 30.0418 84.205 29.9999 84.2164 29.9618H88.3549L88.3587 29.958Z" fill="white"/>
<path d="M88.8308 35.9459C88.7737 35.9383 88.7737 35.9269 88.7737 35.9002V35.7745C88.7737 35.7568 88.7826 35.7453 88.8003 35.7403C88.9222 35.7098 89.2915 35.6603 89.3372 35.565C89.3714 35.5003 89.4133 35.4393 89.4133 34.8603V30.9903C89.4133 30.4075 89.3866 30.377 89.3448 30.3275C89.261 30.2323 88.926 30.217 88.8118 30.1904C88.7775 30.1789 88.7775 30.1675 88.7775 30.1447V30.0037C88.7775 29.9771 88.7775 29.958 88.8308 29.958H92.1088C92.1088 30.0494 92.105 30.377 92.105 30.5446C92.105 30.777 92.1203 31.2569 92.1203 31.3064C92.1203 31.3788 92.0746 31.3864 91.9565 31.3864C91.888 30.7275 91.6862 30.2627 90.8677 30.2627C90.5669 30.2627 90.2699 30.2932 90.2281 30.3465C90.1443 30.457 90.1176 30.5141 90.1176 30.777V32.7272H91.0009C91.3131 32.7272 91.4159 32.4492 91.4921 31.7902C91.6443 31.7902 91.6672 31.7978 91.6672 31.8664C91.6672 31.9121 91.6405 32.5254 91.6405 32.811C91.6405 33.3329 91.6672 33.6071 91.6672 33.87C91.6672 33.9385 91.6101 33.9538 91.4921 33.9538C91.4159 33.2948 91.3131 33.0129 91.0009 33.0129H90.1176V34.7651C90.1176 35.1041 90.1253 35.2755 90.2128 35.3974C90.3575 35.5993 90.6887 35.645 91.1761 35.645C91.9946 35.645 92.0555 35.1194 92.2611 34.5328C92.402 34.5328 92.4172 34.5404 92.4172 34.6051C92.4172 34.6547 92.3601 35.146 92.3297 35.3708C92.303 35.546 92.2611 35.7517 92.2002 35.9536H88.8346L88.8308 35.9459Z" fill="white"/>
<path d="M95.6458 31.478C95.6458 32.556 95.147 32.9293 94.5226 32.9293C94.2447 32.9293 94.18 32.9103 94.1 32.876V30.362C94.2219 30.2515 94.4465 30.2096 94.6216 30.2096C95.2194 30.2096 95.6458 30.5562 95.6458 31.4819V31.478ZM94.8577 35.9461C94.8577 35.9461 94.8843 35.9385 94.8843 35.9195V35.7785C94.8843 35.7785 94.8767 35.7519 94.8577 35.7519C94.7739 35.7519 94.3551 35.7138 94.2104 35.5043C94.1343 35.3786 94.1114 35.1615 94.1 34.8644C94.0924 34.6891 94.1 33.0779 94.1 33.2036C94.2295 33.2036 94.6026 33.2112 94.7891 33.1731C94.9833 33.5426 95.2346 34.1482 95.4478 34.6015C95.7295 35.2072 95.9047 35.6528 96.1521 35.7823C96.312 35.87 96.4757 35.9614 96.9098 35.9614C97.0278 35.9614 97.1611 35.9614 97.3248 35.9423C97.359 35.9423 97.359 35.9119 97.359 35.8585C97.359 35.7938 97.3248 35.8014 97.2981 35.7938C97.2143 35.7671 97.1116 35.729 96.9973 35.63C96.3577 35.0586 95.7067 33.5654 95.3869 32.975C95.9922 32.7427 96.3958 32.1751 96.3958 31.4971C96.3958 30.6819 96.0036 29.9658 94.7625 29.9658C94.3894 29.9658 93.6584 30.0115 93.4909 30.0115H92.8284C92.7713 30.0115 92.7637 30.023 92.7637 30.0496V30.1639C92.7637 30.1906 92.7637 30.202 92.7979 30.2096C92.9388 30.2439 93.2891 30.2363 93.3462 30.3391C93.3804 30.3924 93.4033 30.4191 93.4033 31.0019V34.891C93.4033 35.4662 93.369 35.5119 93.3348 35.5805C93.2777 35.6795 93.015 35.7252 92.8627 35.7633C92.8398 35.7684 92.8284 35.7798 92.8284 35.7976V35.9195C92.8284 35.95 92.8398 35.9576 92.8741 35.9576H94.8577V35.9461Z" fill="white"/>
<path d="M105.084 33.7829C100.329 29.7833 100.256 22.1346 106.489 14.8516L115.093 22.0851L105.08 33.7867L105.084 33.7829Z" fill="#E60012"/>
<path d="M106.493 14.8518C113.803 6.31552 123.743 1.38652 134 0L115.097 22.0815L106.493 14.848V14.8518Z" fill="#FCC800"/>
<path d="M105.084 33.7835L121.17 14.9893L128.906 21.4952C128.906 21.4952 118.756 42.6054 105.084 33.7873V33.7835Z" fill="#0068B7"/>
<path d="M128.929 21.533C132.435 14.7984 134.072 7.29066 134 0L121.17 14.9889L121.162 15.0041L128.929 21.5368V21.533Z" fill="#00A95F"/>
</g>
<defs>
<clipPath id="clip0_484_7265">
<rect width="134" height="36" fill="white"/>
</clipPath>
</defs>
</svg>
