<svg width="18" height="19" viewBox="0 0 18 19" fill="none" xmlns="http://www.w3.org/2000/svg">
<path d="M15.3844 7.79144L9.7594 2.67972C9.55201 2.48999 9.28111 2.38477 9.00003 2.38477C8.71894 2.38477 8.44804 2.48999 8.24065 2.67972L2.61565 7.79144C2.50048 7.8968 2.4085 8.02498 2.34556 8.16782C2.28261 8.31066 2.25008 8.46503 2.25003 8.62113V15.0969C2.24545 15.3805 2.34559 15.6559 2.53128 15.8703C2.63667 15.9902 2.7665 16.0861 2.91203 16.1516C3.05757 16.2171 3.21544 16.2506 3.37503 16.25H6.75003C6.89921 16.25 7.04229 16.1908 7.14778 16.0853C7.25326 15.9798 7.31253 15.8367 7.31253 15.6875V12.3125C7.31253 12.1633 7.37179 12.0203 7.47728 11.9148C7.58277 11.8093 7.72584 11.75 7.87503 11.75H10.125C10.2742 11.75 10.4173 11.8093 10.5228 11.9148C10.6283 12.0203 10.6875 12.1633 10.6875 12.3125V15.6875C10.6875 15.8367 10.7468 15.9798 10.8523 16.0853C10.9578 16.1908 11.1008 16.25 11.25 16.25H14.625C14.8116 16.2517 14.9955 16.2057 15.1594 16.1164C15.3377 16.0193 15.4866 15.8761 15.5905 15.7016C15.6944 15.5272 15.7495 15.3281 15.75 15.125V8.62113C15.75 8.46503 15.7174 8.31066 15.6545 8.16782C15.5916 8.02498 15.4996 7.8968 15.3844 7.79144Z" fill="white"/>
</svg>
