<svg width="18" height="17" viewBox="0 0 18 17" fill="none" xmlns="http://www.w3.org/2000/svg">
<path d="M6.1249 8.10567L6.16091 8.07184L6.14482 8.02512C5.89037 7.28636 5.82515 6.50159 5.95437 5.73474C6.0836 4.96787 6.40369 4.24027 6.88891 3.61136C7.37415 2.98243 8.01084 2.46998 8.74729 2.11617C9.48372 1.76237 10.2988 1.57734 11.1261 1.57639C11.8831 1.57753 12.6308 1.73303 13.3176 2.03205C14.0045 2.33109 14.6139 2.76646 15.1043 3.30794C15.5946 3.84941 15.9542 4.48412 16.1586 5.16828C16.3631 5.85243 16.4075 6.57003 16.2891 7.2718C16.1706 7.97358 15.892 8.64317 15.472 9.23444C15.052 9.82573 14.5007 10.3247 13.8557 10.6968C13.2106 11.0689 12.4873 11.3052 11.7355 11.3892C10.9837 11.4732 10.2215 11.4029 9.50153 11.1832L9.45889 11.1702L9.42659 11.2009L8.79673 11.8C8.79657 11.8001 8.7964 11.8003 8.79624 11.8004C8.70973 11.8796 8.59273 11.9243 8.47026 11.9236H8.46986H7.40736H7.33097V12V13C7.33097 13.1108 7.28424 13.2181 7.1994 13.2979C7.11441 13.3779 6.99819 13.4236 6.87611 13.4236H5.81361H5.73722V13.5V14.5C5.73722 14.6108 5.69049 14.7181 5.60565 14.7979C5.52066 14.8779 5.40444 14.9236 5.28236 14.9236H2.62611C2.50403 14.9236 2.38781 14.8779 2.30281 14.7979C2.21797 14.7181 2.17125 14.6108 2.17125 14.5L2.17125 12L2.17124 11.9995C2.17058 11.8883 2.21635 11.7803 2.30029 11.6991C2.30041 11.6989 2.30053 11.6988 2.30065 11.6987L6.1249 8.10567ZM11.8233 6.14613C12.0104 6.26382 12.23 6.32639 12.4542 6.32639C12.7548 6.32639 13.044 6.21404 13.2579 6.01273C13.4719 5.81128 13.5931 5.53702 13.5931 5.25C13.5931 5.03604 13.5257 4.82731 13.4 4.65021C13.2743 4.47318 13.0961 4.33586 12.8886 4.25495C12.681 4.17404 12.4529 4.15294 12.2329 4.19413C12.0128 4.23533 11.8101 4.33711 11.6506 4.48727C11.491 4.63747 11.3817 4.82942 11.3374 5.03911C11.2931 5.24886 11.3159 5.4662 11.4027 5.66345C11.4895 5.86064 11.6361 6.02842 11.8233 6.14613Z" fill="#B8B8B8" stroke="#B8B8B8" stroke-width="0.152778"/>
</svg>
