<svg width="17" height="16" viewBox="0 0 17 16" fill="none" xmlns="http://www.w3.org/2000/svg">
<path d="M7.64581 10.6409C7.66461 10.7125 7.69736 10.7797 7.74218 10.8387C7.78702 10.8976 7.84306 10.9471 7.90708 10.9844C7.9711 11.0216 8.04185 11.0458 8.11526 11.0557C8.18853 11.0655 8.26301 11.0607 8.33445 11.0417C8.40576 11.0237 8.47279 10.9917 8.53165 10.9476C8.59063 10.9033 8.64023 10.8479 8.67757 10.7843C8.71491 10.7208 8.73926 10.6504 8.74918 10.5774C8.75908 10.5045 8.75444 10.4305 8.73553 10.3594C8.58575 9.77782 8.23763 9.26766 7.75251 8.91626C8.0166 8.6379 8.19817 8.29097 8.27604 7.91425C8.35898 7.51305 8.32056 7.09624 8.16567 6.71697C8.01079 6.33769 7.74646 6.01314 7.4064 5.78468C7.06633 5.55622 6.66593 5.43421 6.25625 5.43421C5.84657 5.43421 5.44617 5.55622 5.1061 5.78468C4.76604 6.01314 4.50171 6.33769 4.34683 6.71697C4.19194 7.09624 4.15352 7.51305 4.23646 7.91425C4.31433 8.29097 4.4959 8.6379 4.75999 8.91625C4.27495 9.2676 3.92686 9.77766 3.77705 10.3591C3.75808 10.4303 3.75341 10.5044 3.76332 10.5774C3.77324 10.6504 3.79758 10.7208 3.83493 10.7843C3.87227 10.8479 3.92187 10.9033 3.98085 10.9476C4.03982 10.9918 4.107 11.0238 4.17846 11.0419L4.17839 11.0421L4.18448 11.0431L4.30948 11.0618L4.30937 11.0625L4.31893 11.0625C4.44381 11.0621 4.5651 11.0207 4.66408 10.9446C4.76307 10.8684 4.83424 10.7618 4.86661 10.6412L4.86667 10.641C4.94787 10.3344 5.12818 10.0633 5.37952 9.86987C5.63085 9.67644 5.9391 9.57156 6.25625 9.57156C6.5734 9.57156 6.88165 9.67644 7.13298 9.86987C7.3843 10.0633 7.5646 10.3344 7.64581 10.6409ZM7.64581 10.6409C7.64581 10.6409 7.6458 10.6409 7.6458 10.6409L7.70625 10.625L7.64583 10.641C7.64583 10.641 7.64582 10.641 7.64581 10.6409ZM3 2.5625H14C14.2486 2.5625 14.4871 2.66127 14.6629 2.83709C14.8387 3.0129 14.9375 3.25136 14.9375 3.5V12.5C14.9375 12.7486 14.8387 12.9871 14.6629 13.1629C14.4871 13.3387 14.2486 13.4375 14 13.4375H3C2.75136 13.4375 2.5129 13.3387 2.33709 13.1629C2.16127 12.9871 2.0625 12.7486 2.0625 12.5V3.5C2.0625 3.25136 2.16127 3.0129 2.33709 2.83709C2.5129 2.66127 2.75136 2.5625 3 2.5625ZM10 9.5625H12.5C12.6492 9.5625 12.7923 9.50324 12.8977 9.39775C13.0032 9.29226 13.0625 9.14918 13.0625 9C13.0625 8.85082 13.0032 8.70774 12.8977 8.60225C12.7923 8.49676 12.6492 8.4375 12.5 8.4375H10C9.85082 8.4375 9.70774 8.49676 9.60225 8.60225C9.49676 8.70774 9.4375 8.85082 9.4375 9C9.4375 9.14918 9.49676 9.29226 9.60225 9.39775C9.70774 9.50324 9.85082 9.5625 10 9.5625ZM10 7.5625H12.5C12.6492 7.5625 12.7923 7.50324 12.8977 7.39775C13.0032 7.29226 13.0625 7.14918 13.0625 7C13.0625 6.85082 13.0032 6.70774 12.8977 6.60225C12.7923 6.49676 12.6492 6.4375 12.5 6.4375H10C9.85082 6.4375 9.70774 6.49676 9.60225 6.60225C9.49676 6.70774 9.4375 6.85082 9.4375 7C9.4375 7.14918 9.49676 7.29226 9.60225 7.39775C9.70774 7.50324 9.85082 7.5625 10 7.5625Z" fill="#B8B8B8" stroke="#B8B8B8" stroke-width="0.125"/>
<path d="M7.19373 7.5C7.19373 8.01777 6.77399 8.4375 6.25623 8.4375C5.73846 8.4375 5.31873 8.01777 5.31873 7.5C5.31873 6.98223 5.73846 6.5625 6.25623 6.5625C6.77399 6.5625 7.19373 6.98223 7.19373 7.5Z" fill="#B8B8B8" stroke="#B8B8B8" stroke-width="0.125"/>
</svg>
