<svg width="189" height="36" viewBox="0 0 189 36" fill="none" xmlns="http://www.w3.org/2000/svg">
<g clip-path="url(#clip0_484_4111)">
<path d="M0.235809 15.6434C0.235809 15.6434 -0.0742372 16.2208 0.094266 18.47L-0.00683594 19.9739C-0.00683594 19.9739 0.0538252 21.5785 0.141447 21.8941L0.633476 22.5856C0.633476 22.5856 21.8784 35.1003 21.939 35.1406C21.9997 35.1809 25.8416 35.5703 25.8416 35.5703L27.8232 34.8989L31.2067 32.4349L37.4211 27.5606C37.4211 27.5606 38.3917 27.1981 38.3917 26.238C38.3917 25.2779 38.3849 19.7322 38.3849 19.7322L36.0798 10.3797L20.3753 1.96046L6.8681 6.35808L1.10529 11.8769L0.235809 15.6434Z" fill="white"/>
<path d="M22.2559 30.3066C22.1009 30.2596 21.9593 30.1925 21.8178 30.1119C20.463 29.3398 6.06612 21.5315 2.50733 19.4368C-1.19974 17.2413 0.485289 15.5763 0.593131 15.4957C0.559431 15.5159 0 15.8918 0 16.3752V19.853C0.0606612 20.2827 0.229164 20.3499 0.229164 20.3499L2.69605 21.9881C6.55141 24.2574 20.463 32.2066 21.7976 32.972C21.9391 33.0526 22.0807 33.1197 22.2357 33.1667C23.0647 33.4286 25.471 34.4289 28.2411 32.0992C28.531 31.8575 28.7534 31.5487 28.7534 31.1727V30.1186C28.7669 29.7359 28.3085 29.5144 27.985 29.7426C24.9385 31.9045 23.058 30.5617 22.2559 30.3133V30.3066Z" fill="#005BAC"/>
<path d="M22.2559 34.1C22.1009 34.053 21.9593 33.9858 21.8178 33.9053C20.463 33.1332 6.0661 25.3249 2.50731 23.2301C1.11885 22.411 0.485274 21.6658 0.242629 21.0481C-0.0471966 21.7128 -0.0539368 22.975 2.50731 24.4924C6.05936 26.5938 20.4563 34.3954 21.8178 35.1675C21.9593 35.248 22.1009 35.3152 22.2559 35.3622C23.0849 35.624 25.053 37.0272 28.2479 34.5968C28.5714 34.3484 28.7601 33.9724 28.7601 33.5763C28.7601 33.3212 28.4568 33.1802 28.2479 33.3413C25.0463 35.7717 23.0782 34.3618 22.2559 34.1067V34.1Z" fill="#7ECEF4"/>
<path d="M38.3584 14.0522L33.856 17.4629C35.177 15.8515 32.9326 13.3137 32.9326 13.3137C32.3192 12.5483 30.8633 11.4674 30.0073 10.9571L25.3364 8.27825C23.0178 6.88847 20.2881 6.23722 17.5718 6.49907H17.5246C15.4958 6.70048 13.5345 7.32488 11.7753 8.33196L0.539498 14.7706L0.0205078 15.1063V8.40582C0.0205078 8.40582 0.14857 7.74785 0.964126 7.27788L9.28145 2.51772C11.6001 1.18836 14.1815 0.328981 16.8641 0.0402825C16.8641 0.0402825 21.535 -0.436405 25.7206 1.85304L34.5772 6.9019C35.6758 7.58001 37.1047 8.48638 37.7248 9.72174C38.2438 10.749 38.2573 12.1388 37.7248 13.4345C36.4779 16.4692 38.3584 14.0455 38.3584 14.0455V14.0522Z" fill="url(#paint0_linear_484_4111)"/>
<path d="M36.4978 14.972C36.2821 15.1734 36.0395 15.3547 35.8238 15.5494L31.3012 19.0809C30.8428 19.4435 30.5732 20.0142 30.5732 20.6251V25.6337C30.5732 26.097 31.0788 26.3722 31.436 26.097L37.738 21.3502C38.5536 20.5714 38.3985 19.4972 38.3985 19.4972V12.9914C38.3985 10.1447 37.1988 8.94965 37.1988 8.94965C37.1988 8.94965 39.4028 12.2932 36.5046 14.972H36.4978Z" fill="url(#paint1_linear_484_4111)"/>
<path d="M0.0136719 8.70123V15.0996C0.0136719 16.8452 2.49404 18.2417 2.49404 18.2417L21.3394 28.7691C21.4742 28.843 21.6293 28.8833 21.7708 28.9437C25.3229 30.6154 27.7493 28.7288 28.4503 28.0306C28.6525 27.8292 28.7671 27.5539 28.7671 27.2652V22.458C28.7671 21.6591 28.1605 21.3032 27.4662 21.7464C24.7297 23.4853 23.0245 22.5655 22.2696 22.3305C22.1146 22.2835 21.973 22.2163 21.8315 22.1358C20.4767 21.3637 6.07979 13.1324 2.52774 11.0377C-1.30065 8.7818 0.613544 7.51958 0.613544 7.51958C0.613544 7.51958 0.0136719 7.90899 0.0136719 8.40582V8.70123Z" fill="url(#paint2_linear_484_4111)"/>
<path d="M26.7583 13.5218C26.6977 13.4278 26.5831 13.3607 26.5831 13.3607L26.4483 13.2734L21.7369 10.561C20.8405 10.0239 19.789 9.78888 18.7376 9.89631C18.0703 9.96345 17.4233 10.1716 16.8504 10.5006L14.7407 11.7091L14.6463 11.7762C14.6463 11.7762 14.498 11.8769 14.498 11.9978V13.6762C14.498 14.1126 15.1181 14.4618 15.1181 14.4618L21.4134 17.9597C21.4471 17.9799 21.4876 17.9866 21.5213 18.0067C22.1009 18.329 22.4986 18.2551 22.7682 18.1074L24.1432 17.2413C25.6664 16.3148 26.3337 15.8247 26.5292 15.6837C26.6168 15.6233 26.6775 15.5561 26.7246 15.489C26.8594 15.301 26.8594 15.1399 26.8594 15.1399V14.0589C26.8594 13.5621 26.7651 13.5218 26.7651 13.5218H26.7583Z" fill="#005BAC"/>
<path d="M26.7649 13.5285L23.469 15.6098C22.7343 16.0731 21.7975 16.1 21.0358 15.677L14.4709 12.0246V13.7031C14.4709 14.1395 15.091 14.4886 15.091 14.4886L21.3863 17.9866C21.42 18.0067 21.4605 18.0134 21.4942 18.0336C21.8042 18.2014 22.0603 18.2618 22.2693 18.2551V18.235C22.4647 18.235 22.6265 18.1813 22.7613 18.1141L24.1363 17.248C25.6596 16.3215 26.3268 15.8314 26.5223 15.6904C26.6099 15.63 26.6706 15.5628 26.7178 15.4957C26.8526 15.3077 26.8526 15.1466 26.8526 15.1466V14.0656C26.8526 13.6427 26.7784 13.5487 26.7582 13.5352L26.7649 13.5285Z" fill="url(#paint3_linear_484_4111)"/>
<path d="M37.9468 22.3238L36.4775 23.4786L31.2808 27.3189L30.9978 27.5472C30.7282 27.7687 30.5664 28.091 30.5597 28.4334V29.6822C30.5529 30.0313 30.9641 30.2328 31.2539 30.0246L36.4505 26.1843L37.9199 25.0295C37.9199 25.0295 38.4052 24.6871 38.3984 23.9217V22.4245C38.3984 22.2969 38.3512 22.1223 38.2164 22.1223L37.9468 22.3238Z" fill="#005BAC"/>
<path d="M38.4054 26.238C38.4054 26.1104 38.2975 26.003 38.1627 26.003H38.1155L37.9538 26.1238L36.4844 27.2786L31.2878 31.119L30.9508 31.354C30.7149 31.5151 30.5801 31.7837 30.5801 32.0589C30.5801 32.4148 31.0114 32.6028 31.2878 32.3745L36.4844 28.5341L37.9538 27.3793C37.9538 27.3793 38.4188 27.0369 38.4054 26.3991V26.238Z" fill="#7ECEF4"/>
<path d="M50.8677 2.80642H63.1887C63.1617 4.08206 63.1011 5.27714 63 6.37822C62.9056 7.48601 62.7978 8.46624 62.6899 9.33234H66.1678V10.8564H58.1269V14.6632H63.2359V21.1287H61.4565V16.1671H50.7666V14.6632H56.307V10.8564H48.1582V9.33234H60.9375C61.0453 8.47967 61.1464 7.65386 61.2273 6.84819C61.3082 6.04252 61.3554 5.21 61.3756 4.3439H50.8745V2.7997L50.8677 2.80642Z" fill="white"/>
<path d="M66.2488 15.7374C67.462 15.1332 68.5337 14.4483 69.4503 13.6762C70.3737 12.9109 71.1556 12.0783 71.7959 11.1854C72.4362 10.2924 72.9485 9.35919 73.3394 8.37225C73.7236 7.39202 73.9865 6.38493 74.128 5.3577C73.2855 5.38456 72.4497 5.4047 71.6274 5.41141C70.7984 5.41813 69.9761 5.42484 69.147 5.42484H67.0172V3.90078H73.1574C74.1213 3.90078 75.0918 3.88736 76.0759 3.8605C75.8804 6.68706 75.0986 9.2182 73.7168 11.4472C72.3419 13.6762 70.2524 15.5427 67.4553 17.0399L66.2555 15.7441L66.2488 15.7374ZM84.1573 11.1048H80.9086V21.075H79.1292V2.2693H80.9086V9.52033H84.1573V11.1048Z" fill="white"/>
<path d="M84.3594 7.37859C84.3594 6.72063 84.4807 6.10295 84.7233 5.53226C84.966 4.96158 85.2963 4.47147 85.7276 4.04849C86.1522 3.63223 86.6645 3.29653 87.2442 3.06154C87.8305 2.81984 88.4574 2.69899 89.1381 2.69899C89.8189 2.69899 90.4457 2.81984 91.0321 3.06154C91.6185 3.30325 92.1307 3.63223 92.5621 4.04849C92.9935 4.46475 93.3305 4.96158 93.5731 5.53226C93.8158 6.10295 93.9371 6.71391 93.9371 7.37859C93.9371 8.04327 93.8158 8.67438 93.5731 9.24506C93.3305 9.81574 92.9935 10.3126 92.5621 10.7288C92.1307 11.1451 91.6185 11.4741 91.0321 11.7091C90.4457 11.9441 89.8189 12.0582 89.1381 12.0582C88.4574 12.0582 87.8305 11.9441 87.2442 11.7091C86.6578 11.4741 86.1522 11.1518 85.7276 10.7288C85.303 10.3126 84.966 9.81574 84.7233 9.24506C84.4807 8.67438 84.3594 8.0567 84.3594 7.37859ZM86.0983 7.37859C86.0983 7.83514 86.1725 8.24469 86.3275 8.62738C86.4758 9.00336 86.6915 9.33234 86.9611 9.61432C87.2307 9.89631 87.5475 10.1179 87.9249 10.2723C88.2956 10.4334 88.7068 10.5073 89.1449 10.5073C89.583 10.5073 89.9941 10.4267 90.3783 10.2723C90.7558 10.1179 91.0793 9.89631 91.3489 9.61432C91.6185 9.33234 91.8274 9.00336 91.9825 8.62738C92.1307 8.2514 92.2116 7.83514 92.2116 7.37859C92.2116 6.92204 92.1375 6.52592 91.9825 6.14323C91.8342 5.76054 91.6185 5.42484 91.3489 5.14286C91.0793 4.86087 90.7558 4.63931 90.3783 4.48489C90.0009 4.33047 89.5897 4.24991 89.1449 4.24991C88.7 4.24991 88.2956 4.33047 87.9249 4.48489C87.5542 4.64603 87.2307 4.86087 86.9611 5.14286C86.6915 5.42484 86.4825 5.76054 86.3275 6.14323C86.1792 6.52592 86.0983 6.94219 86.0983 7.37859ZM98.8372 20.7863H87.1767V13.9314H98.8372V20.7863ZM97.0578 15.4286H88.9561V19.2824H97.0578V15.4286ZM101.816 8.01641H98.8372V12.8571H97.0578V2.24916H98.8372V6.43193H101.816V8.01641Z" fill="white"/>
<path d="M102.699 16.1335V3.90078H109.541V5.42484H104.519V14.6095H105.281C106.454 14.6095 107.518 14.5289 108.476 14.3745C109.433 14.2201 110.221 14.0724 110.841 13.9314V15.395C110.511 15.489 110.12 15.583 109.662 15.6703C109.203 15.7576 108.725 15.8381 108.213 15.9053C107.7 15.9724 107.175 16.0261 106.629 16.0731C106.083 16.1134 105.557 16.1335 105.045 16.1335H102.686H102.699ZM112.088 2.47743H113.847V20.5983H112.088V10.5476H108.159V9.00336H112.088V2.47743ZM117.858 21.075H116.078V2.2693H117.858V21.075Z" fill="white"/>
<path d="M130.031 10.0642C130.031 11.1652 129.909 12.1388 129.66 12.9847C129.411 13.8307 129.067 14.5356 128.635 15.0996C128.204 15.6636 127.685 16.0865 127.092 16.3752C126.499 16.6639 125.865 16.8049 125.184 16.8049C124.504 16.8049 123.877 16.6639 123.291 16.3752C122.704 16.0865 122.192 15.6568 121.747 15.0996C121.309 14.5356 120.958 13.8307 120.702 12.9847C120.446 12.1388 120.318 11.1652 120.318 10.0642C120.318 8.96307 120.446 7.99627 120.702 7.15703C120.958 6.31779 121.309 5.61954 121.747 5.05558C122.192 4.49161 122.704 4.06863 123.291 3.77993C123.877 3.49123 124.51 3.34353 125.184 3.34353C125.859 3.34353 126.499 3.49123 127.092 3.77993C127.685 4.06863 128.197 4.49161 128.635 5.05558C129.074 5.61954 129.411 6.31779 129.66 7.15703C129.909 7.99627 130.031 8.96307 130.031 10.0642ZM128.211 10.0642C128.211 9.29877 128.143 8.60052 128.002 7.96941C127.86 7.33831 127.665 6.80119 127.415 6.34465C127.159 5.89482 126.843 5.54569 126.465 5.29728C126.088 5.04886 125.656 4.92801 125.171 4.92801C124.686 4.92801 124.261 5.04886 123.877 5.29728C123.499 5.54569 123.183 5.89482 122.927 6.34465C122.67 6.79448 122.475 7.33831 122.34 7.96941C122.205 8.60052 122.131 9.29877 122.131 10.0642C122.131 10.8295 122.199 11.5278 122.34 12.1589C122.475 12.79 122.677 13.3338 122.927 13.7837C123.183 14.2335 123.499 14.5893 123.877 14.8445C124.254 15.0996 124.686 15.2272 125.171 15.2272C125.656 15.2272 126.081 15.0996 126.465 14.8445C126.843 14.5893 127.159 14.2402 127.415 13.7837C127.672 13.3338 127.867 12.79 128.002 12.1589C128.137 11.5278 128.211 10.8295 128.211 10.0642ZM133.589 2.2693H135.369V21.075H133.589V2.2693Z" fill="white"/>
<path d="M142.702 16.3551H138.523V3.79336H146.733V5.29728H140.303V9.27191H146.281V10.7758H140.303V14.8512H142.972C144.144 14.8512 145.277 14.784 146.375 14.6565C147.467 14.5289 148.526 14.3476 149.55 14.1126V15.5763C148.532 15.8381 147.434 16.0328 146.261 16.1604C145.088 16.288 143.902 16.3551 142.702 16.3551ZM148.081 10.3797V8.83551H151.41V2.2693H153.19V21.075H151.41V10.3864H148.081V10.3797Z" fill="white"/>
<path d="M156.452 13.3741L155.131 12.2395C156.081 11.6621 156.856 11.0444 157.456 10.373C158.056 9.70832 158.521 8.99664 158.851 8.24468C159.182 7.49273 159.391 6.67363 159.478 5.80082C159.566 4.92801 159.573 4.00149 159.492 3.00783H161.251C161.278 4.33719 161.19 5.53226 160.981 6.59306C161.392 7.64715 161.938 8.60052 162.612 9.44647C163.286 10.2924 164.122 11.0645 165.113 11.7628L163.812 12.9176C163.111 12.4207 162.464 11.8165 161.878 11.1048C161.291 10.3931 160.786 9.59418 160.361 8.71466C159.99 9.62104 159.485 10.4536 158.851 11.2189C158.218 11.9843 157.416 12.696 156.452 13.3741ZM171.792 20.7057H159.593V14.9787H161.413V19.1615H171.792V20.7057ZM163.071 6.57963H166.05V2.47743H167.748V15.8448H166.05V8.03655H163.071V6.57292V6.57963ZM171.489 16.2611H169.77V2.2693H171.489V16.2544V16.2611Z" fill="white"/>
<path d="M178.35 16.3551H174.172V3.79336H182.381V5.29728H175.951V9.27191H181.923V10.7758H175.951V14.8512H178.62C179.793 14.8512 180.925 14.784 182.024 14.6565C183.123 14.5289 184.181 14.3476 185.198 14.1126V15.5763C184.181 15.8381 183.082 16.0328 181.909 16.1604C180.737 16.288 179.55 16.3551 178.357 16.3551H178.35ZM183.722 10.3797V8.83551H187.052V2.2693H188.831V21.075H187.052V10.3864H183.722V10.3797Z" fill="white"/>
<path d="M53.2402 25.8821V31.5084H52.5797L49.1894 27.3122V31.5084H48.3806V25.8821H49.0412L52.4314 30.0783V25.8821H53.2402Z" fill="white"/>
<path d="M59.1244 28.937V31.5084H58.3897V30.9444C58.1336 31.3271 57.655 31.5554 56.9877 31.5554C56.0172 31.5554 55.4038 31.0384 55.4038 30.2999C55.4038 29.6151 55.8487 29.0511 57.1225 29.0511H58.3492V28.8967C58.3492 28.2454 57.9718 27.8695 57.2034 27.8695C56.6979 27.8695 56.1789 28.044 55.8487 28.326L55.5251 27.7486C55.97 27.3928 56.6036 27.2048 57.291 27.2048C58.4638 27.2048 59.1244 27.7687 59.1244 28.9303V28.937ZM58.3492 30.2059V29.6084H57.1562C56.3879 29.6084 56.1722 29.9038 56.1722 30.2663C56.1722 30.6893 56.5294 30.9579 57.1158 30.9579C57.7022 30.9579 58.1538 30.6893 58.3492 30.1992V30.2059Z" fill="white"/>
<path d="M63.8763 31.26C63.6404 31.4614 63.2899 31.5554 62.9394 31.5554C62.0767 31.5554 61.5846 31.0787 61.5846 30.2193V27.8762H60.8567V27.2383H61.5846V26.3051H62.3597V27.2383H63.5864V27.8762H62.3597V30.1858C62.3597 30.6423 62.6024 30.9041 63.027 30.9041C63.2562 30.9041 63.4719 30.8303 63.6336 30.7027L63.8763 31.26Z" fill="white"/>
<path d="M65.5881 25.9291C65.5881 25.6471 65.8173 25.4256 66.1139 25.4256C66.4104 25.4256 66.6396 25.6404 66.6396 25.9157C66.6396 26.2044 66.4239 26.4327 66.1139 26.4327C65.8038 26.4327 65.5881 26.2178 65.5881 25.9358V25.9291ZM65.7229 27.2451H66.4981V31.5084H65.7229V27.2451Z" fill="white"/>
<path d="M68.4932 29.3801C68.4932 28.1112 69.4368 27.2115 70.7174 27.2115C71.998 27.2115 72.9349 28.1112 72.9349 29.3801C72.9349 30.649 71.998 31.5554 70.7174 31.5554C69.4368 31.5554 68.4932 30.649 68.4932 29.3801ZM72.1598 29.3801C72.1598 28.4737 71.5464 27.8829 70.7241 27.8829C69.9018 27.8829 69.2818 28.467 69.2818 29.3801C69.2818 30.2932 69.9018 30.884 70.7241 30.884C71.5464 30.884 72.1598 30.2865 72.1598 29.3801Z" fill="white"/>
<path d="M78.9875 29.0578V31.5084H78.2124V29.1451C78.2124 28.3059 77.7945 27.8963 77.0598 27.8963C76.2375 27.8963 75.705 28.3864 75.705 29.3129V31.5084H74.9299V27.2451H75.6713V27.8896C75.9881 27.4532 76.5341 27.2048 77.2148 27.2048C78.2596 27.2048 78.9875 27.8023 78.9875 29.0511V29.0578Z" fill="white"/>
<path d="M84.7235 28.937V31.5084H83.9888V30.9444C83.7327 31.3271 83.2541 31.5554 82.5869 31.5554C81.6163 31.5554 81.0029 31.0384 81.0029 30.2999C81.0029 29.6151 81.4478 29.0511 82.7217 29.0511H83.9484V28.8967C83.9484 28.2454 83.5709 27.8695 82.8025 27.8695C82.297 27.8695 81.778 28.044 81.4478 28.326L81.1243 27.7486C81.5691 27.3928 82.2027 27.2048 82.8902 27.2048C84.063 27.2048 84.7235 27.7687 84.7235 28.9303V28.937ZM83.9484 30.2059V29.6084H82.7554C81.987 29.6084 81.7713 29.9038 81.7713 30.2663C81.7713 30.6893 82.1285 30.9579 82.7149 30.9579C83.3013 30.9579 83.7529 30.6893 83.9484 30.1992V30.2059Z" fill="white"/>
<path d="M87.0688 25.5464H87.844V31.5151H87.0688V25.5464Z" fill="white"/>
<path d="M92.9734 28.6953C92.9734 27.0302 94.2473 25.815 95.966 25.815C96.8355 25.815 97.5971 26.1104 98.1161 26.6945L97.5904 27.1981C97.1523 26.7415 96.6198 26.5334 95.9997 26.5334C94.7258 26.5334 93.7822 27.4532 93.7822 28.6953C93.7822 29.9373 94.7258 30.8571 95.9997 30.8571C96.6198 30.8571 97.1523 30.6423 97.5904 30.179L98.1161 30.6826C97.5971 31.26 96.8422 31.5688 95.9593 31.5688C94.2473 31.5688 92.9734 30.3536 92.9734 28.6886V28.6953Z" fill="white"/>
<path d="M103.4 28.937V31.5084H102.666V30.9444C102.409 31.3271 101.931 31.5554 101.264 31.5554C100.293 31.5554 99.6797 31.0384 99.6797 30.2999C99.6797 29.6151 100.125 29.0511 101.398 29.0511H102.625V28.8967C102.625 28.2454 102.248 27.8695 101.479 27.8695C100.974 27.8695 100.455 28.044 100.125 28.326L99.801 27.7486C100.246 27.3928 100.879 27.2048 101.567 27.2048C102.74 27.2048 103.4 27.7687 103.4 28.9303V28.937ZM102.625 30.2059V29.6084H101.432C100.664 29.6084 100.448 29.9038 100.448 30.2663C100.448 30.6893 100.805 30.9579 101.392 30.9579C101.978 30.9579 102.43 30.6893 102.625 30.1992V30.2059Z" fill="white"/>
<path d="M109.81 29.0578V31.5084H109.035V29.1451C109.035 28.3059 108.617 27.8963 107.883 27.8963C107.06 27.8963 106.528 28.3864 106.528 29.3129V31.5084H105.753V27.2451H106.494V27.8896C106.811 27.4532 107.357 27.2048 108.038 27.2048C109.082 27.2048 109.81 27.8023 109.81 29.0511V29.0578Z" fill="white"/>
<path d="M111.785 29.3801C111.785 28.1112 112.729 27.2115 114.043 27.2115C114.811 27.2115 115.445 27.527 115.789 28.1179L115.202 28.4938C114.926 28.0776 114.508 27.8829 114.043 27.8829C113.2 27.8829 112.574 28.467 112.574 29.3801C112.574 30.2932 113.2 30.884 114.043 30.884C114.508 30.884 114.933 30.6893 115.202 30.273L115.789 30.6423C115.452 31.2398 114.811 31.5554 114.043 31.5554C112.729 31.5554 111.785 30.649 111.785 29.3801Z" fill="white"/>
<path d="M121.484 29.6352H118.013C118.107 30.3805 118.714 30.884 119.563 30.884C120.062 30.884 120.48 30.7162 120.797 30.367L121.221 30.8639C120.837 31.3137 120.244 31.5554 119.536 31.5554C118.154 31.5554 117.238 30.649 117.238 29.3801C117.238 28.1112 118.148 27.2115 119.388 27.2115C120.628 27.2115 121.504 28.0977 121.504 29.4069C121.504 29.4741 121.498 29.5681 121.491 29.6419L121.484 29.6352ZM118.013 29.078H120.756C120.675 28.3596 120.136 27.856 119.381 27.856C118.626 27.856 118.087 28.3529 118.006 29.078H118.013Z" fill="white"/>
<path d="M125.784 27.2048V27.95C125.717 27.9433 125.663 27.9433 125.609 27.9433C124.78 27.9433 124.261 28.4469 124.261 29.3801V31.5017H123.486V27.2383H124.227V27.9567C124.504 27.4599 125.036 27.1981 125.784 27.1981V27.2048Z" fill="white"/>
<path d="M130.907 25.8821H133.286C135.099 25.8821 136.339 27.0235 136.339 28.6953C136.339 30.367 135.106 31.5084 133.286 31.5084H130.907V25.8821ZM133.239 30.8101C134.634 30.8101 135.53 29.9575 135.53 28.6953C135.53 27.4331 134.634 26.5804 133.239 26.5804H131.716V30.8101H133.239Z" fill="white"/>
<path d="M141.758 28.937V31.5084H141.024V30.9444C140.768 31.3271 140.289 31.5554 139.622 31.5554C138.651 31.5554 138.038 31.0384 138.038 30.2999C138.038 29.6151 138.483 29.0511 139.757 29.0511H140.983V28.8967C140.983 28.2454 140.606 27.8695 139.837 27.8695C139.332 27.8695 138.813 28.044 138.483 28.326L138.159 27.7486C138.604 27.3928 139.238 27.2048 139.925 27.2048C141.098 27.2048 141.758 27.7687 141.758 28.9303V28.937ZM140.983 30.2059V29.6084H139.79C139.022 29.6084 138.806 29.9038 138.806 30.2663C138.806 30.6893 139.163 30.9579 139.75 30.9579C140.336 30.9579 140.788 30.6893 140.983 30.1992V30.2059Z" fill="white"/>
<path d="M146.51 31.26C146.274 31.4614 145.924 31.5554 145.573 31.5554C144.711 31.5554 144.219 31.0787 144.219 30.2193V27.8762H143.491V27.2383H144.219V26.3051H144.994V27.2383H146.22V27.8762H144.994V30.1858C144.994 30.6423 145.236 30.9041 145.661 30.9041C145.89 30.9041 146.106 30.8303 146.268 30.7027L146.51 31.26Z" fill="white"/>
<path d="M151.754 28.937V31.5084H151.019V30.9444C150.763 31.3271 150.285 31.5554 149.617 31.5554C148.647 31.5554 148.033 31.0384 148.033 30.2999C148.033 29.6151 148.478 29.0511 149.752 29.0511H150.979V28.8967C150.979 28.2454 150.601 27.8695 149.833 27.8695C149.328 27.8695 148.809 28.044 148.478 28.326L148.155 27.7486C148.6 27.3928 149.233 27.2048 149.921 27.2048C151.093 27.2048 151.754 27.7687 151.754 28.9303V28.937ZM150.979 30.2059V29.6084H149.786C149.018 29.6084 148.802 29.9038 148.802 30.2663C148.802 30.6893 149.159 30.9579 149.745 30.9579C150.332 30.9579 150.783 30.6893 150.979 30.1992V30.2059Z" fill="white"/>
<path d="M156.836 28.6953C156.836 27.0302 158.11 25.815 159.829 25.815C160.698 25.815 161.46 26.1104 161.979 26.6945L161.453 27.1981C161.015 26.7415 160.482 26.5334 159.862 26.5334C158.588 26.5334 157.645 27.4532 157.645 28.6953C157.645 29.9373 158.588 30.8571 159.862 30.8571C160.482 30.8571 161.015 30.6423 161.453 30.179L161.979 30.6826C161.46 31.26 160.705 31.5688 159.822 31.5688C158.11 31.5688 156.836 30.3536 156.836 28.6886V28.6953Z" fill="white"/>
<path d="M167.6 29.6352H164.129C164.223 30.3805 164.83 30.884 165.679 30.884C166.178 30.884 166.596 30.7162 166.913 30.367L167.337 30.8639C166.953 31.3137 166.36 31.5554 165.652 31.5554C164.27 31.5554 163.354 30.649 163.354 29.3801C163.354 28.1112 164.264 27.2115 165.497 27.2115C166.731 27.2115 167.614 28.0977 167.614 29.4069C167.614 29.4741 167.607 29.5681 167.6 29.6419V29.6352ZM164.129 29.078H166.872C166.791 28.3596 166.252 27.856 165.497 27.856C164.742 27.856 164.203 28.3529 164.122 29.078H164.129Z" fill="white"/>
<path d="M173.666 29.0578V31.5084H172.891V29.1451C172.891 28.3059 172.473 27.8963 171.739 27.8963C170.916 27.8963 170.384 28.3864 170.384 29.3129V31.5084H169.609V27.2451H170.35V27.8896C170.667 27.4532 171.213 27.2048 171.894 27.2048C172.938 27.2048 173.666 27.8023 173.666 29.0511V29.0578Z" fill="white"/>
<path d="M178.418 31.26C178.182 31.4614 177.832 31.5554 177.481 31.5554C176.618 31.5554 176.126 31.0787 176.126 30.2193V27.8762H175.398V27.2383H176.126V26.3051H176.901V27.2383H178.128V27.8762H176.901V30.1858C176.901 30.6423 177.144 30.9041 177.569 30.9041C177.798 30.9041 178.014 30.8303 178.175 30.7027L178.418 31.26Z" fill="white"/>
<path d="M183.972 29.6352H180.501C180.595 30.3805 181.202 30.884 182.051 30.884C182.55 30.884 182.968 30.7162 183.284 30.367L183.709 30.8639C183.325 31.3137 182.732 31.5554 182.024 31.5554C180.642 31.5554 179.726 30.649 179.726 29.3801C179.726 28.1112 180.636 27.2115 181.876 27.2115C183.116 27.2115 183.992 28.0977 183.992 29.4069C183.992 29.4741 183.985 29.5681 183.979 29.6419L183.972 29.6352ZM180.501 29.078H183.244C183.163 28.3596 182.624 27.856 181.869 27.856C181.114 27.856 180.575 28.3529 180.494 29.078H180.501Z" fill="white"/>
<path d="M188.272 27.2048V27.95C188.205 27.9433 188.151 27.9433 188.097 27.9433C187.268 27.9433 186.749 28.4469 186.749 29.3801V31.5017H185.974V27.2383H186.715V27.9567C186.991 27.4599 187.524 27.1981 188.272 27.1981V27.2048Z" fill="white"/>
</g>
<defs>
<linearGradient id="paint0_linear_484_4111" x1="2.8918" y1="8.7348" x2="22.5999" y2="8.7348" gradientUnits="userSpaceOnUse">
<stop stop-color="#002F7B"/>
<stop offset="0.53" stop-color="#005BAC"/>
<stop offset="1" stop-color="#00A0E9"/>
</linearGradient>
<linearGradient id="paint1_linear_484_4111" x1="28.012" y1="22.2029" x2="39.3778" y2="13.7009" gradientUnits="userSpaceOnUse">
<stop stop-color="#14126F"/>
<stop offset="0.48" stop-color="#0253A5"/>
<stop offset="0.53" stop-color="#005BAC"/>
<stop offset="1" stop-color="#008CD6"/>
</linearGradient>
<linearGradient id="paint2_linear_484_4111" x1="31.6249" y1="27.9433" x2="3.77452" y2="14.6259" gradientUnits="userSpaceOnUse">
<stop stop-color="#005BAC"/>
<stop offset="0.52" stop-color="#008CD6"/>
<stop offset="1" stop-color="#7ECEF4"/>
</linearGradient>
<linearGradient id="paint3_linear_484_4111" x1="12.887" y1="9.24506" x2="25.1896" y2="16.5852" gradientUnits="userSpaceOnUse">
<stop stop-color="#14126F"/>
<stop offset="1" stop-color="#005BAC"/>
</linearGradient>
<clipPath id="clip0_484_4111">
<rect width="189" height="36" fill="white"/>
</clipPath>
</defs>
</svg>
