<svg width="189" height="36" viewBox="0 0 189 36" fill="none" xmlns="http://www.w3.org/2000/svg">
<g clip-path="url(#clip0_484_5407)">
<path d="M0.235809 15.6434C0.235809 15.6434 -0.0742372 16.2208 0.094266 18.47L-0.00683594 19.9739C-0.00683594 19.9739 0.0538252 21.5785 0.141447 21.8941L0.633476 22.5856C0.633476 22.5856 21.8784 35.1003 21.939 35.1406C21.9997 35.1809 25.8416 35.5703 25.8416 35.5703L27.8232 34.8989L31.2067 32.4349L37.4211 27.5606C37.4211 27.5606 38.3917 27.1981 38.3917 26.238C38.3917 25.2779 38.3849 19.7322 38.3849 19.7322L36.0798 10.3797L20.3753 1.96045L6.8681 6.35806L1.10529 11.8769L0.235809 15.6434Z" fill="white"/>
<path d="M22.2559 30.3066C22.1009 30.2596 21.9593 30.1925 21.8178 30.1119C20.463 29.3398 6.06612 21.5315 2.50733 19.4368C-1.19974 17.2413 0.485289 15.5763 0.593131 15.4957C0.559431 15.5159 0 15.8918 0 16.3752V19.8531C0.0606612 20.2827 0.229164 20.3499 0.229164 20.3499L2.69605 21.9881C6.55141 24.2574 20.463 32.2067 21.7976 32.972C21.9391 33.0526 22.0807 33.1197 22.2357 33.1667C23.0647 33.4286 25.471 34.429 28.2411 32.0992C28.531 31.8575 28.7534 31.5487 28.7534 31.1727V30.1186C28.7669 29.7359 28.3085 29.5144 27.985 29.7426C24.9385 31.9045 23.058 30.5617 22.2559 30.3133V30.3066Z" fill="#005BAC"/>
<path d="M22.2559 34.0999C22.1009 34.0529 21.9593 33.9858 21.8178 33.9052C20.463 33.1331 6.0661 25.3249 2.50731 23.2301C1.11885 22.411 0.485274 21.6658 0.242629 21.0481C-0.0471966 21.7128 -0.0539368 22.975 2.50731 24.4923C6.05936 26.5938 20.4563 34.3954 21.8178 35.1675C21.9593 35.248 22.1009 35.3152 22.2559 35.3622C23.0849 35.624 25.053 37.0272 28.2479 34.5968C28.5714 34.3484 28.7601 33.9724 28.7601 33.5763C28.7601 33.3211 28.4568 33.1801 28.2479 33.3413C25.0463 35.7717 23.0782 34.3618 22.2559 34.1067V34.0999Z" fill="#7ECEF4"/>
<path d="M38.3584 14.0523L33.856 17.463C35.177 15.8516 32.9326 13.3138 32.9326 13.3138C32.3192 12.5484 30.8633 11.4674 30.0073 10.9572L25.3364 8.27832C23.0178 6.88854 20.2881 6.23729 17.5718 6.49913H17.5246C15.4958 6.70055 13.5345 7.32494 11.7753 8.33203L0.539498 14.7707L0.0205078 15.1064V8.40588C0.0205078 8.40588 0.14857 7.74792 0.964126 7.27795L9.28145 2.51778C11.6001 1.18843 14.1815 0.329046 16.8641 0.0403473C16.8641 0.0403473 21.535 -0.436341 25.7206 1.8531L34.5772 6.90197C35.6758 7.58007 37.1047 8.48645 37.7248 9.72181C38.2438 10.749 38.2573 12.1388 37.7248 13.4346C36.4779 16.4693 38.3584 14.0456 38.3584 14.0456V14.0523Z" fill="url(#paint0_linear_484_5407)"/>
<path d="M36.4978 14.9721C36.2821 15.1735 36.0395 15.3548 35.8238 15.5495L31.3012 19.081C30.8428 19.4436 30.5732 20.0142 30.5732 20.6252V25.6338C30.5732 26.097 31.0788 26.3723 31.436 26.097L37.738 21.3503C38.5536 20.5715 38.3985 19.4973 38.3985 19.4973V12.9915C38.3985 10.1448 37.1988 8.94971 37.1988 8.94971C37.1988 8.94971 39.4028 12.2932 36.5046 14.9721H36.4978Z" fill="url(#paint1_linear_484_5407)"/>
<path d="M0.0136719 8.7013V15.0997C0.0136719 16.8453 2.49404 18.2418 2.49404 18.2418L21.3394 28.7692C21.4742 28.843 21.6293 28.8833 21.7708 28.9438C25.3229 30.6155 27.7493 28.7289 28.4503 28.0307C28.6525 27.8292 28.7671 27.554 28.7671 27.2653V22.4581C28.7671 21.6592 28.1605 21.3033 27.4662 21.7464C24.7297 23.4853 23.0245 22.5655 22.2696 22.3305C22.1146 22.2835 21.973 22.2164 21.8315 22.1358C20.4767 21.3637 6.07979 13.1325 2.52774 11.0377C-1.30065 8.78187 0.613544 7.51965 0.613544 7.51965C0.613544 7.51965 0.0136719 7.90906 0.0136719 8.40589V8.7013Z" fill="url(#paint2_linear_484_5407)"/>
<path d="M26.7583 13.5218C26.6977 13.4278 26.5831 13.3607 26.5831 13.3607L26.4483 13.2734L21.7369 10.561C20.8405 10.0238 19.789 9.78886 18.7376 9.89628C18.0703 9.96342 17.4233 10.1716 16.8504 10.5005L14.7407 11.709L14.6463 11.7762C14.6463 11.7762 14.498 11.8769 14.498 11.9977V13.6762C14.498 14.1126 15.1181 14.4617 15.1181 14.4617L21.4134 17.9597C21.4471 17.9798 21.4876 17.9865 21.5213 18.0067C22.1009 18.329 22.4986 18.2551 22.7682 18.1074L24.1432 17.2413C25.6664 16.3148 26.3337 15.8247 26.5292 15.6837C26.6168 15.6233 26.6775 15.5561 26.7246 15.489C26.8594 15.301 26.8594 15.1398 26.8594 15.1398V14.0589C26.8594 13.5621 26.7651 13.5218 26.7651 13.5218H26.7583Z" fill="#005BAC"/>
<path d="M26.7649 13.5286L23.469 15.6099C22.7343 16.0731 21.7975 16.1 21.0358 15.677L14.4709 12.0247V13.7031C14.4709 14.1395 15.091 14.4887 15.091 14.4887L21.3863 17.9866C21.42 18.0068 21.4605 18.0135 21.4942 18.0336C21.8042 18.2015 22.0603 18.2619 22.2693 18.2552V18.235C22.4647 18.235 22.6265 18.1813 22.7613 18.1142L24.1363 17.2481C25.6596 16.3216 26.3268 15.8314 26.5223 15.6905C26.6099 15.63 26.6706 15.5629 26.7178 15.4958C26.8526 15.3078 26.8526 15.1466 26.8526 15.1466V14.0657C26.8526 13.6427 26.7784 13.5487 26.7582 13.5353L26.7649 13.5286Z" fill="url(#paint3_linear_484_5407)"/>
<path d="M37.9468 22.3237L36.4775 23.4785L31.2808 27.3189L30.9978 27.5472C30.7282 27.7687 30.5664 28.091 30.5597 28.4334V29.6822C30.5529 30.0313 30.9641 30.2327 31.2539 30.0246L36.4505 26.1842L37.9199 25.0294C37.9199 25.0294 38.4052 24.687 38.3984 23.9216V22.4244C38.3984 22.2969 38.3512 22.1223 38.2164 22.1223L37.9468 22.3237Z" fill="#005BAC"/>
<path d="M38.4054 26.238C38.4054 26.1105 38.2975 26.0031 38.1627 26.0031H38.1155L37.9538 26.1239L36.4844 27.2787L31.2878 31.1191L30.9508 31.354C30.7149 31.5152 30.5801 31.7837 30.5801 32.059C30.5801 32.4148 31.0114 32.6028 31.2878 32.3746L36.4844 28.5342L37.9538 27.3794C37.9538 27.3794 38.4189 27.037 38.4054 26.3992V26.238Z" fill="#7ECEF4"/>
<path d="M50.8677 2.8064H63.1887C63.1617 4.08204 63.1011 5.27712 63 6.3782C62.9056 7.48599 62.7978 8.46623 62.6899 9.33232H66.1678V10.8564H58.1269V14.6632H63.2359V21.1287H61.4565V16.1671H50.7666V14.6632H56.307V10.8564H48.1582V9.33232H60.9375C61.0453 8.47965 61.1464 7.65384 61.2273 6.84817C61.3082 6.0425 61.3554 5.20998 61.3756 4.34388H50.8745V2.79968L50.8677 2.8064Z" fill="#000003" stroke="#000003" stroke-width="0.5" stroke-miterlimit="10"/>
<path d="M66.2488 15.7374C67.462 15.1331 68.5337 14.4483 69.4503 13.6762C70.3737 12.9108 71.1556 12.0783 71.7959 11.1854C72.4362 10.2924 72.9485 9.35918 73.3394 8.37223C73.7236 7.392 73.9865 6.38492 74.128 5.35769C73.2855 5.38454 72.4497 5.40468 71.6274 5.4114C70.7984 5.41811 69.9761 5.42483 69.147 5.42483H67.0172V3.90077H73.1574C74.1213 3.90077 75.0918 3.88734 76.0759 3.86048C75.8804 6.68704 75.0986 9.21819 73.7168 11.4472C72.3419 13.6762 70.2524 15.5427 67.4553 17.0399L66.2555 15.7441L66.2488 15.7374ZM84.1573 11.1048H80.9086V21.075H79.1292V2.26929H80.9086V9.52031H84.1573V11.1048Z" fill="#000003" stroke="#000003" stroke-width="0.5" stroke-miterlimit="10"/>
<path d="M84.3594 7.37857C84.3594 6.72061 84.4807 6.10293 84.7233 5.53225C84.966 4.96157 85.2963 4.47145 85.7276 4.04847C86.1522 3.63221 86.6645 3.29652 87.2442 3.06153C87.8305 2.81983 88.4574 2.69898 89.1381 2.69898C89.8189 2.69898 90.4457 2.81983 91.0321 3.06153C91.6185 3.30323 92.1307 3.63221 92.5621 4.04847C92.9935 4.46474 93.3305 4.96157 93.5731 5.53225C93.8158 6.10293 93.9371 6.7139 93.9371 7.37857C93.9371 8.04325 93.8158 8.67436 93.5731 9.24504C93.3305 9.81573 92.9935 10.3126 92.5621 10.7288C92.1307 11.1451 91.6185 11.4741 91.0321 11.709C90.4457 11.944 89.8189 12.0582 89.1381 12.0582C88.4574 12.0582 87.8305 11.944 87.2442 11.709C86.6578 11.4741 86.1522 11.1518 85.7276 10.7288C85.303 10.3126 84.966 9.81573 84.7233 9.24504C84.4807 8.67436 84.3594 8.05668 84.3594 7.37857ZM86.0983 7.37857C86.0983 7.83512 86.1725 8.24467 86.3275 8.62736C86.4758 9.00334 86.6915 9.33232 86.9611 9.61431C87.2307 9.89629 87.5475 10.1179 87.9249 10.2723C88.2956 10.4334 88.7068 10.5073 89.1449 10.5073C89.583 10.5073 89.9941 10.4267 90.3783 10.2723C90.7558 10.1179 91.0793 9.89629 91.3489 9.61431C91.6185 9.33232 91.8274 9.00334 91.9825 8.62736C92.1307 8.25138 92.2116 7.83512 92.2116 7.37857C92.2116 6.92203 92.1375 6.52591 91.9825 6.14321C91.8342 5.76052 91.6185 5.42483 91.3489 5.14284C91.0793 4.86086 90.7558 4.6393 90.3783 4.48488C90.0009 4.33046 89.5897 4.24989 89.1449 4.24989C88.7 4.24989 88.2956 4.33046 87.9249 4.48488C87.5542 4.64601 87.2307 4.86086 86.9611 5.14284C86.6915 5.42483 86.4825 5.76052 86.3275 6.14321C86.1792 6.52591 86.0983 6.94217 86.0983 7.37857ZM98.8372 20.7863H87.1767V13.9314H98.8372V20.7863ZM97.0578 15.4286H88.9561V19.2823H97.0578V15.4286ZM101.816 8.0164H98.8372V12.8571H97.0578V2.24915H98.8372V6.43191H101.816V8.0164Z" fill="#000003" stroke="#000003" stroke-width="0.5" stroke-miterlimit="10"/>
<path d="M102.699 16.1335V3.90077H109.541V5.42483H104.519V14.6095H105.281C106.454 14.6095 107.518 14.5289 108.476 14.3745C109.433 14.2201 110.221 14.0723 110.841 13.9314V15.395C110.511 15.489 110.12 15.583 109.662 15.6703C109.203 15.7575 108.725 15.8381 108.213 15.9052C107.7 15.9724 107.175 16.0261 106.629 16.0731C106.083 16.1134 105.557 16.1335 105.045 16.1335H102.686H102.699ZM112.088 2.47742H113.847V20.5983H112.088V10.5475H108.159V9.00334H112.088V2.47742ZM117.858 21.075H116.078V2.26929H117.858V21.075Z" fill="#000003" stroke="#000003" stroke-width="0.5" stroke-miterlimit="10"/>
<path d="M130.031 10.0641C130.031 11.1652 129.909 12.1387 129.66 12.9847C129.411 13.8306 129.067 14.5356 128.635 15.0996C128.204 15.6635 127.685 16.0865 127.092 16.3752C126.499 16.6639 125.865 16.8049 125.184 16.8049C124.504 16.8049 123.877 16.6639 123.291 16.3752C122.704 16.0865 122.192 15.6568 121.747 15.0996C121.309 14.5356 120.958 13.8306 120.702 12.9847C120.446 12.1387 120.318 11.1652 120.318 10.0641C120.318 8.96306 120.446 7.99625 120.702 7.15702C120.958 6.31778 121.309 5.61953 121.747 5.05556C122.192 4.49159 122.704 4.06862 123.291 3.77992C123.877 3.49122 124.51 3.34351 125.184 3.34351C125.859 3.34351 126.499 3.49122 127.092 3.77992C127.685 4.06862 128.197 4.49159 128.635 5.05556C129.074 5.61953 129.411 6.31778 129.66 7.15702C129.909 7.99625 130.031 8.96306 130.031 10.0641ZM128.211 10.0641C128.211 9.29875 128.143 8.60051 128.002 7.9694C127.86 7.33829 127.665 6.80118 127.415 6.34463C127.159 5.8948 126.843 5.54568 126.465 5.29726C126.088 5.04885 125.656 4.928 125.171 4.928C124.686 4.928 124.261 5.04885 123.877 5.29726C123.499 5.54568 123.183 5.8948 122.927 6.34463C122.67 6.79446 122.475 7.33829 122.34 7.9694C122.205 8.60051 122.131 9.29875 122.131 10.0641C122.131 10.8295 122.199 11.5278 122.34 12.1589C122.475 12.79 122.677 13.3338 122.927 13.7836C123.183 14.2335 123.499 14.5893 123.877 14.8444C124.254 15.0996 124.686 15.2271 125.171 15.2271C125.656 15.2271 126.081 15.0996 126.465 14.8444C126.843 14.5893 127.159 14.2402 127.415 13.7836C127.672 13.3338 127.867 12.79 128.002 12.1589C128.137 11.5278 128.211 10.8295 128.211 10.0641ZM133.589 2.26929H135.369V21.075H133.589V2.26929Z" fill="#000003" stroke="#000003" stroke-width="0.5" stroke-miterlimit="10"/>
<path d="M142.702 16.3551H138.523V3.79335H146.733V5.29726H140.303V9.2719H146.281V10.7758H140.303V14.8512H142.972C144.144 14.8512 145.277 14.784 146.375 14.6565C147.467 14.5289 148.526 14.3476 149.55 14.1126V15.5763C148.532 15.8381 147.434 16.0328 146.261 16.1604C145.088 16.2879 143.902 16.3551 142.702 16.3551ZM148.081 10.3797V8.83549H151.41V2.26929H153.19V21.075H151.41V10.3864H148.081V10.3797Z" fill="#000003" stroke="#000003" stroke-width="0.5" stroke-miterlimit="10"/>
<path d="M156.452 13.3741L155.131 12.2394C156.081 11.6621 156.856 11.0444 157.456 10.373C158.056 9.7083 158.521 8.99663 158.851 8.24467C159.182 7.49271 159.391 6.67361 159.478 5.80081C159.566 4.928 159.573 4.00148 159.492 3.00782H161.251C161.278 4.33717 161.19 5.53225 160.981 6.59305C161.392 7.64713 161.938 8.60051 162.612 9.44646C163.286 10.2924 164.122 11.0645 165.113 11.7628L163.812 12.9176C163.111 12.4207 162.464 11.8165 161.878 11.1048C161.291 10.3931 160.786 9.59417 160.361 8.71464C159.99 9.62102 159.485 10.4535 158.851 11.2189C158.218 11.9843 157.416 12.696 156.452 13.3741ZM171.792 20.7057H159.593V14.9787H161.413V19.1615H171.792V20.7057ZM163.071 6.57962H166.05V2.47742H167.748V15.8448H166.05V8.03654H163.071V6.57291V6.57962ZM171.489 16.2611H169.77V2.26929H171.489V16.2544V16.2611Z" fill="#000003" stroke="#000003" stroke-width="0.5" stroke-miterlimit="10"/>
<path d="M178.35 16.3551H174.172V3.79335H182.381V5.29726H175.951V9.2719H181.923V10.7758H175.951V14.8512H178.62C179.793 14.8512 180.925 14.784 182.024 14.6565C183.123 14.5289 184.181 14.3476 185.198 14.1126V15.5763C184.181 15.8381 183.082 16.0328 181.909 16.1604C180.737 16.2879 179.55 16.3551 178.357 16.3551H178.35ZM183.722 10.3797V8.83549H187.052V2.26929H188.831V21.075H187.052V10.3864H183.722V10.3797Z" fill="#000003" stroke="#000003" stroke-width="0.5" stroke-miterlimit="10"/>
<path d="M53.2402 25.8821V31.5083H52.5797L49.1894 27.3121V31.5083H48.3806V25.8821H49.0412L52.4314 30.0783V25.8821H53.2402Z" fill="#898989"/>
<path d="M59.1244 28.9369V31.5083H58.3897V30.9444C58.1336 31.3271 57.655 31.5553 56.9877 31.5553C56.0172 31.5553 55.4038 31.0384 55.4038 30.2998C55.4038 29.615 55.8487 29.051 57.1225 29.051H58.3492V28.8966C58.3492 28.2454 57.9718 27.8694 57.2034 27.8694C56.6979 27.8694 56.1789 28.0439 55.8487 28.3259L55.5251 27.7485C55.97 27.3927 56.6036 27.2047 57.291 27.2047C58.4638 27.2047 59.1244 27.7687 59.1244 28.9302V28.9369ZM58.3492 30.2058V29.6083H57.1562C56.3879 29.6083 56.1722 29.9037 56.1722 30.2663C56.1722 30.6892 56.5294 30.9578 57.1158 30.9578C57.7022 30.9578 58.1538 30.6892 58.3492 30.1991V30.2058Z" fill="#898989"/>
<path d="M63.8763 31.2599C63.6404 31.4613 63.2899 31.5553 62.9394 31.5553C62.0767 31.5553 61.5846 31.0786 61.5846 30.2193V27.8761H60.8567V27.2383H61.5846V26.3051H62.3597V27.2383H63.5864V27.8761H62.3597V30.1857C62.3597 30.6422 62.6024 30.9041 63.027 30.9041C63.2562 30.9041 63.4719 30.8302 63.6336 30.7027L63.8763 31.2599Z" fill="#898989"/>
<path d="M65.5881 25.9291C65.5881 25.6471 65.8173 25.4255 66.1139 25.4255C66.4104 25.4255 66.6396 25.6404 66.6396 25.9157C66.6396 26.2044 66.4239 26.4326 66.1139 26.4326C65.8038 26.4326 65.5881 26.2178 65.5881 25.9358V25.9291ZM65.7229 27.245H66.4981V31.5083H65.7229V27.245Z" fill="#898989"/>
<path d="M68.4932 29.38C68.4932 28.1111 69.4368 27.2114 70.7174 27.2114C71.998 27.2114 72.9349 28.1111 72.9349 29.38C72.9349 30.6489 71.998 31.5553 70.7174 31.5553C69.4368 31.5553 68.4932 30.6489 68.4932 29.38ZM72.1598 29.38C72.1598 28.4736 71.5464 27.8828 70.7241 27.8828C69.9018 27.8828 69.2818 28.4669 69.2818 29.38C69.2818 30.2931 69.9018 30.8839 70.7241 30.8839C71.5464 30.8839 72.1598 30.2864 72.1598 29.38Z" fill="#898989"/>
<path d="M78.9875 29.0578V31.5083H78.2124V29.145C78.2124 28.3058 77.7945 27.8962 77.0598 27.8962C76.2375 27.8962 75.705 28.3864 75.705 29.3129V31.5083H74.9299V27.245H75.6713V27.8895C75.9881 27.4531 76.5341 27.2047 77.2148 27.2047C78.2596 27.2047 78.9875 27.8023 78.9875 29.051V29.0578Z" fill="#898989"/>
<path d="M84.7235 28.9369V31.5083H83.9888V30.9444C83.7327 31.3271 83.2541 31.5553 82.5869 31.5553C81.6163 31.5553 81.0029 31.0384 81.0029 30.2998C81.0029 29.615 81.4478 29.051 82.7217 29.051H83.9484V28.8966C83.9484 28.2454 83.5709 27.8694 82.8025 27.8694C82.297 27.8694 81.778 28.0439 81.4478 28.3259L81.1243 27.7485C81.5691 27.3927 82.2027 27.2047 82.8902 27.2047C84.063 27.2047 84.7235 27.7687 84.7235 28.9302V28.9369ZM83.9484 30.2058V29.6083H82.7554C81.987 29.6083 81.7713 29.9037 81.7713 30.2663C81.7713 30.6892 82.1285 30.9578 82.7149 30.9578C83.3013 30.9578 83.7529 30.6892 83.9484 30.1991V30.2058Z" fill="#898989"/>
<path d="M87.0688 25.5464H87.844V31.5151H87.0688V25.5464Z" fill="#898989"/>
<path d="M92.9734 28.6952C92.9734 27.0302 94.2473 25.8149 95.966 25.8149C96.8355 25.8149 97.5971 26.1104 98.1161 26.6945L97.5904 27.198C97.1523 26.7415 96.6198 26.5333 95.9997 26.5333C94.7258 26.5333 93.7822 27.4531 93.7822 28.6952C93.7822 29.9373 94.7258 30.8571 95.9997 30.8571C96.6198 30.8571 97.1523 30.6422 97.5904 30.179L98.1161 30.6825C97.5971 31.2599 96.8422 31.5688 95.9593 31.5688C94.2473 31.5688 92.9734 30.3535 92.9734 28.6885V28.6952Z" fill="#898989"/>
<path d="M103.4 28.9369V31.5083H102.666V30.9444C102.409 31.3271 101.931 31.5553 101.264 31.5553C100.293 31.5553 99.6797 31.0384 99.6797 30.2998C99.6797 29.615 100.125 29.051 101.398 29.051H102.625V28.8966C102.625 28.2454 102.248 27.8694 101.479 27.8694C100.974 27.8694 100.455 28.0439 100.125 28.3259L99.801 27.7485C100.246 27.3927 100.879 27.2047 101.567 27.2047C102.74 27.2047 103.4 27.7687 103.4 28.9302V28.9369ZM102.625 30.2058V29.6083H101.432C100.664 29.6083 100.448 29.9037 100.448 30.2663C100.448 30.6892 100.805 30.9578 101.392 30.9578C101.978 30.9578 102.43 30.6892 102.625 30.1991V30.2058Z" fill="#898989"/>
<path d="M109.81 29.0578V31.5083H109.035V29.145C109.035 28.3058 108.617 27.8962 107.883 27.8962C107.06 27.8962 106.528 28.3864 106.528 29.3129V31.5083H105.753V27.245H106.494V27.8895C106.811 27.4531 107.357 27.2047 108.038 27.2047C109.082 27.2047 109.81 27.8023 109.81 29.051V29.0578Z" fill="#898989"/>
<path d="M111.785 29.38C111.785 28.1111 112.729 27.2114 114.043 27.2114C114.811 27.2114 115.445 27.527 115.789 28.1178L115.202 28.4938C114.926 28.0775 114.508 27.8828 114.043 27.8828C113.201 27.8828 112.574 28.4669 112.574 29.38C112.574 30.2931 113.201 30.8839 114.043 30.8839C114.508 30.8839 114.933 30.6892 115.202 30.273L115.789 30.6422C115.452 31.2398 114.811 31.5553 114.043 31.5553C112.729 31.5553 111.785 30.6489 111.785 29.38Z" fill="#898989"/>
<path d="M121.484 29.6351H118.013C118.107 30.3804 118.714 30.8839 119.563 30.8839C120.062 30.8839 120.48 30.7161 120.797 30.367L121.221 30.8638C120.837 31.3136 120.244 31.5553 119.536 31.5553C118.154 31.5553 117.238 30.6489 117.238 29.38C117.238 28.1111 118.148 27.2114 119.388 27.2114C120.628 27.2114 121.504 28.0977 121.504 29.4069C121.504 29.474 121.498 29.568 121.491 29.6419L121.484 29.6351ZM118.013 29.0779H120.756C120.675 28.3595 120.136 27.856 119.381 27.856C118.626 27.856 118.087 28.3528 118.006 29.0779H118.013Z" fill="#898989"/>
<path d="M125.784 27.2047V27.95C125.717 27.9432 125.663 27.9432 125.609 27.9432C124.78 27.9432 124.261 28.4468 124.261 29.38V31.5016H123.486V27.2383H124.227V27.9567C124.504 27.4598 125.036 27.198 125.784 27.198V27.2047Z" fill="#898989"/>
<path d="M130.907 25.8821H133.286C135.099 25.8821 136.339 27.0234 136.339 28.6952C136.339 30.367 135.106 31.5083 133.286 31.5083H130.907V25.8821ZM133.239 30.8101C134.634 30.8101 135.53 29.9574 135.53 28.6952C135.53 27.433 134.634 26.5803 133.239 26.5803H131.716V30.8101H133.239Z" fill="#898989"/>
<path d="M141.758 28.9369V31.5083H141.024V30.9444C140.768 31.3271 140.289 31.5553 139.622 31.5553C138.651 31.5553 138.038 31.0384 138.038 30.2998C138.038 29.615 138.483 29.051 139.757 29.051H140.983V28.8966C140.983 28.2454 140.606 27.8694 139.837 27.8694C139.332 27.8694 138.813 28.0439 138.483 28.3259L138.159 27.7485C138.604 27.3927 139.238 27.2047 139.925 27.2047C141.098 27.2047 141.758 27.7687 141.758 28.9302V28.9369ZM140.983 30.2058V29.6083H139.79C139.022 29.6083 138.806 29.9037 138.806 30.2663C138.806 30.6892 139.163 30.9578 139.75 30.9578C140.336 30.9578 140.788 30.6892 140.983 30.1991V30.2058Z" fill="#898989"/>
<path d="M146.51 31.2599C146.274 31.4613 145.924 31.5553 145.573 31.5553C144.711 31.5553 144.219 31.0786 144.219 30.2193V27.8761H143.491V27.2383H144.219V26.3051H144.994V27.2383H146.22V27.8761H144.994V30.1857C144.994 30.6422 145.236 30.9041 145.661 30.9041C145.89 30.9041 146.106 30.8302 146.268 30.7027L146.51 31.2599Z" fill="#898989"/>
<path d="M151.754 28.9369V31.5083H151.019V30.9444C150.763 31.3271 150.285 31.5553 149.617 31.5553C148.647 31.5553 148.033 31.0384 148.033 30.2998C148.033 29.615 148.478 29.051 149.752 29.051H150.979V28.8966C150.979 28.2454 150.601 27.8694 149.833 27.8694C149.328 27.8694 148.809 28.0439 148.478 28.3259L148.155 27.7485C148.6 27.3927 149.233 27.2047 149.921 27.2047C151.093 27.2047 151.754 27.7687 151.754 28.9302V28.9369ZM150.979 30.2058V29.6083H149.786C149.018 29.6083 148.802 29.9037 148.802 30.2663C148.802 30.6892 149.159 30.9578 149.745 30.9578C150.332 30.9578 150.783 30.6892 150.979 30.1991V30.2058Z" fill="#898989"/>
<path d="M156.836 28.6952C156.836 27.0302 158.11 25.8149 159.829 25.8149C160.698 25.8149 161.46 26.1104 161.979 26.6945L161.453 27.198C161.015 26.7415 160.482 26.5333 159.862 26.5333C158.588 26.5333 157.645 27.4531 157.645 28.6952C157.645 29.9373 158.588 30.8571 159.862 30.8571C160.482 30.8571 161.015 30.6422 161.453 30.179L161.979 30.6825C161.46 31.2599 160.705 31.5688 159.822 31.5688C158.11 31.5688 156.836 30.3535 156.836 28.6885V28.6952Z" fill="#898989"/>
<path d="M167.6 29.6351H164.129C164.223 30.3804 164.83 30.8839 165.679 30.8839C166.178 30.8839 166.596 30.7161 166.913 30.367L167.337 30.8638C166.953 31.3136 166.36 31.5553 165.652 31.5553C164.27 31.5553 163.354 30.6489 163.354 29.38C163.354 28.1111 164.264 27.2114 165.497 27.2114C166.731 27.2114 167.614 28.0977 167.614 29.4069C167.614 29.474 167.607 29.568 167.6 29.6419V29.6351ZM164.129 29.0779H166.872C166.791 28.3595 166.252 27.856 165.497 27.856C164.742 27.856 164.203 28.3528 164.122 29.0779H164.129Z" fill="#898989"/>
<path d="M173.666 29.0578V31.5083H172.891V29.145C172.891 28.3058 172.473 27.8962 171.739 27.8962C170.916 27.8962 170.384 28.3864 170.384 29.3129V31.5083H169.609V27.245H170.35V27.8895C170.667 27.4531 171.213 27.2047 171.894 27.2047C172.938 27.2047 173.666 27.8023 173.666 29.051V29.0578Z" fill="#898989"/>
<path d="M178.418 31.2599C178.182 31.4613 177.832 31.5553 177.481 31.5553C176.618 31.5553 176.126 31.0786 176.126 30.2193V27.8761H175.398V27.2383H176.126V26.3051H176.901V27.2383H178.128V27.8761H176.901V30.1857C176.901 30.6422 177.144 30.9041 177.569 30.9041C177.798 30.9041 178.014 30.8302 178.175 30.7027L178.418 31.2599Z" fill="#898989"/>
<path d="M183.972 29.6351H180.501C180.595 30.3804 181.202 30.8839 182.051 30.8839C182.55 30.8839 182.968 30.7161 183.284 30.367L183.709 30.8638C183.325 31.3136 182.732 31.5553 182.024 31.5553C180.642 31.5553 179.726 30.6489 179.726 29.38C179.726 28.1111 180.636 27.2114 181.876 27.2114C183.116 27.2114 183.992 28.0977 183.992 29.4069C183.992 29.474 183.985 29.568 183.979 29.6419L183.972 29.6351ZM180.501 29.0779H183.244C183.163 28.3595 182.624 27.856 181.869 27.856C181.114 27.856 180.575 28.3528 180.494 29.0779H180.501Z" fill="#898989"/>
<path d="M188.272 27.2047V27.95C188.205 27.9432 188.151 27.9432 188.097 27.9432C187.268 27.9432 186.749 28.4468 186.749 29.38V31.5016H185.974V27.2383H186.715V27.9567C186.991 27.4598 187.524 27.198 188.272 27.198V27.2047Z" fill="#898989"/>
</g>
<defs>
<linearGradient id="paint0_linear_484_5407" x1="2.8918" y1="8.73486" x2="22.5999" y2="8.73486" gradientUnits="userSpaceOnUse">
<stop stop-color="#002F7B"/>
<stop offset="0.53" stop-color="#005BAC"/>
<stop offset="1" stop-color="#00A0E9"/>
</linearGradient>
<linearGradient id="paint1_linear_484_5407" x1="28.012" y1="22.203" x2="39.3778" y2="13.701" gradientUnits="userSpaceOnUse">
<stop stop-color="#14126F"/>
<stop offset="0.48" stop-color="#0253A5"/>
<stop offset="0.53" stop-color="#005BAC"/>
<stop offset="1" stop-color="#008CD6"/>
</linearGradient>
<linearGradient id="paint2_linear_484_5407" x1="31.6249" y1="27.9434" x2="3.77452" y2="14.626" gradientUnits="userSpaceOnUse">
<stop stop-color="#005BAC"/>
<stop offset="0.52" stop-color="#008CD6"/>
<stop offset="1" stop-color="#7ECEF4"/>
</linearGradient>
<linearGradient id="paint3_linear_484_5407" x1="12.887" y1="9.2451" x2="25.1896" y2="16.5852" gradientUnits="userSpaceOnUse">
<stop stop-color="#14126F"/>
<stop offset="1" stop-color="#005BAC"/>
</linearGradient>
<clipPath id="clip0_484_5407">
<rect width="189" height="36" fill="white"/>
</clipPath>
</defs>
</svg>
